<?xml version="1.0" encoding="UTF-8"?>
<!DOCTYPE svg PUBLIC "-//W3C//DTD SVG 1.1//EN" "http://www.w3.org/Graphics/SVG/1.1/DTD/svg11.dtd">
<svg xmlns="http://www.w3.org/2000/svg" version="1.1" width="505px" height="452px" style="shape-rendering:geometricPrecision; text-rendering:geometricPrecision; image-rendering:optimizeQuality; fill-rule:evenodd; clip-rule:evenodd" xmlns:xlink="http://www.w3.org/1999/xlink">
<g><path style="opacity:0.197" fill="#f4f4f4" d="M 249.5,-0.5 C 258.167,-0.5 266.833,-0.5 275.5,-0.5C 281.833,0.833333 288.167,0.833333 294.5,-0.5C 300.167,-0.5 305.833,-0.5 311.5,-0.5C 318.833,0.833333 326.167,0.833333 333.5,-0.5C 336.833,-0.5 340.167,-0.5 343.5,-0.5C 365.663,0.33201 387.996,0.83201 410.5,1C 415.005,1.26253 419.339,2.26253 423.5,4C 422.944,4.38258 422.611,4.88258 422.5,5.5C 417.782,3.28156 412.782,2.11489 407.5,2C 352.167,1.33333 296.833,1.33333 241.5,2C 235.582,3.13973 229.915,4.97306 224.5,7.5C 227.32,4.91925 230.654,3.08592 234.5,2C 239.643,1.16171 244.643,0.328373 249.5,-0.5 Z"/></g>
<g><path style="opacity:0.999" fill="#020202" d="M 422.5,5.5 C 424.564,5.68701 426.564,6.18701 428.5,7C 428.167,7.33333 427.833,7.66667 427.5,8C 428.5,8.33333 429.5,8.66667 430.5,9C 430.167,9.33333 429.833,9.66667 429.5,10C 430.5,10.3333 431.5,10.6667 432.5,11C 432.167,11.3333 431.833,11.6667 431.5,12C 432.5,12.3333 433.5,12.6667 434.5,13C 434.167,13.3333 433.833,13.6667 433.5,14C 434.5,14.3333 435.5,14.6667 436.5,15C 436.167,15.3333 435.833,15.6667 435.5,16C 437.167,17 438.833,18 440.5,19C 440.167,19.3333 439.833,19.6667 439.5,20C 442.943,20.2213 443.276,21.2213 440.5,23C 443.943,23.2213 444.276,24.2213 441.5,26C 441.728,26.3988 442.062,26.5654 442.5,26.5C 442.157,28.4832 442.824,29.8166 444.5,30.5C 443.398,32.0919 444.065,32.9252 446.5,33C 445.619,33.7083 444.953,34.5416 444.5,35.5C 444.5,43.8333 444.5,52.1667 444.5,60.5C 436.521,59.497 429.188,60.8303 422.5,64.5C 419.784,64.6785 417.117,65.1785 414.5,66C 412.974,67.8871 410.974,68.8871 408.5,69C 407.29,70.0391 406.29,71.2058 405.5,72.5C 400.319,74.0736 396.319,77.0736 393.5,81.5C 389.833,83.1667 387.167,85.8333 385.5,89.5C 385.5,90.1667 385.167,90.5 384.5,90.5C 382.674,92.1475 381.34,94.1475 380.5,96.5C 378.273,97.4006 377.273,99.0672 377.5,101.5C 377.5,101.833 377.5,102.167 377.5,102.5C 376.058,103.82 375.392,105.486 375.5,107.5C 374.833,108.5 374.167,109.5 373.5,110.5C 373.5,111.5 373.5,112.5 373.5,113.5C 373.167,114.5 372.5,115.167 371.5,115.5C 370.549,116.919 370.216,118.585 370.5,120.5C 369.494,121.396 369.494,122.062 370.5,122.5C 370.5,123.167 370.5,123.833 370.5,124.5C 369.398,126.092 370.065,126.925 372.5,127C 370.959,128.371 369.625,129.871 368.5,131.5C 367.274,135.633 367.274,139.633 368.5,143.5C 371.999,143.259 372.332,144.092 369.5,146C 373.002,146.656 373.002,147.989 369.5,150C 372.943,150.221 373.276,151.221 370.5,153C 371.5,153.333 372.5,153.667 373.5,154C 372.619,154.708 371.953,155.542 371.5,156.5C 371.018,159.831 372.018,162.497 374.5,164.5C 377.625,165.1 377.958,166.267 375.5,168C 377.935,168.075 378.602,168.908 377.5,170.5C 377.328,171.492 377.662,172.158 378.5,172.5C 379.263,173.268 380.263,173.768 381.5,174C 380.944,174.383 380.611,174.883 380.5,175.5C 380.328,176.492 380.662,177.158 381.5,177.5C 383.3,178.693 384.967,179.86 386.5,181C 385.944,181.383 385.611,181.883 385.5,182.5C 385.5,183.833 386.167,184.5 387.5,184.5C 387.328,185.492 387.662,186.158 388.5,186.5C 388.842,187.338 389.508,187.672 390.5,187.5C 390.936,190.352 392.603,192.019 395.5,192.5C 396.552,192.351 397.552,192.517 398.5,193C 398.167,193.333 397.833,193.667 397.5,194C 399.642,194.438 400.975,195.272 401.5,196.5C 401.821,198.048 402.821,198.715 404.5,198.5C 404.5,199.167 404.833,199.5 405.5,199.5C 406.736,202.621 409.069,203.955 412.5,203.5C 413.791,203.263 414.791,203.596 415.5,204.5C 418.8,206.642 422.467,207.975 426.5,208.5C 428.515,209.924 430.848,210.59 433.5,210.5C 435.167,210.5 436.833,210.5 438.5,210.5C 440.265,211.461 442.265,211.795 444.5,211.5C 444.546,218.191 444.212,224.857 443.5,231.5C 443.5,231.833 443.5,232.167 443.5,232.5C 443.167,233.833 442.833,235.167 442.5,236.5C 442.5,237.167 442.167,237.5 441.5,237.5C 436.756,245.912 430.089,252.245 421.5,256.5C 416.433,257.005 411.433,257.839 406.5,259C 373.167,259.333 339.833,259.667 306.5,260C 305.594,261.699 305.261,263.533 305.5,265.5C 305.5,265.833 305.5,266.167 305.5,266.5C 305.5,282.167 305.5,297.833 305.5,313.5C 306.263,314.268 307.263,314.768 308.5,315C 307.5,316 306.5,317 305.5,318C 305.728,318.399 306.062,318.565 306.5,318.5C 306.5,319.167 306.5,319.833 306.5,320.5C 305.494,321.396 305.494,322.062 306.5,322.5C 306.5,323.167 306.5,323.833 306.5,324.5C 306.5,325.167 306.167,325.5 305.5,325.5C 304.523,328.287 304.19,331.287 304.5,334.5C 304.5,334.833 304.5,335.167 304.5,335.5C 304.167,336.833 303.833,338.167 303.5,339.5C 302.523,342.287 302.19,345.287 302.5,348.5C 302.5,348.833 302.5,349.167 302.5,349.5C 300.612,351.988 299.945,354.988 300.5,358.5C 300.5,358.833 300.5,359.167 300.5,359.5C 299.766,360.708 299.433,362.041 299.5,363.5C 299.167,364.167 298.833,364.833 298.5,365.5C 297.766,366.708 297.433,368.041 297.5,369.5C 297.5,369.833 297.5,370.167 297.5,370.5C 296.766,371.708 296.433,373.041 296.5,374.5C 296.167,375.167 295.833,375.833 295.5,376.5C 295.167,377.833 294.833,379.167 294.5,380.5C 293.833,381.5 293.167,382.5 292.5,383.5C 292.167,384.833 291.833,386.167 291.5,387.5C 290.833,388.5 290.167,389.5 289.5,390.5C 287.902,392.698 286.569,395.031 285.5,397.5C 285.167,398.167 284.833,398.833 284.5,399.5C 277.547,409.12 269.547,417.787 260.5,425.5C 255.749,428.934 250.749,432.101 245.5,435C 242.79,436.747 239.79,437.747 236.5,438C 235.619,438.708 234.953,439.542 234.5,440.5C 231.169,440.018 228.503,441.018 226.5,443.5C 225.833,443.5 225.167,443.5 224.5,443.5C 222.102,443.259 220.102,443.926 218.5,445.5C 217.432,446.434 216.099,446.768 214.5,446.5C 210.64,446.808 206.974,447.475 203.5,448.5C 189.833,448.5 176.167,448.5 162.5,448.5C 159.833,448.5 157.167,448.5 154.5,448.5C 149.518,446.261 144.184,445.261 138.5,445.5C 135.37,445.3 132.37,444.634 129.5,443.5C 121.841,439.836 113.841,437.169 105.5,435.5C 103.073,431.457 99.4059,429.791 94.5,430.5C 93.3933,428.031 91.3933,427.031 88.5,427.5C 86.326,427.25 84.6594,426.25 83.5,424.5C 80.6137,421.935 77.6137,419.435 74.5,417C 72.6547,415.872 70.6547,415.372 68.5,415.5C 66.8333,414.833 65.1667,414.167 63.5,413.5C 63.5,413.167 63.5,412.833 63.5,412.5C 62.4154,410.413 60.7488,409.08 58.5,408.5C 53.6187,406.291 49.6187,402.957 46.5,398.5C 44.1002,395.097 41.1002,392.43 37.5,390.5C 0.635086,351.069 -7.53158,306.069 13,255.5C 21.0577,235.718 29.391,216.051 38,196.5C 38.7096,195.027 39.8762,194.36 41.5,194.5C 42.791,194.263 43.791,194.596 44.5,195.5C 44.8333,196.5 45.5,197.167 46.5,197.5C 47.791,197.263 48.791,197.596 49.5,198.5C 50.842,199.793 52.5087,200.626 54.5,201C 58.1516,201.499 61.8183,201.665 65.5,201.5C 65.5,202.833 65.5,204.167 65.5,205.5C 65.1667,206.167 64.8333,206.833 64.5,207.5C 63.0582,208.82 62.3915,210.486 62.5,212.5C 62.5,213.167 62.1667,213.5 61.5,213.5C 59.5516,215.32 58.5516,217.654 58.5,220.5C 58.5,220.833 58.5,221.167 58.5,221.5C 57.5592,223.05 56.8925,224.716 56.5,226.5C 56.1667,227.167 55.8333,227.833 55.5,228.5C 54.5082,230.456 53.5082,232.456 52.5,234.5C 52.5,234.833 52.5,235.167 52.5,235.5C 51.4706,237.517 50.4706,239.517 49.5,241.5C 49.5,242.167 49.1667,242.5 48.5,242.5C 45.5649,246.598 43.5649,251.265 42.5,256.5C 41.5418,258.302 40.8751,260.302 40.5,262.5C 40.1667,263.167 39.8333,263.833 39.5,264.5C 38.7659,265.708 38.4326,267.041 38.5,268.5C 38.1667,269.167 37.8333,269.833 37.5,270.5C 36.7659,271.708 36.4326,273.041 36.5,274.5C 36.5,274.833 36.5,275.167 36.5,275.5C 35.8333,277.167 35.1667,278.833 34.5,280.5C 34.5,280.833 34.5,281.167 34.5,281.5C 34.5,282.5 34.5,283.5 34.5,284.5C 33.8333,285.5 33.1667,286.5 32.5,287.5C 31.7347,290.096 31.4013,292.763 31.5,295.5C 31.5,295.833 31.5,296.167 31.5,296.5C 31.5,297.5 31.5,298.5 31.5,299.5C 31.1667,300.167 30.8333,300.833 30.5,301.5C 29.242,305.134 29.242,308.8 30.5,312.5C 30.5,312.833 30.5,313.167 30.5,313.5C 30.5,314.5 30.5,315.5 30.5,316.5C 30.5,316.833 30.5,317.167 30.5,317.5C 30.1774,321.226 30.5108,324.893 31.5,328.5C 32.1835,328.863 32.8501,329.196 33.5,329.5C 33.5,329.833 33.5,330.167 33.5,330.5C 33.0254,333.082 33.6921,335.082 35.5,336.5C 38.999,336.259 39.3323,337.092 36.5,339C 39.9431,339.221 40.2764,340.221 37.5,342C 39.935,342.075 40.6016,342.908 39.5,344.5C 39.3284,345.492 39.6618,346.158 40.5,346.5C 40.5,347.167 40.8333,347.5 41.5,347.5C 41.1568,349.483 41.8235,350.817 43.5,351.5C 44.2625,352.268 45.2625,352.768 46.5,353C 45.2617,353.69 45.2617,354.19 46.5,354.5C 46.5271,356.199 47.1938,357.533 48.5,358.5C 49.2625,359.268 50.2625,359.768 51.5,360C 50.2617,360.69 50.2617,361.19 51.5,361.5C 53.0688,366.071 56.0688,369.405 60.5,371.5C 60.8333,372.5 61.5,373.167 62.5,373.5C 62.8333,374.167 63.1667,374.833 63.5,375.5C 63.8417,376.338 64.5084,376.672 65.5,376.5C 65.5,378.5 66.5,379.5 68.5,379.5C 69.552,379.351 70.552,379.517 71.5,380C 71.1667,380.333 70.8333,380.667 70.5,381C 72.1667,382 73.8333,383 75.5,384C 75.1667,384.333 74.8333,384.667 74.5,385C 76.5,385.667 78.5,386.333 80.5,387C 79.2617,387.69 79.2617,388.19 80.5,388.5C 80.5,389.5 80.5,390.5 80.5,391.5C 82.5,391.833 84.5,392.167 86.5,392.5C 90.3852,393.688 93.3852,395.355 95.5,397.5C 96.0478,399.532 97.3812,400.532 99.5,400.5C 100.791,400.263 101.791,400.596 102.5,401.5C 103.965,402.737 105.632,403.737 107.5,404.5C 109.786,404.595 111.786,405.262 113.5,406.5C 117.695,409.254 122.362,410.921 127.5,411.5C 129.214,412.738 131.214,413.405 133.5,413.5C 136.215,415.072 139.215,416.072 142.5,416.5C 143.918,418.308 145.918,418.975 148.5,418.5C 154.726,420.006 161.059,420.672 167.5,420.5C 177.5,421.833 187.5,421.833 197.5,420.5C 201.489,420.884 205.155,420.217 208.5,418.5C 214.27,418.02 219.603,416.353 224.5,413.5C 233.759,410.536 241.759,405.536 248.5,398.5C 256.447,391.213 262.447,382.547 266.5,372.5C 274.192,353.371 278.192,333.371 278.5,312.5C 279.833,295.833 279.833,279.167 278.5,262.5C 278.586,261.504 278.252,260.671 277.5,260C 266.172,259.5 254.838,259.333 243.5,259.5C 239.881,258.756 236.215,258.423 232.5,258.5C 229.993,257.108 227.327,256.108 224.5,255.5C 222.64,254.061 220.973,252.395 219.5,250.5C 218.871,248.003 217.204,246.67 214.5,246.5C 210.575,238.766 207.575,230.766 205.5,222.5C 205.196,158.821 205.529,95.1542 206.5,31.5C 208.834,29.8243 209.834,27.491 209.5,24.5C 210.906,24.0269 211.573,23.0269 211.5,21.5C 212.906,21.0269 213.573,20.0269 213.5,18.5C 215.262,17.7377 216.262,16.4044 216.5,14.5C 219.207,12.1568 221.874,9.82349 224.5,7.5C 229.915,4.97306 235.582,3.13973 241.5,2C 296.833,1.33333 352.167,1.33333 407.5,2C 412.782,2.11489 417.782,3.28156 422.5,5.5 Z"/></g>
<g><path style="opacity:0.037" fill="#ebebeb" d="M 224.5,7.5 C 221.874,9.82349 219.207,12.1568 216.5,14.5C 217.938,10.7264 220.605,8.39309 224.5,7.5 Z"/></g>
<g><path style="opacity:0.761" fill="#9d9d9d" d="M 216.5,14.5 C 216.262,16.4044 215.262,17.7377 213.5,18.5C 213.738,16.5956 214.738,15.2623 216.5,14.5 Z"/></g>
<g><path style="opacity:0.788" fill="#959595" d="M 213.5,18.5 C 213.573,20.0269 212.906,21.0269 211.5,21.5C 211.427,19.9731 212.094,18.9731 213.5,18.5 Z"/></g>
<g><path style="opacity:0.514" fill="#bbbbbb" d="M 211.5,21.5 C 211.573,23.0269 210.906,24.0269 209.5,24.5C 209.427,22.9731 210.094,21.9731 211.5,21.5 Z"/></g>
<g><path style="opacity:0.929" fill="#969696" d="M 209.5,24.5 C 209.834,27.491 208.834,29.8243 206.5,31.5C 206.935,28.8427 207.935,26.5093 209.5,24.5 Z"/></g>
<g><path style="opacity:0.996" fill="#616161" d="M 442.5,26.5 C 443.025,27.7282 444.358,28.5616 446.5,29C 445.956,29.7172 445.289,30.2172 444.5,30.5C 442.824,29.8166 442.157,28.4832 442.5,26.5 Z"/></g>
<g><path style="opacity:0.996" fill="#5f5f5f" d="M 444.5,35.5 C 447.999,35.259 448.332,36.0924 445.5,38C 449.002,38.6561 449.002,39.9895 445.5,42C 449.002,42.6561 449.002,43.9895 445.5,46C 449.002,46.6561 449.002,47.9895 445.5,50C 449.002,50.6561 449.002,51.9895 445.5,54C 449.002,54.6561 449.002,55.9895 445.5,58C 446.5,58.3333 447.5,58.6667 448.5,59C 447.295,60.3756 445.962,61.5423 444.5,62.5C 437.072,62.3019 429.739,62.9686 422.5,64.5C 429.188,60.8303 436.521,59.497 444.5,60.5C 444.5,52.1667 444.5,43.8333 444.5,35.5 Z"/></g>
<g><path style="opacity:0.922" fill="#e3e3e3" d="M 444.5,62.5 C 434.472,64.1056 424.472,66.1056 414.5,68.5C 416.988,66.8718 419.655,65.5384 422.5,64.5C 429.739,62.9686 437.072,62.3019 444.5,62.5 Z"/></g>
<g><path style="opacity:0.999" fill="#040404" d="M 109.5,75.5 C 109.088,77.9726 110.088,79.3059 112.5,79.5C 113.767,81.7726 115.433,83.7726 117.5,85.5C 117.5,86.1667 117.833,86.5 118.5,86.5C 118.229,88.3797 118.896,89.713 120.5,90.5C 123.625,91.1002 123.958,92.2669 121.5,94C 122.5,94.3333 123.5,94.6667 124.5,95C 123.619,95.7083 122.953,96.5416 122.5,97.5C 124.159,104.378 124.825,111.378 124.5,118.5C 123.523,121.287 123.19,124.287 123.5,127.5C 123.5,127.833 123.5,128.167 123.5,128.5C 123.167,129.833 122.833,131.167 122.5,132.5C 121.549,133.919 121.216,135.585 121.5,137.5C 121.167,138.167 120.833,138.833 120.5,139.5C 119.032,140.779 118.365,142.446 118.5,144.5C 117.542,144.953 116.708,145.619 116,146.5C 114.119,152.187 111.619,157.52 108.5,162.5C 107.167,163.167 106.167,164.167 105.5,165.5C 105.5,165.833 105.5,166.167 105.5,166.5C 101.119,170.215 97.1185,174.215 93.5,178.5C 92.5,178.833 91.8333,179.5 91.5,180.5C 84.9216,183.103 78.5883,186.103 72.5,189.5C 67.1563,189.666 61.8229,189.499 56.5,189C 55.2625,188.768 54.2625,188.268 53.5,187.5C 51.5439,186.508 49.5439,185.508 47.5,184.5C 44.2364,183.073 41.7364,180.739 40,177.5C 32.6767,165.598 29.1767,152.598 29.5,138.5C 30.2178,117.331 37.2178,98.6646 50.5,82.5C 53.5256,79.8046 56.5256,77.1379 59.5,74.5C 65.1303,71.8442 70.797,69.5109 76.5,67.5C 84.9867,66.1143 93.32,66.9476 101.5,70C 101.167,70.3333 100.833,70.6667 100.5,71C 104.606,71.7653 107.606,73.2653 109.5,75.5 Z"/></g>
<g><path style="opacity:0.471" fill="#cdcdcd" d="M 76.5,67.5 C 70.797,69.5109 65.1303,71.8442 59.5,74.5C 64.1816,70.0435 69.8483,67.7102 76.5,67.5 Z"/></g>
<g><path style="opacity:0.996" fill="#787878" d="M 422.5,64.5 C 419.655,65.5384 416.988,66.8718 414.5,68.5C 414.5,69.1667 414.167,69.5 413.5,69.5C 410.833,70.5 408.167,71.5 405.5,72.5C 406.29,71.2058 407.29,70.0391 408.5,69C 410.974,68.8871 412.974,67.8871 414.5,66C 417.117,65.1785 419.784,64.6785 422.5,64.5 Z"/></g>
<g><path style="opacity:0.17" fill="#f4f4f4" d="M 413.5,69.5 C 411.927,72.8931 409.26,74.2264 405.5,73.5C 405.5,73.1667 405.5,72.8333 405.5,72.5C 408.167,71.5 410.833,70.5 413.5,69.5 Z"/></g>
<g><path style="opacity:0.984" fill="#bdbdbd" d="M 405.5,72.5 C 405.5,72.8333 405.5,73.1667 405.5,73.5C 402.801,78.2116 398.801,80.8783 393.5,81.5C 396.319,77.0736 400.319,74.0736 405.5,72.5 Z"/></g>
<g><path style="opacity:0.28" fill="#d3d3d3" d="M 457.5,78.5 C 446.029,76.8696 434.696,77.5363 423.5,80.5C 426.282,79.067 429.282,77.9003 432.5,77C 439.833,76.3333 447.167,76.3333 454.5,77C 455.737,77.2321 456.737,77.7321 457.5,78.5 Z"/></g>
<g><path style="opacity:0.412" fill="#e1e1e1" d="M 59.5,74.5 C 56.5256,77.1379 53.5256,79.8046 50.5,82.5C 52.2329,78.4351 55.2329,75.7684 59.5,74.5 Z"/></g>
<g><path style="opacity:0.996" fill="#808080" d="M 109.5,75.5 C 110.025,76.7282 111.358,77.5616 113.5,78C 112.944,78.3826 112.611,78.8826 112.5,79.5C 110.088,79.3059 109.088,77.9726 109.5,75.5 Z"/></g>
<g><path style="opacity:0.997" fill="#0d0d0d" d="M 457.5,78.5 C 461.784,79.2613 465.784,80.5947 469.5,82.5C 470.552,84.256 472.219,84.9227 474.5,84.5C 474.5,85.1667 474.833,85.5 475.5,85.5C 476.211,87.2014 477.545,88.2014 479.5,88.5C 480.552,88.3505 481.552,88.5172 482.5,89C 482.167,89.3333 481.833,89.6667 481.5,90C 482.5,90.3333 483.5,90.6667 484.5,91C 484.167,91.3333 483.833,91.6667 483.5,92C 484.5,92.3333 485.5,92.6667 486.5,93C 486.167,93.3333 485.833,93.6667 485.5,94C 487.167,95 488.833,96 490.5,97C 490.167,97.3333 489.833,97.6667 489.5,98C 491.935,98.0748 492.602,98.9081 491.5,100.5C 491.328,101.492 491.662,102.158 492.5,102.5C 494.3,103.693 495.967,104.86 497.5,106C 496.001,106.838 495.668,107.671 496.5,108.5C 496.157,110.483 496.824,111.817 498.5,112.5C 498.5,112.833 498.5,113.167 498.5,113.5C 498.12,115.698 498.787,117.365 500.5,118.5C 500.5,118.833 500.5,119.167 500.5,119.5C 500.253,122.939 500.586,126.272 501.5,129.5C 502.209,130.404 503.209,130.737 504.5,130.5C 504.5,130.833 504.5,131.167 504.5,131.5C 500.94,133.283 500.94,134.283 504.5,134.5C 504.5,134.833 504.5,135.167 504.5,135.5C 500.94,137.283 500.94,138.283 504.5,138.5C 504.5,138.833 504.5,139.167 504.5,139.5C 500.94,141.283 500.94,142.283 504.5,142.5C 504.5,142.833 504.5,143.167 504.5,143.5C 503.167,144.167 502.167,145.167 501.5,146.5C 500.402,151.214 499.402,155.881 498.5,160.5C 498.167,161.167 497.833,161.833 497.5,162.5C 494.677,165.475 492.344,168.808 490.5,172.5C 488.81,174.519 487.144,176.519 485.5,178.5C 481.491,181.503 477.491,184.503 473.5,187.5C 466.746,190.863 459.746,193.196 452.5,194.5C 442.637,195.083 432.97,194.083 423.5,191.5C 420.167,190.167 416.833,188.833 413.5,187.5C 387.937,168.637 380.103,143.971 390,113.5C 392.926,107.974 396.093,102.641 399.5,97.5C 402.859,94.4715 406.192,91.4715 409.5,88.5C 412.841,86.4967 416.175,84.4967 419.5,82.5C 420.514,81.3263 421.847,80.6596 423.5,80.5C 434.696,77.5363 446.029,76.8696 457.5,78.5 Z M 488.5,123.5 C 491.138,134.352 490.471,145.019 486.5,155.5C 484,158.494 482,161.827 480.5,165.5C 473.341,171.248 465.674,176.248 457.5,180.5C 449.167,181.833 440.833,181.833 432.5,180.5C 429.301,179.101 425.968,178.101 422.5,177.5C 423.66,175.797 422.993,175.131 420.5,175.5C 420.611,174.883 420.944,174.383 421.5,174C 419.846,173.392 418.179,172.892 416.5,172.5C 415.833,172.5 415.5,172.167 415.5,171.5C 415.938,171.565 416.272,171.399 416.5,171C 415.5,170.667 414.5,170.333 413.5,170C 413.833,169.667 414.167,169.333 414.5,169C 413.5,168.667 412.5,168.333 411.5,168C 411.833,167.667 412.167,167.333 412.5,167C 410.523,165.409 408.523,163.909 406.5,162.5C 405.833,162.5 405.5,162.167 405.5,161.5C 406.289,161.217 406.956,160.717 407.5,160C 405.358,159.562 404.025,158.728 403.5,157.5C 402.262,157.19 402.262,156.69 403.5,156C 400.057,155.779 399.724,154.779 402.5,153C 401.263,152.768 400.263,152.268 399.5,151.5C 402.132,150.133 401.798,149.299 398.5,149C 402.002,146.989 402.002,145.656 398.5,145C 400.958,143.267 400.625,142.1 397.5,141.5C 401.06,139.717 401.06,138.717 397.5,138.5C 397.5,138.167 397.5,137.833 397.5,137.5C 401.06,135.717 401.06,134.717 397.5,134.5C 398.29,133.206 399.29,132.039 400.5,131C 399.263,130.768 398.263,130.268 397.5,129.5C 398.962,128.542 400.295,127.376 401.5,126C 400.552,125.517 399.552,125.351 398.5,125.5C 398.833,124.833 399.167,124.167 399.5,123.5C 400.962,122.542 402.295,121.376 403.5,120C 402.552,119.517 401.552,119.351 400.5,119.5C 400.5,119.167 400.5,118.833 400.5,118.5C 401.833,117.833 402.833,116.833 403.5,115.5C 406.964,112.538 410.297,109.371 413.5,106C 412.552,105.517 411.552,105.351 410.5,105.5C 410.5,104.833 410.833,104.5 411.5,104.5C 412.873,104.657 414.207,104.49 415.5,104C 424.923,94.1545 436.59,90.1545 450.5,92C 462.28,94.1382 472.114,99.6382 480,108.5C 483.381,113.27 486.214,118.27 488.5,123.5 Z"/></g>
<g><path style="opacity:0.996" fill="#8f8f8f" d="M 112.5,79.5 C 113.552,79.3505 114.552,79.5172 115.5,80C 115.167,80.3333 114.833,80.6667 114.5,81C 116.167,82 117.833,83 119.5,84C 118.956,84.7172 118.289,85.2172 117.5,85.5C 115.433,83.7726 113.767,81.7726 112.5,79.5 Z"/></g>
<g><path style="opacity:0.996" fill="#797979" d="M 469.5,82.5 C 472.128,82.5364 473.795,83.2031 474.5,84.5C 472.219,84.9227 470.552,84.256 469.5,82.5 Z"/></g>
<g><path style="opacity:0.204" fill="#d8d8d8" d="M 419.5,82.5 C 416.175,84.4967 412.841,86.4967 409.5,88.5C 411.873,84.9769 415.207,82.9769 419.5,82.5 Z"/></g>
<g><path style="opacity:0.996" fill="#818181" d="M 393.5,81.5 C 391.706,83.7966 389.706,85.9633 387.5,88C 388.5,88.3333 389.5,88.6667 390.5,89C 388.866,89.4935 387.199,89.6602 385.5,89.5C 387.167,85.8333 389.833,83.1667 393.5,81.5 Z"/></g>
<g><path style="opacity:0.294" fill="#b9b9b9" d="M 475.5,85.5 C 477.179,85.8923 478.846,86.3923 480.5,87C 479.944,87.3826 479.611,87.8826 479.5,88.5C 477.545,88.2014 476.211,87.2014 475.5,85.5 Z"/></g>
<g><path style="opacity:0.996" fill="#909090" d="M 118.5,86.5 C 119.025,87.7282 120.358,88.5616 122.5,89C 121.956,89.7172 121.289,90.2172 120.5,90.5C 118.896,89.713 118.229,88.3797 118.5,86.5 Z"/></g>
<g><path style="opacity:0.988" fill="#757575" d="M 456.5,91.5 C 445.662,89.7845 434.996,90.4512 424.5,93.5C 424.611,92.8826 424.944,92.3826 425.5,92C 435.03,89.6398 444.697,88.9731 454.5,90C 455.416,90.2784 456.082,90.7784 456.5,91.5 Z"/></g>
<g><path style="opacity:0.29" fill="#dedede" d="M 409.5,88.5 C 406.192,91.4715 402.859,94.4715 399.5,97.5C 401.562,93.1053 404.896,90.1053 409.5,88.5 Z"/></g>
<g><path style="opacity:0.996" fill="#525252" d="M 456.5,91.5 C 460.866,90.7491 464.199,92.0824 466.5,95.5C 463.011,94.342 459.678,93.0086 456.5,91.5 Z"/></g>
<g><path style="opacity:0.996" fill="#6b6b6b" d="M 384.5,90.5 C 384.5,90.8333 384.5,91.1667 384.5,91.5C 383.876,93.754 382.543,95.4206 380.5,96.5C 381.34,94.1475 382.674,92.1475 384.5,90.5 Z"/></g>
<g><path style="opacity:0.584" fill="#e9e9e9" d="M 384.5,91.5 C 385.552,91.3505 386.552,91.5172 387.5,92C 385.297,94.3722 382.963,96.5389 380.5,98.5C 380.5,97.8333 380.5,97.1667 380.5,96.5C 382.543,95.4206 383.876,93.754 384.5,91.5 Z"/></g>
<g><path style="opacity:0.996" fill="#666666" d="M 380.5,96.5 C 380.5,97.1667 380.5,97.8333 380.5,98.5C 379.833,99.8333 378.833,100.833 377.5,101.5C 377.273,99.0672 378.273,97.4006 380.5,96.5 Z"/></g>
<g><path style="opacity:0.992" fill="#8c8c8c" d="M 491.5,100.5 C 494.853,100.345 495.186,101.012 492.5,102.5C 491.662,102.158 491.328,101.492 491.5,100.5 Z"/></g>
<g><path style="opacity:0.113" fill="#e2e2e2" d="M 456.5,91.5 C 459.678,93.0086 463.011,94.342 466.5,95.5C 476.659,101.327 483.993,109.66 488.5,120.5C 488.5,121.5 488.5,122.5 488.5,123.5C 486.214,118.27 483.381,113.27 480,108.5C 472.114,99.6382 462.28,94.1382 450.5,92C 436.59,90.1545 424.923,94.1545 415.5,104C 414.207,104.49 412.873,104.657 411.5,104.5C 412.167,103.5 412.833,102.5 413.5,101.5C 414.475,99.8073 415.808,98.3073 417.5,97C 420.442,96.8561 422.776,95.6894 424.5,93.5C 434.996,90.4512 445.662,89.7845 456.5,91.5 Z"/></g>
<g><path style="opacity:0.776" fill="#d1d1d1" d="M 377.5,102.5 C 378.552,102.351 379.552,102.517 380.5,103C 378.963,104.707 377.296,106.207 375.5,107.5C 375.392,105.486 376.058,103.82 377.5,102.5 Z"/></g>
<g><path style="opacity:0.996" fill="#707070" d="M 413.5,101.5 C 412.833,102.5 412.167,103.5 411.5,104.5C 410.833,104.5 410.5,104.833 410.5,105.5C 408.527,108.139 406.194,110.473 403.5,112.5C 405.087,109.732 406.92,107.065 409,104.5C 410.129,102.859 411.629,101.859 413.5,101.5 Z"/></g>
<g><path style="opacity:0.164" fill="#ececec" d="M 410.5,105.5 C 411.552,105.351 412.552,105.517 413.5,106C 410.297,109.371 406.964,112.538 403.5,115.5C 403.5,114.5 403.5,113.5 403.5,112.5C 406.194,110.473 408.527,108.139 410.5,105.5 Z"/></g>
<g><path style="opacity:0.996" fill="#747474" d="M 122.5,97.5 C 125.999,97.259 126.332,98.0924 123.5,100C 126.943,100.221 127.276,101.221 124.5,103C 127.943,103.221 128.276,104.221 125.5,106C 129.002,106.656 129.002,107.989 125.5,110C 129.002,110.656 129.002,111.989 125.5,114C 126.5,114.333 127.5,114.667 128.5,115C 127.295,116.376 125.962,117.542 124.5,118.5C 124.825,111.378 124.159,104.378 122.5,97.5 Z"/></g>
<g><path style="opacity:0.557" fill="#e2e2e2" d="M 373.5,110.5 C 377.06,110.717 377.06,111.717 373.5,113.5C 373.5,112.5 373.5,111.5 373.5,110.5 Z"/></g>
<g><path style="opacity:1" fill="#727272" d="M 496.5,108.5 C 497.025,109.728 498.358,110.562 500.5,111C 499.956,111.717 499.289,112.217 498.5,112.5C 496.824,111.817 496.157,110.483 496.5,108.5 Z"/></g>
<g><path style="opacity:0.216" fill="#dfdfdf" d="M 50.5,82.5 C 37.2178,98.6646 30.2178,117.331 29.5,138.5C 29.1767,152.598 32.6767,165.598 40,177.5C 41.7364,180.739 44.2364,183.073 47.5,184.5C 48.1667,185.5 48.8333,186.5 49.5,187.5C 42.1224,183.951 36.9557,178.285 34,170.5C 23.891,139.593 28.2244,110.926 47,84.5C 47.8159,83.1772 48.9826,82.5106 50.5,82.5 Z"/></g>
<g><path style="opacity:0.188" fill="#e9e9e9" d="M 473.5,113.5 C 468.83,114.337 464.497,116.003 460.5,118.5C 462.578,115.949 465.244,114.116 468.5,113C 471.021,112.2 472.688,112.367 473.5,113.5 Z"/></g>
<g><path style="opacity:0.996" fill="#111111" d="M 473.5,113.5 C 474.263,114.268 475.263,114.768 476.5,115C 475.619,115.708 474.953,116.542 474.5,117.5C 474.167,118.167 473.833,118.833 473.5,119.5C 468.601,122.456 464.268,126.123 460.5,130.5C 457.065,131.192 455.065,133.192 454.5,136.5C 454.5,136.833 454.5,137.167 454.5,137.5C 453.559,139.05 452.893,140.716 452.5,142.5C 451.833,143.5 451.167,144.5 450.5,145.5C 439.337,148.336 433.671,144.003 433.5,132.5C 435.5,129.833 437.833,127.5 440.5,125.5C 448.66,127.073 455.326,124.739 460.5,118.5C 464.497,116.003 468.83,114.337 473.5,113.5 Z"/></g>
<g><path style="opacity:0.996" fill="#646464" d="M 403.5,112.5 C 403.5,113.5 403.5,114.5 403.5,115.5C 402.833,116.833 401.833,117.833 400.5,118.5C 400.654,116.03 401.654,114.03 403.5,112.5 Z"/></g>
<g><path style="opacity:0.996" fill="#686868" d="M 498.5,113.5 C 501.999,113.259 502.332,114.092 499.5,116C 502.798,116.299 503.132,117.133 500.5,118.5C 498.787,117.365 498.12,115.698 498.5,113.5 Z"/></g>
<g><path style="opacity:0.996" fill="#838383" d="M 371.5,115.5 C 374.962,116.947 374.628,118.614 370.5,120.5C 370.216,118.585 370.549,116.919 371.5,115.5 Z"/></g>
<g><path style="opacity:0.998" fill="#5d5d5d" d="M 124.5,118.5 C 125.263,119.268 126.263,119.768 127.5,120C 126.29,121.039 125.29,122.206 124.5,123.5C 124.5,124.5 124.5,125.5 124.5,126.5C 124.5,127.167 124.167,127.5 123.5,127.5C 123.19,124.287 123.523,121.287 124.5,118.5 Z"/></g>
<g><path style="opacity:0.041" fill="#dfdfdf" d="M 460.5,118.5 C 455.326,124.739 448.66,127.073 440.5,125.5C 443.641,124.679 446.975,124.179 450.5,124C 453.504,121.504 456.838,119.671 460.5,118.5 Z"/></g>
<g><path style="opacity:0.988" fill="#b7b7b7" d="M 400.5,119.5 C 401.552,119.351 402.552,119.517 403.5,120C 402.295,121.376 400.962,122.542 399.5,123.5C 399.833,122.167 400.167,120.833 400.5,119.5 Z"/></g>
<g><path style="opacity:0.957" fill="#c1c1c1" d="M 370.5,122.5 C 372.933,122.786 372.933,123.452 370.5,124.5C 370.5,123.833 370.5,123.167 370.5,122.5 Z"/></g>
<g><path style="opacity:0.396" fill="#dedede" d="M 124.5,123.5 C 128.06,123.717 128.06,124.717 124.5,126.5C 124.5,125.5 124.5,124.5 124.5,123.5 Z"/></g>
<g><path style="opacity:0.988" fill="#7a7a7a" d="M 473.5,119.5 C 469.732,123.877 465.399,127.544 460.5,130.5C 464.268,126.123 468.601,122.456 473.5,119.5 Z"/></g>
<g><path style="opacity:0.541" fill="#e5e5e5" d="M 474.5,117.5 C 475.552,117.351 476.552,117.517 477.5,118C 472.833,122.667 468.167,127.333 463.5,132C 462.207,132.49 460.873,132.657 459.5,132.5C 459.833,131.833 460.167,131.167 460.5,130.5C 465.399,127.544 469.732,123.877 473.5,119.5C 473.833,118.833 474.167,118.167 474.5,117.5 Z"/></g>
<g><path style="opacity:0.443" fill="#e9e9e9" d="M 440.5,125.5 C 437.833,127.5 435.5,129.833 433.5,132.5C 434.167,128.5 436.5,126.167 440.5,125.5 Z"/></g>
<g><path style="opacity:0.996" fill="#4c4c4c" d="M 500.5,119.5 C 503.999,119.259 504.332,120.092 501.5,122C 502.448,122.483 503.448,122.649 504.5,122.5C 504.5,122.833 504.5,123.167 504.5,123.5C 500.94,125.283 500.94,126.283 504.5,126.5C 504.5,126.833 504.5,127.167 504.5,127.5C 503.5,128.167 502.5,128.833 501.5,129.5C 500.586,126.272 500.253,122.939 500.5,119.5 Z"/></g>
<g><path style="opacity:0.996" fill="#8e8e8e" d="M 398.5,125.5 C 399.552,125.351 400.552,125.517 401.5,126C 400.295,127.376 398.962,128.542 397.5,129.5C 397.833,128.167 398.167,126.833 398.5,125.5 Z"/></g>
<g><path style="opacity:0.996" fill="#999999" d="M 123.5,128.5 C 124.552,128.351 125.552,128.517 126.5,129C 125.295,130.376 123.962,131.542 122.5,132.5C 122.833,131.167 123.167,129.833 123.5,128.5 Z"/></g>
<g><path style="opacity:1" fill="#656565" d="M 460.5,130.5 C 460.167,131.167 459.833,131.833 459.5,132.5C 457.833,133.833 456.167,135.167 454.5,136.5C 455.065,133.192 457.065,131.192 460.5,130.5 Z"/></g>
<g><path style="opacity:0.998" fill="#4f4f4f" d="M 368.5,131.5 C 371.97,131.71 371.97,132.877 368.5,135C 372.002,135.656 372.002,136.989 368.5,139C 369.5,139.333 370.5,139.667 371.5,140C 370.29,141.039 369.29,142.206 368.5,143.5C 367.274,139.633 367.274,135.633 368.5,131.5 Z"/></g>
<g><path style="opacity:0.686" fill="#a4a4a4" d="M 488.5,120.5 C 491.915,129.192 492.415,138.192 490,147.5C 489.678,150.666 488.511,153.333 486.5,155.5C 490.471,145.019 491.138,134.352 488.5,123.5C 488.5,122.5 488.5,121.5 488.5,120.5 Z"/></g>
<g><path style="opacity:0.996" fill="#9f9f9f" d="M 122.5,132.5 C 125.962,133.947 125.628,135.614 121.5,137.5C 121.216,135.585 121.549,133.919 122.5,132.5 Z"/></g>
<g><path style="opacity:0.992" fill="#999999" d="M 397.5,134.5 C 401.06,134.717 401.06,135.717 397.5,137.5C 397.5,136.5 397.5,135.5 397.5,134.5 Z"/></g>
<g><path style="opacity:0.988" fill="#909090" d="M 397.5,138.5 C 401.06,138.717 401.06,139.717 397.5,141.5C 397.5,140.5 397.5,139.5 397.5,138.5 Z"/></g>
<g><path style="opacity:0.996" fill="#898989" d="M 454.5,137.5 C 455.552,137.351 456.552,137.517 457.5,138C 455.963,139.707 454.296,141.207 452.5,142.5C 452.893,140.716 453.559,139.05 454.5,137.5 Z"/></g>
<g><path style="opacity:1" fill="#a2a2a2" d="M 120.5,139.5 C 121.552,139.351 122.552,139.517 123.5,140C 121.963,141.707 120.296,143.207 118.5,144.5C 118.365,142.446 119.032,140.779 120.5,139.5 Z"/></g>
<g><path style="opacity:0.19" fill="#efefef" d="M 433.5,132.5 C 433.671,144.003 439.337,148.336 450.5,145.5C 451.552,145.351 452.552,145.517 453.5,146C 447.841,149.141 442.174,149.141 436.5,146C 432.696,141.979 431.696,137.479 433.5,132.5 Z"/></g>
<g><path style="opacity:0.996" fill="#bcbcbc" d="M 118.5,145.5 C 119.552,145.351 120.552,145.517 121.5,146C 119.963,147.707 118.296,149.207 116.5,150.5C 116.392,148.486 117.058,146.82 118.5,145.5 Z"/></g>
<g><path style="opacity:0.996" fill="#414141" d="M 397.5,129.5 C 398.263,130.268 399.263,130.768 400.5,131C 399.29,132.039 398.29,133.206 397.5,134.5C 397.5,135.5 397.5,136.5 397.5,137.5C 397.5,137.833 397.5,138.167 397.5,138.5C 397.5,139.5 397.5,140.5 397.5,141.5C 400.625,142.1 400.958,143.267 398.5,145C 402.002,145.656 402.002,146.989 398.5,149C 401.798,149.299 402.132,150.133 399.5,151.5C 398.883,151.389 398.383,151.056 398,150.5C 396.418,143.372 396.251,136.372 397.5,129.5 Z"/></g>
<g><path style="opacity:1" fill="#939393" d="M 501.5,146.5 C 502.5,146.5 503.5,146.5 504.5,146.5C 504.5,146.833 504.5,147.167 504.5,147.5C 500.94,149.283 500.94,150.283 504.5,150.5C 504.5,150.833 504.5,151.167 504.5,151.5C 503.038,152.458 501.705,153.624 500.5,155C 501.5,155.333 502.5,155.667 503.5,156C 501.963,157.707 500.296,159.207 498.5,160.5C 499.402,155.881 500.402,151.214 501.5,146.5 Z"/></g>
<g><path style="opacity:0.329" fill="#f3f3f3" d="M 114.5,153.5 C 115.552,153.351 116.552,153.517 117.5,154C 115.963,155.707 114.296,157.207 112.5,158.5C 113.167,156.833 113.833,155.167 114.5,153.5 Z"/></g>
<g><path style="opacity:0.996" fill="#717171" d="M 118.5,144.5 C 118.5,144.833 118.5,145.167 118.5,145.5C 117.058,146.82 116.392,148.486 116.5,150.5C 115.833,151.5 115.167,152.5 114.5,153.5C 113.833,155.167 113.167,156.833 112.5,158.5C 111.5,160.167 110.167,161.5 108.5,162.5C 111.619,157.52 114.119,152.187 116,146.5C 116.708,145.619 117.542,144.953 118.5,144.5 Z"/></g>
<g><path style="opacity:0.998" fill="#505050" d="M 371.5,156.5 C 374.999,156.259 375.332,157.092 372.5,159C 375.943,159.221 376.276,160.221 373.5,162C 376.798,162.299 377.132,163.133 374.5,164.5C 372.018,162.497 371.018,159.831 371.5,156.5 Z"/></g>
<g><path style="opacity:0.171" fill="#cacaca" d="M 403.5,157.5 C 404.025,158.728 405.358,159.562 407.5,160C 406.956,160.717 406.289,161.217 405.5,161.5C 404.194,160.533 403.527,159.199 403.5,157.5 Z"/></g>
<g><path style="opacity:0.541" fill="#c4c4c4" d="M 486.5,155.5 C 485.521,159.461 483.521,162.794 480.5,165.5C 482,161.827 484,158.494 486.5,155.5 Z"/></g>
<g><path style="opacity:0.996" fill="#aaaaaa" d="M 108.5,162.5 C 109.263,163.268 110.263,163.768 111.5,164C 109.75,165.319 107.75,165.819 105.5,165.5C 106.167,164.167 107.167,163.167 108.5,162.5 Z"/></g>
<g><path style="opacity:0.42" fill="#e4e4e4" d="M 399.5,97.5 C 396.093,102.641 392.926,107.974 390,113.5C 380.103,143.971 387.937,168.637 413.5,187.5C 412.448,187.649 411.448,187.483 410.5,187C 383.323,165.15 377.157,138.316 392,106.5C 393.667,103.833 395.333,101.167 397,98.5C 397.671,97.7476 398.504,97.4142 399.5,97.5 Z"/></g>
<g><path style="opacity:0.996" fill="#909090" d="M 406.5,162.5 C 408.523,163.909 410.523,165.409 412.5,167C 412.167,167.333 411.833,167.667 411.5,168C 412.5,168.333 413.5,168.667 414.5,169C 414.167,169.333 413.833,169.667 413.5,170C 414.5,170.333 415.5,170.667 416.5,171C 416.272,171.399 415.938,171.565 415.5,171.5C 410.833,170.167 407.833,167.167 406.5,162.5 Z"/></g>
<g><path style="opacity:1" fill="#a9a9a9" d="M 497.5,162.5 C 498.552,162.351 499.552,162.517 500.5,163C 498.167,165.333 495.833,167.667 493.5,170C 494.5,170.333 495.5,170.667 496.5,171C 494.75,172.319 492.75,172.819 490.5,172.5C 492.344,168.808 494.677,165.475 497.5,162.5 Z"/></g>
<g><path style="opacity:0.996" fill="#7a7a7a" d="M 377.5,170.5 C 380.853,170.345 381.186,171.012 378.5,172.5C 377.662,172.158 377.328,171.492 377.5,170.5 Z"/></g>
<g><path style="opacity:0.499" fill="#d6d6d6" d="M 206.5,31.5 C 205.529,95.1542 205.196,158.821 205.5,222.5C 205.5,223.5 205.5,224.5 205.5,225.5C 204.335,163.001 204.168,100.335 205,37.5C 205.191,35.2922 205.691,33.2922 206.5,31.5 Z"/></g>
<g><path style="opacity:0.029" fill="#eeeeee" d="M 416.5,172.5 C 418.179,172.892 419.846,173.392 421.5,174C 420.944,174.383 420.611,174.883 420.5,175.5C 418.77,174.974 417.436,173.974 416.5,172.5 Z"/></g>
<g><path style="opacity:0.996" fill="#787878" d="M 490.5,172.5 C 490.5,172.833 490.5,173.167 490.5,173.5C 489.833,176.167 488.167,177.833 485.5,178.5C 487.144,176.519 488.81,174.519 490.5,172.5 Z"/></g>
<g><path style="opacity:0.996" fill="#8e8e8e" d="M 105.5,166.5 C 105.833,166.5 106.167,166.5 106.5,166.5C 102.793,171.208 98.4601,175.208 93.5,178.5C 97.1185,174.215 101.119,170.215 105.5,166.5 Z"/></g>
<g><path style="opacity:0.4" fill="#cacaca" d="M 480.5,165.5 C 479.772,167.735 478.439,169.568 476.5,171C 472.5,173.667 468.5,176.333 464.5,179C 462.26,179.977 459.927,180.477 457.5,180.5C 465.674,176.248 473.341,171.248 480.5,165.5 Z"/></g>
<g><path style="opacity:0.4" fill="#f0f0f0" d="M 106.5,166.5 C 107.239,166.369 107.906,166.536 108.5,167C 103.167,172.333 97.8333,177.667 92.5,183C 90.8659,183.494 89.1992,183.66 87.5,183.5C 89.0764,182.857 90.4097,181.857 91.5,180.5C 91.8333,179.5 92.5,178.833 93.5,178.5C 98.4601,175.208 102.793,171.208 106.5,166.5 Z"/></g>
<g><path style="opacity:0.996" fill="#808080" d="M 380.5,175.5 C 383.853,175.345 384.186,176.012 381.5,177.5C 380.662,177.158 380.328,176.492 380.5,175.5 Z"/></g>
<g><path style="opacity:0.996" fill="#515151" d="M 422.5,177.5 C 425.968,178.101 429.301,179.101 432.5,180.5C 432.5,180.833 432.5,181.167 432.5,181.5C 429.668,180.9 426.835,180.233 424,179.5C 422.97,179.164 422.47,178.497 422.5,177.5 Z"/></g>
<g><path style="opacity:0.667" fill="#ededed" d="M 490.5,173.5 C 491.552,173.351 492.552,173.517 493.5,174C 489.5,178 485.5,182 481.5,186C 480.207,186.49 478.873,186.657 477.5,186.5C 480.473,184.194 483.14,181.527 485.5,178.5C 488.167,177.833 489.833,176.167 490.5,173.5 Z"/></g>
<g><path style="opacity:0.21" fill="#ededed" d="M 432.5,181.5 C 432.5,181.167 432.5,180.833 432.5,180.5C 440.833,181.833 449.167,181.833 457.5,180.5C 457.082,181.222 456.416,181.722 455.5,182C 447.798,182.731 440.131,182.564 432.5,181.5 Z"/></g>
<g><path style="opacity:0.988" fill="#7f7f7f" d="M 485.5,178.5 C 483.14,181.527 480.473,184.194 477.5,186.5C 476.833,186.833 476.167,187.167 475.5,187.5C 474.833,187.5 474.167,187.5 473.5,187.5C 477.491,184.503 481.491,181.503 485.5,178.5 Z"/></g>
<g><path style="opacity:0.992" fill="#7b7b7b" d="M 385.5,182.5 C 387.993,182.131 388.66,182.797 387.5,184.5C 386.167,184.5 385.5,183.833 385.5,182.5 Z"/></g>
<g><path style="opacity:0.996" fill="#5a5a5a" d="M 47.5,184.5 C 49.5439,185.508 51.5439,186.508 53.5,187.5C 52.1667,187.5 50.8333,187.5 49.5,187.5C 48.8333,186.5 48.1667,185.5 47.5,184.5 Z"/></g>
<g><path style="opacity:0.992" fill="#7f7f7f" d="M 387.5,184.5 C 390.853,184.345 391.186,185.012 388.5,186.5C 387.662,186.158 387.328,185.492 387.5,184.5 Z"/></g>
<g><path style="opacity:0.973" fill="#9d9d9d" d="M 91.5,180.5 C 90.4097,181.857 89.0764,182.857 87.5,183.5C 85.4338,186.729 82.4338,188.396 78.5,188.5C 76.5648,189.15 74.5648,189.483 72.5,189.5C 78.5883,186.103 84.9216,183.103 91.5,180.5 Z"/></g>
<g><path style="opacity:0.851" fill="#cccccc" d="M 473.5,187.5 C 474.167,187.5 474.833,187.5 475.5,187.5C 473.887,190.74 471.22,192.24 467.5,192C 466.833,192.667 466.167,193.333 465.5,194C 455.11,196.519 444.776,197.019 434.5,195.5C 440.69,195.823 446.69,195.49 452.5,194.5C 459.746,193.196 466.746,190.863 473.5,187.5 Z"/></g>
<g><path style="opacity:0.567" fill="#d5d5d5" d="M 49.5,187.5 C 50.8333,187.5 52.1667,187.5 53.5,187.5C 54.2625,188.268 55.2625,188.768 56.5,189C 61.8229,189.499 67.1563,189.666 72.5,189.5C 74.5648,189.483 76.5648,189.15 78.5,188.5C 78.3893,189.117 78.056,189.617 77.5,190C 67.6864,192.672 58.3531,191.838 49.5,187.5 Z"/></g>
<g><path style="opacity:0.996" fill="#717171" d="M 390.5,187.5 C 391.766,188.09 393.099,188.59 394.5,189C 394.167,189.333 393.833,189.667 393.5,190C 395.935,190.075 396.602,190.908 395.5,192.5C 392.603,192.019 390.936,190.352 390.5,187.5 Z"/></g>
<g><path style="opacity:0.09" fill="#f2f2f2" d="M 413.5,187.5 C 416.833,188.833 420.167,190.167 423.5,191.5C 426.765,193.032 430.098,194.365 433.5,195.5C 425.896,195.026 419.229,192.36 413.5,187.5 Z"/></g>
<g><path style="opacity:0.992" fill="#848484" d="M 423.5,191.5 C 432.97,194.083 442.637,195.083 452.5,194.5C 446.69,195.49 440.69,195.823 434.5,195.5C 434.167,195.5 433.833,195.5 433.5,195.5C 430.098,194.365 426.765,193.032 423.5,191.5 Z"/></g>
<g><path style="opacity:0.12" fill="#dbdbdb" d="M 44.5,195.5 C 46.9935,195.131 47.6602,195.797 46.5,197.5C 45.5,197.167 44.8333,196.5 44.5,195.5 Z"/></g>
<g><path style="opacity:0.086" fill="#c7c7c7" d="M 401.5,196.5 C 403.445,196.864 404.445,197.531 404.5,198.5C 402.821,198.715 401.821,198.048 401.5,196.5 Z"/></g>
<g><path style="opacity:0.749" fill="#aaaaaa" d="M 49.5,198.5 C 56.1306,199.816 62.7973,200.982 69.5,202C 68.2949,203.376 66.9616,204.542 65.5,205.5C 65.5,204.167 65.5,202.833 65.5,201.5C 61.8183,201.665 58.1516,201.499 54.5,201C 52.5087,200.626 50.842,199.793 49.5,198.5 Z"/></g>
<g><path style="opacity:0.996" fill="#707070" d="M 405.5,199.5 C 407.179,199.892 408.846,200.392 410.5,201C 410.167,201.333 409.833,201.667 409.5,202C 410.737,202.232 411.737,202.732 412.5,203.5C 409.069,203.955 406.736,202.621 405.5,199.5 Z"/></g>
<g><path style="opacity:0.529" fill="#cecece" d="M 415.5,204.5 C 419.784,205.261 423.784,206.595 427.5,208.5C 427.167,208.5 426.833,208.5 426.5,208.5C 422.467,207.975 418.8,206.642 415.5,204.5 Z"/></g>
<g><path style="opacity:0.945" fill="#6d6d6d" d="M 426.5,208.5 C 426.833,208.5 427.167,208.5 427.5,208.5C 429.786,208.595 431.786,209.262 433.5,210.5C 430.848,210.59 428.515,209.924 426.5,208.5 Z"/></g>
<g><path style="opacity:1" fill="#aeaeae" d="M 64.5,207.5 C 65.552,207.351 66.552,207.517 67.5,208C 65.9625,209.707 64.2959,211.207 62.5,212.5C 62.3915,210.486 63.0582,208.82 64.5,207.5 Z"/></g>
<g><path style="opacity:0.408" fill="#dbdbdb" d="M 445.5,210.5 C 448.853,210.345 449.186,211.012 446.5,212.5C 446.167,211.833 445.833,211.167 445.5,210.5 Z"/></g>
<g><path style="opacity:0.996" fill="#525252" d="M 438.5,210.5 C 440.833,210.5 443.167,210.5 445.5,210.5C 445.833,211.167 446.167,211.833 446.5,212.5C 445.398,214.092 446.065,214.925 448.5,215C 444.998,217.011 444.998,218.344 448.5,219C 444.998,221.011 444.998,222.344 448.5,223C 447.167,224.333 445.833,225.667 444.5,227C 445.5,227.333 446.5,227.667 447.5,228C 446.295,229.376 444.962,230.542 443.5,231.5C 444.212,224.857 444.546,218.191 444.5,211.5C 442.265,211.795 440.265,211.461 438.5,210.5 Z"/></g>
<g><path style="opacity:1" fill="#565656" d="M 61.5,213.5 C 61.5,213.833 61.5,214.167 61.5,214.5C 60.7659,215.708 60.4326,217.041 60.5,218.5C 60.1667,219.5 59.5,220.167 58.5,220.5C 58.5516,217.654 59.5516,215.32 61.5,213.5 Z"/></g>
<g><path style="opacity:0.878" fill="#dbdbdb" d="M 61.5,214.5 C 62.552,214.351 63.552,214.517 64.5,215C 63.2949,216.376 61.9616,217.542 60.5,218.5C 60.4326,217.041 60.7659,215.708 61.5,214.5 Z"/></g>
<g><path style="opacity:0.996" fill="#bbbbbb" d="M 58.5,221.5 C 59.552,221.351 60.552,221.517 61.5,222C 59.9625,223.707 58.2959,225.207 56.5,226.5C 56.8925,224.716 57.5592,223.05 58.5,221.5 Z"/></g>
<g><path style="opacity:0.898" fill="#c0c0c0" d="M 55.5,228.5 C 56.552,228.351 57.552,228.517 58.5,229C 56.6298,231.04 54.6298,232.873 52.5,234.5C 53.5082,232.456 54.5082,230.456 55.5,228.5 Z"/></g>
<g><path style="opacity:0.992" fill="#b4b4b4" d="M 443.5,232.5 C 444.552,232.351 445.552,232.517 446.5,233C 445.295,234.376 443.962,235.542 442.5,236.5C 442.833,235.167 443.167,233.833 443.5,232.5 Z"/></g>
<g><path style="opacity:0.992" fill="#919191" d="M 205.5,222.5 C 207.575,230.766 210.575,238.766 214.5,246.5C 209.382,240.499 206.382,233.499 205.5,225.5C 205.5,224.5 205.5,223.5 205.5,222.5 Z"/></g>
<g><path style="opacity:0.992" fill="#c7c7c7" d="M 52.5,235.5 C 53.552,235.351 54.552,235.517 55.5,236C 53.6298,238.04 51.6298,239.873 49.5,241.5C 50.4706,239.517 51.4706,237.517 52.5,235.5 Z"/></g>
<g><path style="opacity:0.875" fill="#e6e6e6" d="M 441.5,238.5 C 442.552,238.351 443.552,238.517 444.5,239C 443.295,240.376 441.962,241.542 440.5,242.5C 440.433,241.041 440.766,239.708 441.5,238.5 Z"/></g>
<g><path style="opacity:0.996" fill="#7f7f7f" d="M 441.5,237.5 C 441.5,237.833 441.5,238.167 441.5,238.5C 440.766,239.708 440.433,241.041 440.5,242.5C 437.167,246.5 433.5,250.167 429.5,253.5C 427.219,255.428 424.553,256.428 421.5,256.5C 430.089,252.245 436.756,245.912 441.5,237.5 Z"/></g>
<g><path style="opacity:0.996" fill="#cccccc" d="M 48.5,243.5 C 49.552,243.351 50.552,243.517 51.5,244C 50.2949,245.376 48.9616,246.542 47.5,247.5C 47.4326,246.041 47.7659,244.708 48.5,243.5 Z"/></g>
<g><path style="opacity:0.996" fill="#676767" d="M 214.5,246.5 C 217.204,246.67 218.871,248.003 219.5,250.5C 218.5,249.833 217.5,249.167 216.5,248.5C 215.5,248.167 214.833,247.5 214.5,246.5 Z"/></g>
<g><path style="opacity:0.996" fill="#5b5b5b" d="M 48.5,242.5 C 48.5,242.833 48.5,243.167 48.5,243.5C 47.7659,244.708 47.4326,246.041 47.5,247.5C 46.8333,248.5 46.1667,249.5 45.5,250.5C 45.1667,251.833 44.8333,253.167 44.5,254.5C 44.1667,255.5 43.5,256.167 42.5,256.5C 43.5649,251.265 45.5649,246.598 48.5,242.5 Z"/></g>
<g><path style="opacity:0.98" fill="#d3d3d3" d="M 45.5,250.5 C 46.552,250.351 47.552,250.517 48.5,251C 47.2949,252.376 45.9616,253.542 44.5,254.5C 44.8333,253.167 45.1667,251.833 45.5,250.5 Z"/></g>
<g><path style="opacity:0.081" fill="#f7f7f7" d="M 216.5,248.5 C 217.5,249.167 218.5,249.833 219.5,250.5C 220.973,252.395 222.64,254.061 224.5,255.5C 220.605,254.607 217.938,252.274 216.5,248.5 Z"/></g>
<g><path style="opacity:0.792" fill="#e3e3e3" d="M 429.5,253.5 C 427.69,257.311 424.69,258.977 420.5,258.5C 420.833,257.833 421.167,257.167 421.5,256.5C 424.553,256.428 427.219,255.428 429.5,253.5 Z"/></g>
<g><path style="opacity:0.996" fill="#959595" d="M 42.5,256.5 C 43.2625,257.268 44.2625,257.768 45.5,258C 43.9625,259.707 42.2959,261.207 40.5,262.5C 40.8751,260.302 41.5418,258.302 42.5,256.5 Z"/></g>
<g><path style="opacity:0.996" fill="#2e2e2e" d="M 243.5,259.5 C 254.838,259.333 266.172,259.5 277.5,260C 278.252,260.671 278.586,261.504 278.5,262.5C 277.833,262.167 277.167,261.833 276.5,261.5C 265.5,260.833 254.5,260.167 243.5,259.5 Z"/></g>
<g><path style="opacity:0.998" fill="#2f2f2f" d="M 421.5,256.5 C 421.167,257.167 420.833,257.833 420.5,258.5C 419.5,258.5 418.5,258.5 417.5,258.5C 414.729,258.421 412.063,258.921 409.5,260C 375.5,260.333 341.5,260.667 307.5,261C 306.663,262.011 306.33,263.178 306.5,264.5C 306.5,265.167 306.167,265.5 305.5,265.5C 305.261,263.533 305.594,261.699 306.5,260C 339.833,259.667 373.167,259.333 406.5,259C 411.433,257.839 416.433,257.005 421.5,256.5 Z"/></g>
<g><path style="opacity:0.997" fill="#7c7c7c" d="M 232.5,258.5 C 236.215,258.423 239.881,258.756 243.5,259.5C 254.5,260.167 265.5,260.833 276.5,261.5C 264.162,261.667 251.829,261.5 239.5,261C 236.896,260.61 234.562,259.776 232.5,258.5 Z"/></g>
<g><path style="opacity:0.995" fill="#878787" d="M 417.5,258.5 C 415.438,259.776 413.104,260.61 410.5,261C 376.5,261.333 342.5,261.667 308.5,262C 307.944,262.383 307.611,262.883 307.5,263.5C 307.5,264.167 307.167,264.5 306.5,264.5C 306.33,263.178 306.663,262.011 307.5,261C 341.5,260.667 375.5,260.333 409.5,260C 412.063,258.921 414.729,258.421 417.5,258.5 Z"/></g>
<g><path style="opacity:0.029" fill="#f9f9f9" d="M 224.5,255.5 C 227.327,256.108 229.993,257.108 232.5,258.5C 234.562,259.776 236.896,260.61 239.5,261C 251.829,261.5 264.162,261.667 276.5,261.5C 277.167,261.833 277.833,262.167 278.5,262.5C 278.5,262.833 278.5,263.167 278.5,263.5C 266.829,263.667 255.162,263.5 243.5,263C 236.2,262.674 229.866,260.174 224.5,255.5 Z"/></g>
<g><path style="opacity:0.074" fill="#f9f9f9" d="M 417.5,258.5 C 418.5,258.5 419.5,258.5 420.5,258.5C 420.047,259.458 419.381,260.292 418.5,261C 413.877,261.958 409.21,262.625 404.5,263C 372.168,263.5 339.835,263.667 307.5,263.5C 307.611,262.883 307.944,262.383 308.5,262C 342.5,261.667 376.5,261.333 410.5,261C 413.104,260.61 415.438,259.776 417.5,258.5 Z"/></g>
<g><path style="opacity:0.996" fill="#9a9a9a" d="M 39.5,264.5 C 40.552,264.351 41.552,264.517 42.5,265C 41.2949,266.376 39.9616,267.542 38.5,268.5C 38.4326,267.041 38.7659,265.708 39.5,264.5 Z"/></g>
<g><path style="opacity:0.996" fill="#9f9f9f" d="M 37.5,270.5 C 38.552,270.351 39.552,270.517 40.5,271C 39.2949,272.376 37.9616,273.542 36.5,274.5C 36.4326,273.041 36.7659,271.708 37.5,270.5 Z"/></g>
<g><path style="opacity:0.996" fill="#666666" d="M 305.5,266.5 C 308.999,266.259 309.332,267.092 306.5,269C 310.002,269.656 310.002,270.989 306.5,273C 310.002,273.656 310.002,274.989 306.5,277C 310.002,277.656 310.002,278.989 306.5,281C 310.002,281.656 310.002,282.989 306.5,285C 310.002,285.656 310.002,286.989 306.5,289C 310.002,289.656 310.002,290.989 306.5,293C 310.002,293.656 310.002,294.989 306.5,297C 310.002,297.656 310.002,298.989 306.5,301C 310.002,301.656 310.002,302.989 306.5,305C 310.002,305.656 310.002,306.989 306.5,309C 307.5,309.333 308.5,309.667 309.5,310C 308.295,311.376 306.962,312.542 305.5,313.5C 305.5,297.833 305.5,282.167 305.5,266.5 Z"/></g>
<g><path style="opacity:0.996" fill="#a4a4a4" d="M 36.5,275.5 C 37.552,275.351 38.552,275.517 39.5,276C 37.9625,277.707 36.2959,279.207 34.5,280.5C 35.1667,278.833 35.8333,277.167 36.5,275.5 Z"/></g>
<g><path style="opacity:0.86" fill="#606060" d="M 278.5,262.5 C 279.833,279.167 279.833,295.833 278.5,312.5C 278.5,309.833 278.5,307.167 278.5,304.5C 278.024,290.787 278.024,277.121 278.5,263.5C 278.5,263.167 278.5,262.833 278.5,262.5 Z"/></g>
<g><path style="opacity:0.435" fill="#e9e9e9" d="M 34.5,281.5 C 38.0595,281.717 38.0595,282.717 34.5,284.5C 34.5,283.5 34.5,282.5 34.5,281.5 Z"/></g>
<g><path style="opacity:0.996" fill="#898989" d="M 32.5,287.5 C 35.9704,287.71 35.9704,288.877 32.5,291C 33.5,291.333 34.5,291.667 35.5,292C 34.2949,293.376 32.9616,294.542 31.5,295.5C 31.4013,292.763 31.7347,290.096 32.5,287.5 Z"/></g>
<g><path style="opacity:0.545" fill="#d9d9d9" d="M 31.5,296.5 C 35.0595,296.717 35.0595,297.717 31.5,299.5C 31.5,298.5 31.5,297.5 31.5,296.5 Z"/></g>
<g><path style="opacity:0.996" fill="#565656" d="M 30.5,301.5 C 33.9704,301.71 33.9704,302.877 30.5,305C 34.0016,305.656 34.0016,306.989 30.5,309C 30.7284,309.399 31.0618,309.565 31.5,309.5C 31.5,310.167 31.5,310.833 31.5,311.5C 31.5,312.167 31.1667,312.5 30.5,312.5C 29.242,308.8 29.242,305.134 30.5,301.5 Z"/></g>
<g><path style="opacity:0.594" fill="#f2f2f2" d="M 31.5,309.5 C 33.9327,309.786 33.9327,310.452 31.5,311.5C 31.5,310.833 31.5,310.167 31.5,309.5 Z"/></g>
<g><path style="opacity:0.992" fill="#8a8a8a" d="M 30.5,313.5 C 34.0595,313.717 34.0595,314.717 30.5,316.5C 30.5,315.5 30.5,314.5 30.5,313.5 Z"/></g>
<g><path style="opacity:0.925" fill="#c2c2c2" d="M 306.5,318.5 C 308.933,318.786 308.933,319.452 306.5,320.5C 306.5,319.833 306.5,319.167 306.5,318.5 Z"/></g>
<g><path style="opacity:0.843" fill="#dedede" d="M 306.5,322.5 C 308.933,322.786 308.933,323.452 306.5,324.5C 306.5,323.833 306.5,323.167 306.5,322.5 Z"/></g>
<g><path style="opacity:0.996" fill="#575757" d="M 30.5,317.5 C 33.999,317.259 34.3323,318.092 31.5,320C 35.0016,320.656 35.0016,321.989 31.5,324C 34.9431,324.221 35.2764,325.221 32.5,327C 35.7982,327.299 36.1315,328.133 33.5,329.5C 32.8501,329.196 32.1835,328.863 31.5,328.5C 30.5108,324.893 30.1774,321.226 30.5,317.5 Z"/></g>
<g><path style="opacity:0.996" fill="#6f6f6f" d="M 305.5,325.5 C 306.263,326.268 307.263,326.768 308.5,327C 304.998,329.011 304.998,330.344 308.5,331C 307.295,332.376 305.962,333.542 304.5,334.5C 304.19,331.287 304.523,328.287 305.5,325.5 Z"/></g>
<g><path style="opacity:0.996" fill="#555555" d="M 33.5,330.5 C 36.999,330.259 37.3323,331.092 34.5,333C 35.5,333.333 36.5,333.667 37.5,334C 36.6195,334.708 35.9528,335.542 35.5,336.5C 33.6921,335.082 33.0254,333.082 33.5,330.5 Z"/></g>
<g><path style="opacity:0.992" fill="#878787" d="M 304.5,335.5 C 305.552,335.351 306.552,335.517 307.5,336C 306.295,337.376 304.962,338.542 303.5,339.5C 303.833,338.167 304.167,336.833 304.5,335.5 Z"/></g>
<g><path style="opacity:0.996" fill="#696969" d="M 303.5,339.5 C 304.263,340.268 305.263,340.768 306.5,341C 302.998,343.011 302.998,344.344 306.5,345C 305.295,346.376 303.962,347.542 302.5,348.5C 302.19,345.287 302.523,342.287 303.5,339.5 Z"/></g>
<g><path style="opacity:0.996" fill="#8a8a8a" d="M 39.5,344.5 C 42.8531,344.345 43.1864,345.012 40.5,346.5C 39.6618,346.158 39.3284,345.492 39.5,344.5 Z"/></g>
<g><path style="opacity:0.992" fill="#737373" d="M 41.5,347.5 C 42.0249,348.728 43.3582,349.562 45.5,350C 44.9558,350.717 44.2891,351.217 43.5,351.5C 41.8235,350.817 41.1568,349.483 41.5,347.5 Z"/></g>
<g><path style="opacity:1" fill="#565656" d="M 302.5,349.5 C 303.552,349.351 304.552,349.517 305.5,350C 303.959,351.371 302.625,352.871 301.5,354.5C 301.5,355.5 301.5,356.5 301.5,357.5C 301.5,358.167 301.167,358.5 300.5,358.5C 299.945,354.988 300.612,351.988 302.5,349.5 Z"/></g>
<g><path style="opacity:0.765" fill="#d1d1d1" d="M 301.5,354.5 C 305.06,354.717 305.06,355.717 301.5,357.5C 301.5,356.5 301.5,355.5 301.5,354.5 Z"/></g>
<g><path style="opacity:0.106" fill="#cdcdcd" d="M 46.5,354.5 C 47.0249,355.728 48.3582,356.562 50.5,357C 49.9558,357.717 49.2891,358.217 48.5,358.5C 47.1938,357.533 46.5271,356.199 46.5,354.5 Z"/></g>
<g><path style="opacity:0.792" fill="#a7a7a7" d="M 278.5,304.5 C 278.5,307.167 278.5,309.833 278.5,312.5C 278.192,333.371 274.192,353.371 266.5,372.5C 266.5,371.833 266.5,371.167 266.5,370.5C 273.918,349.001 277.918,327.001 278.5,304.5 Z"/></g>
<g><path style="opacity:0.996" fill="#949494" d="M 300.5,359.5 C 301.552,359.351 302.552,359.517 303.5,360C 302.295,361.376 300.962,362.542 299.5,363.5C 299.433,362.041 299.766,360.708 300.5,359.5 Z"/></g>
<g><path style="opacity:0.996" fill="#959595" d="M 51.5,361.5 C 52.0249,362.728 53.3582,363.562 55.5,364C 55.1667,364.333 54.8333,364.667 54.5,365C 55.5,365.333 56.5,365.667 57.5,366C 57.1667,366.333 56.8333,366.667 56.5,367C 57.5,367.333 58.5,367.667 59.5,368C 59.1667,368.333 58.8333,368.667 58.5,369C 60.935,369.075 61.6016,369.908 60.5,371.5C 56.0688,369.405 53.0688,366.071 51.5,361.5 Z"/></g>
<g><path style="opacity:0.996" fill="#797979" d="M 298.5,365.5 C 299.552,365.351 300.552,365.517 301.5,366C 300.295,367.376 298.962,368.542 297.5,369.5C 297.433,368.041 297.766,366.708 298.5,365.5 Z"/></g>
<g><path style="opacity:0.124" fill="#e1e1e1" d="M 60.5,371.5 C 62.9935,371.131 63.6602,371.797 62.5,373.5C 61.5,373.167 60.8333,372.5 60.5,371.5 Z"/></g>
<g><path style="opacity:0.992" fill="#b0b0b0" d="M 297.5,370.5 C 298.552,370.351 299.552,370.517 300.5,371C 299.295,372.376 297.962,373.542 296.5,374.5C 296.433,373.041 296.766,371.708 297.5,370.5 Z"/></g>
<g><path style="opacity:0.073" fill="#dedede" d="M 62.5,373.5 C 65.8531,373.345 66.1864,374.012 63.5,375.5C 63.1667,374.833 62.8333,374.167 62.5,373.5 Z"/></g>
<g><path style="opacity:0.996" fill="#7e7e7e" d="M 65.5,376.5 C 66.766,377.09 68.0993,377.59 69.5,378C 68.944,378.383 68.6107,378.883 68.5,379.5C 66.5,379.5 65.5,378.5 65.5,376.5 Z"/></g>
<g><path style="opacity:0.976" fill="#c9c9c9" d="M 295.5,376.5 C 296.552,376.351 297.552,376.517 298.5,377C 297.295,378.376 295.962,379.542 294.5,380.5C 294.833,379.167 295.167,377.833 295.5,376.5 Z"/></g>
<g><path style="opacity:0.412" fill="#ececec" d="M 41.5,194.5 C 39.8762,194.36 38.7096,195.027 38,196.5C 29.391,216.051 21.0577,235.718 13,255.5C -7.53158,306.069 0.635086,351.069 37.5,390.5C 39.8333,393.167 42.1667,395.833 44.5,398.5C 16.858,375.547 2.19134,345.881 0.5,309.5C 1.30077,291.297 4.80077,273.631 11,256.5C 19.149,235.994 27.8157,215.661 37,195.5C 37.9492,192.8 39.7825,191.967 42.5,193C 41.944,193.383 41.6107,193.883 41.5,194.5 Z"/></g>
<g><path style="opacity:0.988" fill="#bfbfbf" d="M 292.5,383.5 C 293.552,383.351 294.552,383.517 295.5,384C 294.295,385.376 292.962,386.542 291.5,387.5C 291.833,386.167 292.167,384.833 292.5,383.5 Z"/></g>
<g><path style="opacity:0.996" fill="#515151" d="M 37.5,390.5 C 41.1002,392.43 44.1002,395.097 46.5,398.5C 45.8333,398.5 45.1667,398.5 44.5,398.5C 42.1667,395.833 39.8333,393.167 37.5,390.5 Z"/></g>
<g><path style="opacity:0.996" fill="#5a5a5a" d="M 80.5,388.5 C 82.3695,390.014 84.3695,391.348 86.5,392.5C 84.5,392.167 82.5,391.833 80.5,391.5C 80.5,390.5 80.5,389.5 80.5,388.5 Z"/></g>
<g><path style="opacity:0.412" fill="#d3d3d3" d="M 266.5,370.5 C 266.5,371.167 266.5,371.833 266.5,372.5C 262.447,382.547 256.447,391.213 248.5,398.5C 252.648,392.892 256.815,387.226 261,381.5C 262.879,377.741 264.713,374.075 266.5,370.5 Z"/></g>
<g><path style="opacity:0.996" fill="#b2b2b2" d="M 289.5,390.5 C 290.552,390.351 291.552,390.517 292.5,391C 290.297,393.372 287.963,395.539 285.5,397.5C 286.569,395.031 287.902,392.698 289.5,390.5 Z"/></g>
<g><path style="opacity:0.996" fill="#8b8b8b" d="M 95.5,397.5 C 97.1789,397.892 98.8455,398.392 100.5,399C 99.944,399.383 99.6107,399.883 99.5,400.5C 97.3812,400.532 96.0478,399.532 95.5,397.5 Z"/></g>
<g><path style="opacity:0.455" fill="#d3d3d3" d="M 102.5,401.5 C 104.564,401.687 106.564,402.187 108.5,403C 107.944,403.383 107.611,403.883 107.5,404.5C 105.632,403.737 103.965,402.737 102.5,401.5 Z"/></g>
<g><path style="opacity:0.235" fill="#e4e4e4" d="M 44.5,398.5 C 45.1667,398.5 45.8333,398.5 46.5,398.5C 49.6187,402.957 53.6187,406.291 58.5,408.5C 59.5846,410.587 61.2512,411.92 63.5,412.5C 63.5,412.833 63.5,413.167 63.5,413.5C 62.448,413.649 61.448,413.483 60.5,413C 54.5263,408.851 49.193,404.018 44.5,398.5 Z"/></g>
<g><path style="opacity:0.455" fill="#dcdcdc" d="M 113.5,406.5 C 119.06,407.558 123.726,409.224 127.5,411.5C 122.362,410.921 117.695,409.254 113.5,406.5 Z"/></g>
<g><path style="opacity:0.102" fill="#cdcdcd" d="M 248.5,398.5 C 241.759,405.536 233.759,410.536 224.5,413.5C 232.828,409.004 240.828,404.004 248.5,398.5 Z"/></g>
<g><path style="opacity:0.996" fill="#616161" d="M 58.5,408.5 C 60.7488,409.08 62.4154,410.413 63.5,412.5C 61.2512,411.92 59.5846,410.587 58.5,408.5 Z"/></g>
<g><path style="opacity:0.029" fill="#e5e5e5" d="M 133.5,413.5 C 137.162,413.723 140.495,414.723 143.5,416.5C 143.167,416.5 142.833,416.5 142.5,416.5C 139.215,416.072 136.215,415.072 133.5,413.5 Z"/></g>
<g><path style="opacity:0.992" fill="#8b8b8b" d="M 284.5,399.5 C 285.552,399.351 286.552,399.517 287.5,400C 284.296,403.036 281.296,406.203 278.5,409.5C 273.398,415.941 267.398,421.274 260.5,425.5C 269.547,417.787 277.547,409.12 284.5,399.5 Z"/></g>
<g><path style="opacity:0.208" fill="#dddddd" d="M 224.5,413.5 C 219.603,416.353 214.27,418.02 208.5,418.5C 213.58,416.309 218.913,414.642 224.5,413.5 Z"/></g>
<g><path style="opacity:0.996" fill="#3b3b3b" d="M 68.5,415.5 C 70.6547,415.372 72.6547,415.872 74.5,417C 77.6137,419.435 80.6137,421.935 83.5,424.5C 77.7287,422.717 72.7287,419.717 68.5,415.5 Z"/></g>
<g><path style="opacity:0.996" fill="#535353" d="M 142.5,416.5 C 142.833,416.5 143.167,416.5 143.5,416.5C 145.216,416.629 146.883,416.962 148.5,417.5C 148.5,417.833 148.5,418.167 148.5,418.5C 145.918,418.975 143.918,418.308 142.5,416.5 Z"/></g>
<g><path style="opacity:0.218" fill="#f2f2f2" d="M 278.5,409.5 C 279.552,409.351 280.552,409.517 281.5,410C 275.5,416 269.5,422 263.5,428C 261.866,428.494 260.199,428.66 258.5,428.5C 259.167,427.5 259.833,426.5 260.5,425.5C 267.398,421.274 273.398,415.941 278.5,409.5 Z"/></g>
<g><path style="opacity:0.694" fill="#b2b2b2" d="M 148.5,418.5 C 148.5,418.167 148.5,417.833 148.5,417.5C 155.036,418.051 161.369,419.051 167.5,420.5C 161.059,420.672 154.726,420.006 148.5,418.5 Z"/></g>
<g><path style="opacity:0.769" fill="#a6a6a6" d="M 208.5,418.5 C 205.155,420.217 201.489,420.884 197.5,420.5C 200.946,419.313 204.613,418.646 208.5,418.5 Z"/></g>
<g><path style="opacity:0.996" fill="#525252" d="M 88.5,427.5 C 91.3933,427.031 93.3933,428.031 94.5,430.5C 92.1815,430.008 90.1815,429.008 88.5,427.5 Z"/></g>
<g><path style="opacity:0.376" fill="#f0f0f0" d="M 63.5,413.5 C 65.1667,414.167 66.8333,414.833 68.5,415.5C 72.7287,419.717 77.7287,422.717 83.5,424.5C 84.6594,426.25 86.326,427.25 88.5,427.5C 90.1815,429.008 92.1815,430.008 94.5,430.5C 97.9789,432.403 101.646,434.07 105.5,435.5C 105.5,435.833 105.5,436.167 105.5,436.5C 89.6906,431.933 75.6906,424.266 63.5,413.5 Z"/></g>
<g><path style="opacity:0.996" fill="#3c3c3c" d="M 94.5,430.5 C 99.4059,429.791 103.073,431.457 105.5,435.5C 101.646,434.07 97.9789,432.403 94.5,430.5 Z"/></g>
<g><path style="opacity:0.307" fill="#ededed" d="M 255.5,431.5 C 253.69,435.311 250.69,436.977 246.5,436.5C 246.953,435.542 247.619,434.708 248.5,434C 250.765,432.882 253.099,432.049 255.5,431.5 Z"/></g>
<g><path style="opacity:0.996" fill="#727272" d="M 260.5,425.5 C 259.833,426.5 259.167,427.5 258.5,428.5C 257.833,429.833 256.833,430.833 255.5,431.5C 253.099,432.049 250.765,432.882 248.5,434C 247.619,434.708 246.953,435.542 246.5,436.5C 242.461,437.708 238.461,439.041 234.5,440.5C 234.953,439.542 235.619,438.708 236.5,438C 239.79,437.747 242.79,436.747 245.5,435C 250.749,432.101 255.749,428.934 260.5,425.5 Z"/></g>
<g><path style="opacity:0.996" fill="#717171" d="M 105.5,436.5 C 105.5,436.167 105.5,435.833 105.5,435.5C 113.841,437.169 121.841,439.836 129.5,443.5C 128.5,443.5 127.5,443.5 126.5,443.5C 126.167,443.5 125.833,443.5 125.5,443.5C 119.04,440.605 112.373,438.271 105.5,436.5 Z"/></g>
<g><path style="opacity:0.197" fill="#f2f2f2" d="M 105.5,436.5 C 112.373,438.271 119.04,440.605 125.5,443.5C 118.204,442.736 111.537,440.403 105.5,436.5 Z"/></g>
<g><path style="opacity:0.996" fill="#686868" d="M 234.5,440.5 C 232.104,442.023 229.438,443.023 226.5,443.5C 228.503,441.018 231.169,440.018 234.5,440.5 Z"/></g>
<g><path style="opacity:0.49" fill="#dfdfdf" d="M 246.5,436.5 C 244.887,439.74 242.22,441.24 238.5,441C 237.833,441.667 237.167,442.333 236.5,443C 226.02,446.529 215.354,449.363 204.5,451.5C 188.167,451.5 171.833,451.5 155.5,451.5C 150.053,449.92 144.386,448.754 138.5,448C 134.296,446.769 130.296,445.269 126.5,443.5C 127.5,443.5 128.5,443.5 129.5,443.5C 132.37,444.634 135.37,445.3 138.5,445.5C 143.57,447.23 148.903,448.23 154.5,448.5C 158.21,450.136 162.21,450.802 166.5,450.5C 179.044,450.879 191.378,450.212 203.5,448.5C 207.489,448.884 211.155,448.217 214.5,446.5C 216.099,446.768 217.432,446.434 218.5,445.5C 220.898,445.741 222.898,445.074 224.5,443.5C 225.167,443.5 225.833,443.5 226.5,443.5C 229.438,443.023 232.104,442.023 234.5,440.5C 238.461,439.041 242.461,437.708 246.5,436.5 Z"/></g>
<g><path style="opacity:0.996" fill="#5d5d5d" d="M 138.5,445.5 C 144.184,445.261 149.518,446.261 154.5,448.5C 148.903,448.23 143.57,447.23 138.5,445.5 Z"/></g>
<g><path style="opacity:0.996" fill="#585858" d="M 224.5,443.5 C 222.898,445.074 220.898,445.741 218.5,445.5C 220.102,443.926 222.102,443.259 224.5,443.5 Z"/></g>
<g><path style="opacity:1" fill="#747474" d="M 214.5,446.5 C 211.155,448.217 207.489,448.884 203.5,448.5C 206.974,447.475 210.64,446.808 214.5,446.5 Z"/></g>
<g><path style="opacity:1" fill="#454545" d="M 162.5,448.5 C 176.167,448.5 189.833,448.5 203.5,448.5C 191.378,450.212 179.044,450.879 166.5,450.5C 165.167,449.833 163.833,449.167 162.5,448.5 Z"/></g>
<g><path style="opacity:0.969" fill="#9e9e9e" d="M 154.5,448.5 C 157.167,448.5 159.833,448.5 162.5,448.5C 163.833,449.167 165.167,449.833 166.5,450.5C 162.21,450.802 158.21,450.136 154.5,448.5 Z"/></g>
</svg>
