<?xml version="1.0" encoding="UTF-8"?>
<!DOCTYPE svg PUBLIC "-//W3C//DTD SVG 1.1//EN" "http://www.w3.org/Graphics/SVG/1.1/DTD/svg11.dtd">
<svg xmlns="http://www.w3.org/2000/svg" version="1.1" width="512px" height="512px" style="shape-rendering:geometricPrecision; text-rendering:geometricPrecision; image-rendering:optimizeQuality; fill-rule:evenodd; clip-rule:evenodd" xmlns:xlink="http://www.w3.org/1999/xlink">
<g><path style="opacity:0.994" fill="#000000" d="M 132.5,-0.5 C 214.5,-0.5 296.5,-0.5 378.5,-0.5C 406.125,6.29274 423.292,23.6261 430,51.5C 430.667,171.167 430.667,290.833 430,410.5C 423.41,438.757 405.91,455.924 377.5,462C 359.17,462.5 340.836,462.667 322.5,462.5C 322.5,443.833 322.5,425.167 322.5,406.5C 336.017,406.434 341.851,399.767 340,386.5C 338.5,382.333 335.667,379.5 331.5,378C 306.206,376.857 280.873,376.357 255.5,376.5C 230.127,376.357 204.794,376.857 179.5,378C 171.695,381.781 168.862,387.947 171,396.5C 174.593,403.552 180.426,406.885 188.5,406.5C 188.5,425.167 188.5,443.833 188.5,462.5C 170.164,462.667 151.83,462.5 133.5,462C 105.117,455.951 87.6171,438.784 81,410.5C 80.3333,290.833 80.3333,171.167 81,51.5C 87.6811,23.6527 104.848,6.31934 132.5,-0.5 Z M 159.5,63.5 C 223.501,63.3333 287.501,63.5 351.5,64C 360.333,64.8333 365.167,69.6667 366,78.5C 366.667,145.5 366.667,212.5 366,279.5C 365.167,288.333 360.333,293.167 351.5,294C 287.5,294.667 223.5,294.667 159.5,294C 150.667,293.167 145.833,288.333 145,279.5C 144.333,212.5 144.333,145.5 145,78.5C 146.012,69.6566 150.845,64.6566 159.5,63.5 Z M 250.5,121.5 C 255.449,120.959 260.116,121.792 264.5,124C 281.583,140.42 293.75,159.92 301,182.5C 303.907,210.872 291.74,229.038 264.5,237C 236.128,239.907 217.962,227.74 210,200.5C 208.097,185.776 211.097,172.109 219,159.5C 227.568,145.11 238.068,132.444 250.5,121.5 Z M 194.5,321.5 C 208.652,320.151 214.819,326.485 213,340.5C 207.135,350.246 199.301,352.08 189.5,346C 182.906,336.014 184.573,327.848 194.5,321.5 Z M 250.5,321.5 C 264.652,320.151 270.819,326.485 269,340.5C 263.135,350.246 255.301,352.08 245.5,346C 238.906,336.014 240.573,327.848 250.5,321.5 Z M 306.5,321.5 C 320.652,320.151 326.819,326.485 325,340.5C 319.135,350.246 311.301,352.08 301.5,346C 294.906,336.014 296.573,327.848 306.5,321.5 Z"/></g>
<g><path style="opacity:0.99" fill="#000000" d="M 174.5,93.5 C 228.5,93.5 282.5,93.5 336.5,93.5C 336.5,150.5 336.5,207.5 336.5,264.5C 282.5,264.5 228.5,264.5 174.5,264.5C 174.5,207.5 174.5,150.5 174.5,93.5 Z M 250.5,121.5 C 238.068,132.444 227.568,145.11 219,159.5C 211.097,172.109 208.097,185.776 210,200.5C 217.962,227.74 236.128,239.907 264.5,237C 291.74,229.038 303.907,210.872 301,182.5C 293.75,159.92 281.583,140.42 264.5,124C 260.116,121.792 255.449,120.959 250.5,121.5 Z"/></g>
<g><path style="opacity:0.943" fill="#000000" d="M 254.5,157.5 C 262.561,165.255 268.394,174.588 272,185.5C 274.727,199.252 269.227,206.919 255.5,208.5C 244.833,207.833 239.167,202.167 238.5,191.5C 238.398,187.307 239.231,183.307 241,179.5C 244.959,171.736 249.459,164.402 254.5,157.5 Z"/></g>
<g><path style="opacity:0.997" fill="#000000" d="M 283.5,511.5 C 264.833,511.5 246.167,511.5 227.5,511.5C 223.521,509.685 220.688,506.685 219,502.5C 218.5,470.502 218.333,438.502 218.5,406.5C 243.167,406.5 267.833,406.5 292.5,406.5C 292.667,438.502 292.5,470.502 292,502.5C 290.312,506.685 287.479,509.685 283.5,511.5 Z"/></g>
</svg>
