<?xml version="1.0" encoding="UTF-8"?>
<!DOCTYPE svg PUBLIC "-//W3C//DTD SVG 1.1//EN" "http://www.w3.org/Graphics/SVG/1.1/DTD/svg11.dtd">
<svg xmlns="http://www.w3.org/2000/svg" version="1.1" width="512px" height="512px" style="shape-rendering:geometricPrecision; text-rendering:geometricPrecision; image-rendering:optimizeQuality; fill-rule:evenodd; clip-rule:evenodd" xmlns:xlink="http://www.w3.org/1999/xlink">
<g><path style="opacity:0.98" fill="#000000" d="M 166.5,48.5 C 198.88,48.0544 213.38,64.0544 210,96.5C 207.165,141.529 203.998,186.529 200.5,231.5C 164.347,195.847 128.347,160.014 92.5,124C 90.6951,123.028 89.0284,121.861 87.5,120.5C 108.986,98.5138 130.653,76.6805 152.5,55C 156.877,51.9748 161.544,49.8081 166.5,48.5 Z"/></g>
<g><path style="opacity:0.981" fill="#000000" d="M 291.5,107.5 C 310.193,108.44 322.693,117.773 329,135.5C 332.511,144.687 335.178,154.02 337,163.5C 319.667,180.833 302.333,198.167 285,215.5C 282.46,220.097 283.293,223.93 287.5,227C 290.303,227.755 292.97,227.422 295.5,226C 311.333,210.167 327.167,194.333 343,178.5C 348.736,195.21 354.57,211.876 360.5,228.5C 349.91,240.593 338.743,252.26 327,263.5C 322.821,270.136 324.487,274.469 332,276.5C 333.627,276.375 335.127,275.875 336.5,275C 346.347,264.986 356.347,255.152 366.5,245.5C 385.433,289.904 410.767,330.071 442.5,366C 410.5,366.667 378.5,366.667 346.5,366C 340.117,364.65 334.117,362.317 328.5,359C 290.694,322.195 253.194,285.028 216,247.5C 217.29,212.811 219.29,178.145 222,143.5C 227.729,143.417 233.562,143.25 239.5,143C 245.749,142.126 250.915,139.293 255,134.5C 261.748,117.889 273.914,108.889 291.5,107.5 Z"/></g>
<g><path style="opacity:0.981" fill="#000000" d="M 75.5,133.5 C 77.9267,133.523 80.26,134.023 82.5,135C 159.833,212.333 237.167,289.667 314.5,367C 323.939,374.384 334.605,379.051 346.5,381C 384.167,381.333 421.833,381.667 459.5,382C 475.35,386.217 482.017,396.551 479.5,413C 480.521,437.971 469.188,454.305 445.5,462C 424.198,463.126 402.864,463.626 381.5,463.5C 359.475,463.614 337.475,463.114 315.5,462C 301.828,459.662 289.495,454.328 278.5,446C 196.721,365.554 115.554,284.387 35,202.5C 30.0994,192.006 30.4327,181.672 36,171.5C 48.7827,158.213 61.9494,145.546 75.5,133.5 Z"/></g>
<g><path style="opacity:0.934" fill="#000000" d="M 37.5,381.5 C 78.8347,381.333 120.168,381.5 161.5,382C 167.095,384.354 168.928,388.521 167,394.5C 165.833,395.667 164.667,396.833 163.5,398C 120.833,398.667 78.1667,398.667 35.5,398C 31.2119,394.229 30.3786,389.729 33,384.5C 34.6516,383.601 36.1516,382.601 37.5,381.5 Z"/></g>
<g><path style="opacity:0.933" fill="#000000" d="M 35.5,446.5 C 109.834,446.333 184.167,446.5 258.5,447C 263.763,453.102 269.763,458.268 276.5,462.5C 196.835,463.667 117.169,463.833 37.5,463C 31.9051,460.646 30.0718,456.479 32,450.5C 33.3756,449.295 34.5423,447.962 35.5,446.5 Z"/></g>
</svg>
