<?xml version="1.0" encoding="UTF-8"?>
<!DOCTYPE svg PUBLIC "-//W3C//DTD SVG 1.1//EN" "http://www.w3.org/Graphics/SVG/1.1/DTD/svg11.dtd">
<svg xmlns="http://www.w3.org/2000/svg" version="1.1" width="633px" height="511px" style="shape-rendering:geometricPrecision; text-rendering:geometricPrecision; image-rendering:optimizeQuality; fill-rule:evenodd; clip-rule:evenodd" xmlns:xlink="http://www.w3.org/1999/xlink">
<g><path style="opacity:1" fill="#dde1e5" d="M -0.5,-0.5 C 210.5,-0.5 421.5,-0.5 632.5,-0.5C 632.5,169.833 632.5,340.167 632.5,510.5C 421.5,510.5 210.5,510.5 -0.5,510.5C -0.5,340.167 -0.5,169.833 -0.5,-0.5 Z"/></g>
<g><path style="opacity:1" fill="#020202" d="M 295.5,17.5 C 358.355,14.1214 414.355,31.788 463.5,70.5C 467.868,74.533 471.868,78.8663 475.5,83.5C 467.608,92.725 458.942,101.392 449.5,109.5C 393.952,61.4494 330.619,47.116 259.5,66.5C 245.693,71.4028 232.359,77.4028 219.5,84.5C 208.167,92.8333 196.833,101.167 185.5,109.5C 178.792,104.459 173.125,98.4589 168.5,91.5C 164.833,87.8333 161.167,84.1667 157.5,80.5C 184.194,54.8077 215.527,36.8077 251.5,26.5C 266.311,22.8196 280.977,19.8196 295.5,17.5 Z"/></g>
<g><path style="opacity:1" fill="#060909" d="M 143.5,93.5 C 145.604,93.2011 147.604,93.5344 149.5,94.5C 158.299,103.299 166.966,111.966 175.5,120.5C 132.208,171.328 117.208,229.662 130.5,295.5C 138.591,329.357 154.258,359.024 177.5,384.5C 170.167,391.833 162.833,399.167 155.5,406.5C 153.5,407.5 151.5,408.5 149.5,409.5C 144.866,405.868 140.533,401.868 136.5,397.5C 82.9868,327.753 70.3201,251.086 98.5,167.5C 109.478,140.177 124.478,115.511 143.5,93.5 Z"/></g>
<g><path style="opacity:1" fill="#020202" d="M 547.5,275.5 C 545.824,276.183 545.157,277.517 545.5,279.5C 545.5,283.5 545.5,287.5 545.5,291.5C 543.824,292.183 543.157,293.517 543.5,295.5C 539.357,320.927 531.024,344.927 518.5,367.5C 511.06,377.26 504.06,387.26 497.5,397.5C 496.167,397.5 495.5,398.167 495.5,399.5C 493.92,402.088 491.92,404.422 489.5,406.5C 487.5,407.833 485.5,407.833 483.5,406.5C 479.422,401.751 474.755,397.751 469.5,394.5C 465.797,391.133 462.464,387.466 459.5,383.5C 510.67,321.008 522.336,251.675 494.5,175.5C 486.328,157.137 475.662,140.47 462.5,125.5C 461.167,123.5 461.167,121.5 462.5,119.5C 471.236,111.434 479.236,102.767 486.5,93.5C 521.113,131.41 541.113,176.076 546.5,227.5C 547.499,243.486 547.833,259.486 547.5,275.5 Z"/></g>
<g><path style="opacity:1" fill="#33caca" d="M 143.5,101.5 C 145.604,101.201 147.604,101.534 149.5,102.5C 155.5,108.5 161.5,114.5 167.5,120.5C 121.995,178.025 108.995,242.358 128.5,313.5C 129.913,316.661 131.58,319.661 133.5,322.5C 132.833,323.167 132.167,323.833 131.5,324.5C 134.167,328.5 136.833,332.5 139.5,336.5C 138.833,337.167 138.167,337.833 137.5,338.5C 139.584,342.336 141.917,346.003 144.5,349.5C 146.744,353.314 148.411,357.314 149.5,361.5C 150.833,361.5 152.167,361.5 153.5,361.5C 153.238,362.978 153.571,364.311 154.5,365.5C 159.221,371.221 163.554,377.221 167.5,383.5C 162.167,390.167 156.167,396.167 149.5,401.5C 146.872,399.874 144.539,397.874 142.5,395.5C 87.6834,325.008 75.6834,247.674 106.5,163.5C 113.484,148.193 121.484,133.526 130.5,119.5C 134.026,114.461 138.026,109.794 142.5,105.5C 143.429,104.311 143.762,102.978 143.5,101.5 Z"/></g>
<g><path style="opacity:1" fill="#111515" d="M 351.5,223.5 C 351.279,222.265 350.612,221.265 349.5,220.5C 350.689,219.571 352.022,219.238 353.5,219.5C 353.5,207.5 353.5,195.5 353.5,183.5C 330.167,183.5 306.833,183.5 283.5,183.5C 283.5,196.833 283.5,210.167 283.5,223.5C 281.518,209.873 280.851,195.873 281.5,181.5C 306.167,181.5 330.833,181.5 355.5,181.5C 355.833,194.85 355.499,208.183 354.5,221.5C 353.735,222.612 352.735,223.279 351.5,223.5 Z"/></g>
<g><path style="opacity:1" fill="#33caca" d="M 351.5,223.5 C 349.824,224.183 349.157,225.517 349.5,227.5C 347.824,228.183 347.157,229.517 347.5,231.5C 346.167,231.5 345.5,232.167 345.5,233.5C 343.824,234.183 343.157,235.517 343.5,237.5C 342.167,237.5 341.5,238.167 341.5,239.5C 339.824,240.183 339.157,241.517 339.5,243.5C 338.167,243.5 337.5,244.167 337.5,245.5C 335.517,245.157 334.183,245.824 333.5,247.5C 331.971,246.653 330.304,245.986 328.5,245.5C 326.97,245.64 325.97,246.307 325.5,247.5C 324.167,247.5 323.5,248.167 323.5,249.5C 321.517,249.157 320.183,249.824 319.5,251.5C 316.167,251.5 312.833,251.5 309.5,251.5C 309.5,250.167 308.833,249.5 307.5,249.5C 307.279,248.265 306.612,247.265 305.5,246.5C 302.914,245.52 300.247,245.187 297.5,245.5C 296.817,243.824 295.483,243.157 293.5,243.5C 293.5,242.167 292.833,241.5 291.5,241.5C 291.5,240.167 290.833,239.5 289.5,239.5C 289.5,238.167 288.833,237.5 287.5,237.5C 287.975,234.918 287.308,232.918 285.5,231.5C 286.036,228.302 285.369,225.635 283.5,223.5C 283.5,210.167 283.5,196.833 283.5,183.5C 306.833,183.5 330.167,183.5 353.5,183.5C 353.5,195.5 353.5,207.5 353.5,219.5C 352.022,219.238 350.689,219.571 349.5,220.5C 350.612,221.265 351.279,222.265 351.5,223.5 Z"/></g>
<g><path style="opacity:1" fill="#0c1615" d="M 283.5,223.5 C 285.369,225.635 286.036,228.302 285.5,231.5C 283.631,229.365 282.964,226.698 283.5,223.5 Z"/></g>
<g><path style="opacity:1" fill="#151919" d="M 351.5,223.5 C 351.843,225.483 351.176,226.817 349.5,227.5C 349.157,225.517 349.824,224.183 351.5,223.5 Z"/></g>
<g><path style="opacity:1" fill="#0e1818" d="M 349.5,227.5 C 349.843,229.483 349.176,230.817 347.5,231.5C 347.157,229.517 347.824,228.183 349.5,227.5 Z"/></g>
<g><path style="opacity:1" fill="#0d1717" d="M 285.5,231.5 C 287.308,232.918 287.975,234.918 287.5,237.5C 285.692,236.082 285.025,234.082 285.5,231.5 Z"/></g>
<g><path style="opacity:1" fill="#131e1e" d="M 347.5,231.5 C 347.5,232.833 346.833,233.5 345.5,233.5C 345.5,232.167 346.167,231.5 347.5,231.5 Z"/></g>
<g><path style="opacity:1" fill="#0d1717" d="M 345.5,233.5 C 345.843,235.483 345.176,236.817 343.5,237.5C 343.157,235.517 343.824,234.183 345.5,233.5 Z"/></g>
<g><path style="opacity:1" fill="#111f1f" d="M 287.5,237.5 C 288.833,237.5 289.5,238.167 289.5,239.5C 288.167,239.5 287.5,238.833 287.5,237.5 Z"/></g>
<g><path style="opacity:1" fill="#0d1d1d" d="M 343.5,237.5 C 343.5,238.833 342.833,239.5 341.5,239.5C 341.5,238.167 342.167,237.5 343.5,237.5 Z"/></g>
<g><path style="opacity:1" fill="#111f1f" d="M 289.5,239.5 C 290.833,239.5 291.5,240.167 291.5,241.5C 290.167,241.5 289.5,240.833 289.5,239.5 Z"/></g>
<g><path style="opacity:1" fill="#0e1818" d="M 341.5,239.5 C 341.843,241.483 341.176,242.817 339.5,243.5C 339.157,241.517 339.824,240.183 341.5,239.5 Z"/></g>
<g><path style="opacity:1" fill="#111f1f" d="M 291.5,241.5 C 292.833,241.5 293.5,242.167 293.5,243.5C 292.167,243.5 291.5,242.833 291.5,241.5 Z"/></g>
<g><path style="opacity:1" fill="#0e1817" d="M 293.5,243.5 C 295.483,243.157 296.817,243.824 297.5,245.5C 295.517,245.843 294.183,245.176 293.5,243.5 Z"/></g>
<g><path style="opacity:1" fill="#141e1f" d="M 339.5,243.5 C 339.5,244.833 338.833,245.5 337.5,245.5C 337.5,244.167 338.167,243.5 339.5,243.5 Z"/></g>
<g><path style="opacity:1" fill="#111818" d="M 297.5,245.5 C 300.247,245.187 302.914,245.52 305.5,246.5C 306.612,247.265 307.279,248.265 307.5,249.5C 303.394,249.696 300.061,248.363 297.5,245.5 Z"/></g>
<g><path style="opacity:1" fill="#101818" d="M 337.5,245.5 C 336.817,247.176 335.483,247.843 333.5,247.5C 334.183,245.824 335.517,245.157 337.5,245.5 Z"/></g>
<g><path style="opacity:1" fill="#111515" d="M 333.5,247.5 C 333.38,248.586 332.713,249.253 331.5,249.5C 329.666,248.246 327.666,247.579 325.5,247.5C 325.97,246.307 326.97,245.64 328.5,245.5C 330.304,245.986 331.971,246.653 333.5,247.5 Z"/></g>
<g><path style="opacity:1" fill="#101a1a" d="M 325.5,247.5 C 325.5,248.833 324.833,249.5 323.5,249.5C 323.5,248.167 324.167,247.5 325.5,247.5 Z"/></g>
<g><path style="opacity:1" fill="#141b1c" d="M 307.5,249.5 C 308.833,249.5 309.5,250.167 309.5,251.5C 308.167,251.5 307.5,250.833 307.5,249.5 Z"/></g>
<g><path style="opacity:1" fill="#0c1616" d="M 323.5,249.5 C 322.817,251.176 321.483,251.843 319.5,251.5C 320.183,249.824 321.517,249.157 323.5,249.5 Z"/></g>
<g><path style="opacity:1" fill="#121415" d="M 309.5,251.5 C 312.833,251.5 316.167,251.5 319.5,251.5C 326.833,252.833 334.167,254.167 341.5,255.5C 328.15,255.167 314.817,255.501 301.5,256.5C 292.634,257.336 283.967,259.003 275.5,261.5C 275.721,260.265 276.388,259.265 277.5,258.5C 288.31,255.508 298.977,253.174 309.5,251.5 Z"/></g>
<g><path style="opacity:1" fill="#32caca" d="M 341.5,255.5 C 342.918,257.308 344.918,257.975 347.5,257.5C 350.361,259.575 353.694,260.908 357.5,261.5C 359.074,264.708 361.741,266.042 365.5,265.5C 366.183,267.176 367.517,267.843 369.5,267.5C 369.5,268.833 370.167,269.5 371.5,269.5C 372.183,271.176 373.517,271.843 375.5,271.5C 375.5,272.833 376.167,273.5 377.5,273.5C 378.183,275.176 379.517,275.843 381.5,275.5C 382.183,277.176 383.517,277.843 385.5,277.5C 385.5,278.833 386.167,279.5 387.5,279.5C 387.157,281.483 387.824,282.817 389.5,283.5C 392.193,287.574 394.86,291.574 397.5,295.5C 398.092,299.306 399.425,302.639 401.5,305.5C 400.964,308.698 401.631,311.365 403.5,313.5C 402.931,317.329 403.598,320.663 405.5,323.5C 406.416,337.261 408.416,350.594 411.5,363.5C 413.243,380.099 413.909,396.766 413.5,413.5C 409.5,413.5 405.5,413.5 401.5,413.5C 402.136,404.435 401.47,395.769 399.5,387.5C 400.069,383.671 399.402,380.337 397.5,377.5C 398.036,374.302 397.369,371.635 395.5,369.5C 395.824,365.445 395.491,361.445 394.5,357.5C 394.08,354.384 393.08,351.717 391.5,349.5C 392.069,345.671 391.402,342.337 389.5,339.5C 390.036,336.302 389.369,333.635 387.5,331.5C 387.37,325.644 386.036,320.31 383.5,315.5C 383.975,312.918 383.308,310.918 381.5,309.5C 381.975,306.918 381.308,304.918 379.5,303.5C 379.843,301.517 379.176,300.183 377.5,299.5C 377.843,297.517 377.176,296.183 375.5,295.5C 375.5,293.5 375.5,291.5 375.5,289.5C 372.833,290.167 370.167,290.833 367.5,291.5C 367.5,294.167 367.5,296.833 367.5,299.5C 365.631,301.635 364.964,304.302 365.5,307.5C 363.577,311.029 362.911,315.029 363.5,319.5C 361.564,323.715 360.897,328.381 361.5,333.5C 359.554,338.396 358.887,343.729 359.5,349.5C 357.598,352.337 356.931,355.671 357.5,359.5C 357.5,360.167 357.5,360.833 357.5,361.5C 357.5,379.5 357.5,397.5 357.5,415.5C 330.833,415.5 304.167,415.5 277.5,415.5C 278.139,405.773 277.472,396.44 275.5,387.5C 276.148,373.791 275.481,360.458 273.5,347.5C 274.113,341.729 273.446,336.396 271.5,331.5C 272.103,326.381 271.436,321.715 269.5,317.5C 270.089,313.029 269.423,309.029 267.5,305.5C 268.036,302.302 267.369,299.635 265.5,297.5C 265.5,295.5 265.5,293.5 265.5,291.5C 262.918,291.025 260.918,291.692 259.5,293.5C 257.824,294.183 257.157,295.517 257.5,297.5C 255.824,298.183 255.157,299.517 255.5,301.5C 253.824,302.183 253.157,303.517 253.5,305.5C 251.824,306.183 251.157,307.517 251.5,309.5C 249.692,310.918 249.025,312.918 249.5,315.5C 247.964,317.025 246.964,319.025 246.5,321.5C 245.52,324.086 245.187,326.753 245.5,329.5C 243.631,331.635 242.964,334.302 243.5,337.5C 241.92,339.717 240.92,342.384 240.5,345.5C 238.655,354.08 237.655,362.747 237.5,371.5C 235.554,376.396 234.887,381.729 235.5,387.5C 234.265,387.721 233.265,388.388 232.5,389.5C 231.502,397.472 231.169,405.472 231.5,413.5C 228.167,413.5 224.833,413.5 221.5,413.5C 221.5,396.167 221.5,378.833 221.5,361.5C 224.541,350.604 226.541,339.271 227.5,327.5C 229.402,324.663 230.069,321.329 229.5,317.5C 232.073,309.874 234.073,301.874 235.5,293.5C 237.308,292.082 237.975,290.082 237.5,287.5C 240.167,286.167 242.167,284.167 243.5,281.5C 248.68,280.243 253.347,277.91 257.5,274.5C 259.261,273.083 260.594,271.417 261.5,269.5C 263.483,269.843 264.817,269.176 265.5,267.5C 266.833,267.5 267.5,266.833 267.5,265.5C 269.483,265.843 270.817,265.176 271.5,263.5C 273.483,263.843 274.817,263.176 275.5,261.5C 283.967,259.003 292.634,257.336 301.5,256.5C 314.817,255.501 328.15,255.167 341.5,255.5 Z"/></g>
<g><path style="opacity:1" fill="#141717" d="M 341.5,255.5 C 344.082,255.025 346.082,255.692 347.5,257.5C 344.918,257.975 342.918,257.308 341.5,255.5 Z"/></g>
<g><path style="opacity:1" fill="#111314" d="M 347.5,257.5 C 350.833,257.5 354.167,257.5 357.5,257.5C 357.5,258.833 357.5,260.167 357.5,261.5C 353.694,260.908 350.361,259.575 347.5,257.5 Z"/></g>
<g><path style="opacity:1" fill="#151818" d="M 275.5,261.5 C 274.817,263.176 273.483,263.843 271.5,263.5C 272.183,261.824 273.517,261.157 275.5,261.5 Z"/></g>
<g><path style="opacity:1" fill="#141718" d="M 357.5,261.5 C 360.806,261.819 363.473,263.153 365.5,265.5C 361.741,266.042 359.074,264.708 357.5,261.5 Z"/></g>
<g><path style="opacity:1" fill="#161819" d="M 271.5,263.5 C 270.817,265.176 269.483,265.843 267.5,265.5C 268.183,263.824 269.517,263.157 271.5,263.5 Z"/></g>
<g><path style="opacity:1" fill="#161f1f" d="M 267.5,265.5 C 267.5,266.833 266.833,267.5 265.5,267.5C 265.5,266.167 266.167,265.5 267.5,265.5 Z"/></g>
<g><path style="opacity:1" fill="#141819" d="M 365.5,265.5 C 367.483,265.157 368.817,265.824 369.5,267.5C 367.517,267.843 366.183,267.176 365.5,265.5 Z"/></g>
<g><path style="opacity:1" fill="#141818" d="M 265.5,267.5 C 264.817,269.176 263.483,269.843 261.5,269.5C 262.183,267.824 263.517,267.157 265.5,267.5 Z"/></g>
<g><path style="opacity:1" fill="#1a2020" d="M 369.5,267.5 C 370.833,267.5 371.5,268.167 371.5,269.5C 371.5,268.167 370.833,267.5 369.5,267.5 Z"/></g>
<g><path style="opacity:1" fill="#141819" d="M 371.5,269.5 C 373.483,269.157 374.817,269.824 375.5,271.5C 373.517,271.843 372.183,271.176 371.5,269.5 Z"/></g>
<g><path style="opacity:1" fill="#181d1d" d="M 375.5,271.5 C 376.833,271.5 377.5,272.167 377.5,273.5C 377.5,272.167 376.833,271.5 375.5,271.5 Z"/></g>
<g><path style="opacity:1" fill="#0f1313" d="M 377.5,273.5 C 378.833,273.5 380.167,273.5 381.5,273.5C 381.5,274.167 381.5,274.833 381.5,275.5C 379.517,275.843 378.183,275.176 377.5,273.5 Z"/></g>
<g><path style="opacity:1" fill="#75777a" d="M 381.5,273.5 C 382.833,273.5 383.5,274.167 383.5,275.5C 382.833,275.5 382.167,275.5 381.5,275.5C 381.5,274.833 381.5,274.167 381.5,273.5 Z"/></g>
<g><path style="opacity:1" fill="#141a1a" d="M 381.5,275.5 C 382.167,275.5 382.833,275.5 383.5,275.5C 384.833,275.5 385.5,276.167 385.5,277.5C 383.517,277.843 382.183,277.176 381.5,275.5 Z"/></g>
<g><path style="opacity:1" fill="#0e1111" d="M 261.5,269.5 C 260.594,271.417 259.261,273.083 257.5,274.5C 253.347,277.91 248.68,280.243 243.5,281.5C 244.446,278.687 246.446,277.354 249.5,277.5C 249.5,276.167 249.5,274.833 249.5,273.5C 251.5,273.5 253.5,273.5 255.5,273.5C 255.5,272.167 255.5,270.833 255.5,269.5C 257.5,269.5 259.5,269.5 261.5,269.5 Z"/></g>
<g><path style="opacity:1" fill="#1a2020" d="M 385.5,277.5 C 386.833,277.5 387.5,278.167 387.5,279.5C 387.5,278.167 386.833,277.5 385.5,277.5 Z"/></g>
<g><path style="opacity:1" fill="#656769" d="M 547.5,275.5 C 547.843,277.483 547.176,278.817 545.5,279.5C 545.157,277.517 545.824,276.183 547.5,275.5 Z"/></g>
<g><path style="opacity:1" fill="#121819" d="M 387.5,279.5 C 389.176,280.183 389.843,281.517 389.5,283.5C 387.824,282.817 387.157,281.483 387.5,279.5 Z"/></g>
<g><path style="opacity:1" fill="#111515" d="M 243.5,281.5 C 242.167,284.167 240.167,286.167 237.5,287.5C 237.5,283.5 239.5,281.5 243.5,281.5 Z"/></g>
<g><path style="opacity:1" fill="#101314" d="M 389.5,283.5 C 391.5,283.5 393.5,283.5 395.5,283.5C 396.167,287.5 396.833,291.5 397.5,295.5C 394.86,291.574 392.193,287.574 389.5,283.5 Z"/></g>
<g><path style="opacity:1" fill="#0d1414" d="M 237.5,287.5 C 237.975,290.082 237.308,292.082 235.5,293.5C 235.025,290.918 235.692,288.918 237.5,287.5 Z"/></g>
<g><path style="opacity:1" fill="#0e1818" d="M 259.5,293.5 C 259.843,295.483 259.176,296.817 257.5,297.5C 257.157,295.517 257.824,294.183 259.5,293.5 Z"/></g>
<g><path style="opacity:1" fill="#111819" d="M 265.5,297.5 C 263.824,296.817 263.157,295.483 263.5,293.5C 262.167,293.5 260.833,293.5 259.5,293.5C 260.918,291.692 262.918,291.025 265.5,291.5C 265.5,293.5 265.5,295.5 265.5,297.5 Z"/></g>
<g><path style="opacity:1" fill="#141b1b" d="M 375.5,295.5 C 373.718,294.28 371.718,293.614 369.5,293.5C 369.975,296.082 369.308,298.082 367.5,299.5C 367.5,296.833 367.5,294.167 367.5,291.5C 370.167,290.833 372.833,290.167 375.5,289.5C 375.5,291.5 375.5,293.5 375.5,295.5 Z"/></g>
<g><path style="opacity:1" fill="#7b7d80" d="M 545.5,291.5 C 545.843,293.483 545.176,294.817 543.5,295.5C 543.157,293.517 543.824,292.183 545.5,291.5 Z"/></g>
<g><path style="opacity:1" fill="#0e1818" d="M 375.5,295.5 C 377.176,296.183 377.843,297.517 377.5,299.5C 375.824,298.817 375.157,297.483 375.5,295.5 Z"/></g>
<g><path style="opacity:1" fill="#111515" d="M 235.5,293.5 C 234.073,301.874 232.073,309.874 229.5,317.5C 229.628,310.06 230.628,302.727 232.5,295.5C 233.265,294.388 234.265,293.721 235.5,293.5 Z"/></g>
<g><path style="opacity:1" fill="#0e1818" d="M 257.5,297.5 C 257.843,299.483 257.176,300.817 255.5,301.5C 255.157,299.517 255.824,298.183 257.5,297.5 Z"/></g>
<g><path style="opacity:1" fill="#0c1615" d="M 265.5,297.5 C 267.369,299.635 268.036,302.302 267.5,305.5C 265.631,303.365 264.964,300.698 265.5,297.5 Z"/></g>
<g><path style="opacity:1" fill="#121515" d="M 397.5,295.5 C 398.833,295.5 400.167,295.5 401.5,295.5C 401.5,298.833 401.5,302.167 401.5,305.5C 399.425,302.639 398.092,299.306 397.5,295.5 Z"/></g>
<g><path style="opacity:1" fill="#0c1515" d="M 367.5,299.5 C 368.036,302.698 367.369,305.365 365.5,307.5C 364.964,304.302 365.631,301.635 367.5,299.5 Z"/></g>
<g><path style="opacity:1" fill="#121818" d="M 377.5,299.5 C 379.176,300.183 379.843,301.517 379.5,303.5C 377.824,302.817 377.157,301.483 377.5,299.5 Z"/></g>
<g><path style="opacity:1" fill="#0e1818" d="M 255.5,301.5 C 255.843,303.483 255.176,304.817 253.5,305.5C 253.157,303.517 253.824,302.183 255.5,301.5 Z"/></g>
<g><path style="opacity:1" fill="#0c1313" d="M 379.5,303.5 C 381.308,304.918 381.975,306.918 381.5,309.5C 379.692,308.082 379.025,306.082 379.5,303.5 Z"/></g>
<g><path style="opacity:1" fill="#0e1818" d="M 253.5,305.5 C 253.843,307.483 253.176,308.817 251.5,309.5C 251.157,307.517 251.824,306.183 253.5,305.5 Z"/></g>
<g><path style="opacity:1" fill="#0b1414" d="M 267.5,305.5 C 269.423,309.029 270.089,313.029 269.5,317.5C 267.577,313.971 266.911,309.971 267.5,305.5 Z"/></g>
<g><path style="opacity:1" fill="#121616" d="M 401.5,305.5 C 403.369,307.635 404.036,310.302 403.5,313.5C 401.631,311.365 400.964,308.698 401.5,305.5 Z"/></g>
<g><path style="opacity:1" fill="#0e1313" d="M 365.5,307.5 C 366.089,311.971 365.423,315.971 363.5,319.5C 362.911,315.029 363.577,311.029 365.5,307.5 Z"/></g>
<g><path style="opacity:1" fill="#0f1515" d="M 251.5,309.5 C 251.975,312.082 251.308,314.082 249.5,315.5C 249.025,312.918 249.692,310.918 251.5,309.5 Z"/></g>
<g><path style="opacity:1" fill="#0d1716" d="M 381.5,309.5 C 383.308,310.918 383.975,312.918 383.5,315.5C 381.692,314.082 381.025,312.082 381.5,309.5 Z"/></g>
<g><path style="opacity:1" fill="#111515" d="M 403.5,313.5 C 405.402,316.337 406.069,319.671 405.5,323.5C 403.598,320.663 402.931,317.329 403.5,313.5 Z"/></g>
<g><path style="opacity:1" fill="#0f1716" d="M 383.5,315.5 C 386.036,320.31 387.37,325.644 387.5,331.5C 386.833,331.5 386.167,331.5 385.5,331.5C 384.317,326.246 383.65,320.912 383.5,315.5 Z"/></g>
<g><path style="opacity:1" fill="#0b1313" d="M 229.5,317.5 C 230.069,321.329 229.402,324.663 227.5,327.5C 226.931,323.671 227.598,320.337 229.5,317.5 Z"/></g>
<g><path style="opacity:1" fill="#0d1212" d="M 269.5,317.5 C 271.436,321.715 272.103,326.381 271.5,331.5C 270.833,331.5 270.167,331.5 269.5,331.5C 269.5,326.833 269.5,322.167 269.5,317.5 Z"/></g>
<g><path style="opacity:1" fill="#0e1313" d="M 363.5,319.5 C 363.5,324.167 363.5,328.833 363.5,333.5C 362.833,333.5 362.167,333.5 361.5,333.5C 360.897,328.381 361.564,323.715 363.5,319.5 Z"/></g>
<g><path style="opacity:1" fill="#151919" d="M 249.5,315.5 C 249.82,318.898 249.487,322.232 248.5,325.5C 247.943,327.332 246.943,328.665 245.5,329.5C 245.187,326.753 245.52,324.086 246.5,321.5C 246.964,319.025 247.964,317.025 249.5,315.5 Z"/></g>
<g><path style="opacity:1" fill="#0a1e1e" d="M 313.5,327.5 C 313.639,325.663 314.306,325.33 315.5,326.5C 315.043,327.298 314.376,327.631 313.5,327.5 Z"/></g>
<g><path style="opacity:1" fill="#0a1d1d" d="M 313.5,327.5 C 313.5,328.833 312.833,329.5 311.5,329.5C 311.5,328.167 312.167,327.5 313.5,327.5 Z"/></g>
<g><path style="opacity:1" fill="#0b1d1e" d="M 325.5,329.5 C 323.663,329.361 323.33,328.694 324.5,327.5C 325.298,327.957 325.631,328.624 325.5,329.5 Z"/></g>
<g><path style="opacity:1" fill="#0c1515" d="M 245.5,329.5 C 246.036,332.698 245.369,335.365 243.5,337.5C 242.964,334.302 243.631,331.635 245.5,329.5 Z"/></g>
<g><path style="opacity:1" fill="#0a1d1d" d="M 311.5,329.5 C 311.5,330.833 310.833,331.5 309.5,331.5C 309.5,330.167 310.167,329.5 311.5,329.5 Z"/></g>
<g><path style="opacity:1" fill="#081717" d="M 325.5,329.5 C 327.176,330.183 327.843,331.517 327.5,333.5C 325.824,332.817 325.157,331.483 325.5,329.5 Z"/></g>
<g><path style="opacity:1" fill="#33bbbb" d="M 269.5,331.5 C 270.167,331.5 270.833,331.5 271.5,331.5C 271.5,332.833 271.5,334.167 271.5,335.5C 270.833,335.5 270.167,335.5 269.5,335.5C 269.5,334.167 269.5,332.833 269.5,331.5 Z"/></g>
<g><path style="opacity:1" fill="#081212" d="M 271.5,331.5 C 273.446,336.396 274.113,341.729 273.5,347.5C 271.631,345.365 270.964,342.698 271.5,339.5C 271.5,338.167 271.5,336.833 271.5,335.5C 271.5,334.167 271.5,332.833 271.5,331.5 Z"/></g>
<g><path style="opacity:1" fill="#081717" d="M 309.5,331.5 C 309.843,333.483 309.176,334.817 307.5,335.5C 307.157,333.517 307.824,332.183 309.5,331.5 Z"/></g>
<g><path style="opacity:1" fill="#33b6b6" d="M 385.5,331.5 C 386.167,331.5 386.833,331.5 387.5,331.5C 387.5,332.167 387.5,332.833 387.5,333.5C 386.167,333.5 385.5,332.833 385.5,331.5 Z"/></g>
<g><path style="opacity:1" fill="#0a1515" d="M 387.5,331.5 C 389.369,333.635 390.036,336.302 389.5,339.5C 387.692,338.082 387.025,336.082 387.5,333.5C 387.5,332.833 387.5,332.167 387.5,331.5 Z"/></g>
<g><path style="opacity:1" fill="#35b2b2" d="M 361.5,333.5 C 362.167,333.5 362.833,333.5 363.5,333.5C 363.5,334.167 363.5,334.833 363.5,335.5C 362.833,335.5 362.167,335.5 361.5,335.5C 361.5,334.833 361.5,334.167 361.5,333.5 Z"/></g>
<g><path style="opacity:1" fill="#0b1d1e" d="M 327.5,333.5 C 328.833,333.5 329.5,334.167 329.5,335.5C 329.5,334.167 328.833,333.5 327.5,333.5 Z"/></g>
<g><path style="opacity:1" fill="#091212" d="M 361.5,333.5 C 361.5,334.167 361.5,334.833 361.5,335.5C 361.5,336.833 361.5,338.167 361.5,339.5C 362.069,343.329 361.402,346.663 359.5,349.5C 358.887,343.729 359.554,338.396 361.5,333.5 Z"/></g>
<g><path style="opacity:1" fill="#0a1010" d="M 405.5,323.5 C 407.08,325.717 408.08,328.384 408.5,331.5C 410.161,342.115 411.161,352.782 411.5,363.5C 408.416,350.594 406.416,337.261 405.5,323.5 Z"/></g>
<g><path style="opacity:1" fill="#4c5354" d="M 269.5,335.5 C 270.167,335.5 270.833,335.5 271.5,335.5C 271.5,336.833 271.5,338.167 271.5,339.5C 269.824,338.817 269.157,337.483 269.5,335.5 Z"/></g>
<g><path style="opacity:1" fill="#0a1d1d" d="M 307.5,335.5 C 307.5,336.833 306.833,337.5 305.5,337.5C 305.5,336.167 306.167,335.5 307.5,335.5 Z"/></g>
<g><path style="opacity:1" fill="#0b1d1e" d="M 329.5,335.5 C 330.833,335.5 331.5,336.167 331.5,337.5C 331.5,336.167 330.833,335.5 329.5,335.5 Z"/></g>
<g><path style="opacity:1" fill="#515758" d="M 361.5,335.5 C 362.167,335.5 362.833,335.5 363.5,335.5C 363.843,337.483 363.176,338.817 361.5,339.5C 361.5,338.167 361.5,336.833 361.5,335.5 Z"/></g>
<g><path style="opacity:1" fill="#080f0f" d="M 227.5,327.5 C 226.541,339.271 224.541,350.604 221.5,361.5C 222.004,351.463 223.004,341.463 224.5,331.5C 225.057,329.668 226.057,328.335 227.5,327.5 Z"/></g>
<g><path style="opacity:1" fill="#0a1d1d" d="M 305.5,337.5 C 305.5,338.833 304.833,339.5 303.5,339.5C 303.5,338.167 304.167,337.5 305.5,337.5 Z"/></g>
<g><path style="opacity:1" fill="#0a1d1e" d="M 331.5,337.5 C 332.833,337.5 333.5,338.167 333.5,339.5C 333.5,338.167 332.833,337.5 331.5,337.5 Z"/></g>
<g><path style="opacity:1" fill="#081717" d="M 303.5,339.5 C 303.843,341.483 303.176,342.817 301.5,343.5C 301.157,341.517 301.824,340.183 303.5,339.5 Z"/></g>
<g><path style="opacity:1" fill="#0a1d1e" d="M 317.5,341.5 C 317.639,339.663 318.306,339.33 319.5,340.5C 319.043,341.298 318.376,341.631 317.5,341.5 Z"/></g>
<g><path style="opacity:1" fill="#0a1d1e" d="M 333.5,339.5 C 334.833,339.5 335.5,340.167 335.5,341.5C 335.5,340.167 334.833,339.5 333.5,339.5 Z"/></g>
<g><path style="opacity:1" fill="#0b1515" d="M 389.5,339.5 C 391.402,342.337 392.069,345.671 391.5,349.5C 389.598,346.663 388.931,343.329 389.5,339.5 Z"/></g>
<g><path style="opacity:1" fill="#0a1d1d" d="M 317.5,341.5 C 317.5,342.833 316.833,343.5 315.5,343.5C 315.5,342.167 316.167,341.5 317.5,341.5 Z"/></g>
<g><path style="opacity:1" fill="#081616" d="M 335.5,341.5 C 337.483,341.157 338.817,341.824 339.5,343.5C 337.517,343.843 336.183,343.176 335.5,341.5 Z"/></g>
<g><path style="opacity:1" fill="#081717" d="M 301.5,343.5 C 301.843,345.483 301.176,346.817 299.5,347.5C 299.157,345.517 299.824,344.183 301.5,343.5 Z"/></g>
<g><path style="opacity:1" fill="#0a1d1d" d="M 315.5,343.5 C 315.5,344.833 314.833,345.5 313.5,345.5C 313.5,344.167 314.167,343.5 315.5,343.5 Z"/></g>
<g><path style="opacity:1" fill="#0a1d1e" d="M 325.5,345.5 C 323.663,345.361 323.33,344.694 324.5,343.5C 325.298,343.957 325.631,344.624 325.5,345.5 Z"/></g>
<g><path style="opacity:1" fill="#081616" d="M 339.5,343.5 C 341.483,343.157 342.817,343.824 343.5,345.5C 341.517,345.843 340.183,345.176 339.5,343.5 Z"/></g>
<g><path style="opacity:1" fill="#081717" d="M 313.5,345.5 C 313.843,347.483 313.176,348.817 311.5,349.5C 311.157,347.517 311.824,346.183 313.5,345.5 Z"/></g>
<g><path style="opacity:1" fill="#081817" d="M 325.5,345.5 C 327.176,346.183 327.843,347.517 327.5,349.5C 325.824,348.817 325.157,347.483 325.5,345.5 Z"/></g>
<g><path style="opacity:1" fill="#081717" d="M 343.5,345.5 C 345.483,345.157 346.817,345.824 347.5,347.5C 345.517,347.843 344.183,347.176 343.5,345.5 Z"/></g>
<g><path style="opacity:1" fill="#0a1e1e" d="M 299.5,347.5 C 299.5,348.833 298.833,349.5 297.5,349.5C 297.5,348.167 298.167,347.5 299.5,347.5 Z"/></g>
<g><path style="opacity:1" fill="#071716" d="M 347.5,347.5 C 349.483,347.157 350.817,347.824 351.5,349.5C 349.517,349.843 348.183,349.176 347.5,347.5 Z"/></g>
<g><path style="opacity:1" fill="#061515" d="M 297.5,349.5 C 296.082,351.308 294.082,351.975 291.5,351.5C 292.918,349.692 294.918,349.025 297.5,349.5 Z"/></g>
<g><path style="opacity:1" fill="#0a1e1e" d="M 311.5,349.5 C 311.5,350.833 310.833,351.5 309.5,351.5C 309.5,350.167 310.167,349.5 311.5,349.5 Z"/></g>
<g><path style="opacity:1" fill="#0a1e1e" d="M 327.5,349.5 C 328.833,349.5 329.5,350.167 329.5,351.5C 329.5,350.167 328.833,349.5 327.5,349.5 Z"/></g>
<g><path style="opacity:1" fill="#0a1e1e" d="M 351.5,349.5 C 353.337,349.639 353.67,350.306 352.5,351.5C 351.702,351.043 351.369,350.376 351.5,349.5 Z"/></g>
<g><path style="opacity:1" fill="#0e1313" d="M 359.5,349.5 C 360.069,353.329 359.402,356.663 357.5,359.5C 356.931,355.671 357.598,352.337 359.5,349.5 Z"/></g>
<g><path style="opacity:1" fill="#061515" d="M 291.5,351.5 C 290.082,353.308 288.082,353.975 285.5,353.5C 286.918,351.692 288.918,351.025 291.5,351.5 Z"/></g>
<g><path style="opacity:1" fill="#0a1e1e" d="M 309.5,351.5 C 309.5,352.833 308.833,353.5 307.5,353.5C 307.5,352.167 308.167,351.5 309.5,351.5 Z"/></g>
<g><path style="opacity:1" fill="#0a1e1e" d="M 329.5,351.5 C 330.833,351.5 331.5,352.167 331.5,353.5C 331.5,352.167 330.833,351.5 329.5,351.5 Z"/></g>
<g><path style="opacity:1" fill="#071716" d="M 285.5,353.5 C 285.38,354.586 284.713,355.253 283.5,355.5C 282.833,355.167 282.167,354.833 281.5,354.5C 282.689,353.571 284.022,353.238 285.5,353.5 Z"/></g>
<g><path style="opacity:1" fill="#0a1e1e" d="M 307.5,353.5 C 307.5,354.833 306.833,355.5 305.5,355.5C 305.5,354.167 306.167,353.5 307.5,353.5 Z"/></g>
<g><path style="opacity:1" fill="#0a1e1e" d="M 331.5,353.5 C 332.833,353.5 333.5,354.167 333.5,355.5C 333.5,354.167 332.833,353.5 331.5,353.5 Z"/></g>
<g><path style="opacity:1" fill="#0a1d1d" d="M 305.5,355.5 C 305.5,356.833 304.833,357.5 303.5,357.5C 303.5,356.167 304.167,355.5 305.5,355.5 Z"/></g>
<g><path style="opacity:1" fill="#0a1e1e" d="M 333.5,355.5 C 334.833,355.5 335.5,356.167 335.5,357.5C 335.5,356.167 334.833,355.5 333.5,355.5 Z"/></g>
<g><path style="opacity:1" fill="#0a1d1d" d="M 303.5,357.5 C 303.5,358.833 302.833,359.5 301.5,359.5C 301.5,358.167 302.167,357.5 303.5,357.5 Z"/></g>
<g><path style="opacity:1" fill="#071716" d="M 335.5,357.5 C 337.483,357.157 338.817,357.824 339.5,359.5C 337.517,359.843 336.183,359.176 335.5,357.5 Z"/></g>
<g><path style="opacity:1" fill="#101515" d="M 243.5,337.5 C 242.541,349.271 240.541,360.604 237.5,371.5C 237.655,362.747 238.655,354.08 240.5,345.5C 240.92,342.384 241.92,339.717 243.5,337.5 Z"/></g>
<g><path style="opacity:1" fill="#101515" d="M 273.5,347.5 C 275.481,360.458 276.148,373.791 275.5,387.5C 273.519,374.542 272.852,361.209 273.5,347.5 Z"/></g>
<g><path style="opacity:1" fill="#0a1d1d" d="M 301.5,359.5 C 301.5,360.833 300.833,361.5 299.5,361.5C 299.5,360.167 300.167,359.5 301.5,359.5 Z"/></g>
<g><path style="opacity:1" fill="#071716" d="M 339.5,359.5 C 341.483,359.157 342.817,359.824 343.5,361.5C 341.517,361.843 340.183,361.176 339.5,359.5 Z"/></g>
<g><path style="opacity:1" fill="#091b1a" d="M 299.5,361.5 C 298.082,363.308 296.082,363.975 293.5,363.5C 294.918,361.692 296.918,361.025 299.5,361.5 Z"/></g>
<g><path style="opacity:1" fill="#0d1313" d="M 391.5,349.5 C 393.08,351.717 394.08,354.384 394.5,357.5C 395.491,361.445 395.824,365.445 395.5,369.5C 392.931,363.323 391.598,356.656 391.5,349.5 Z"/></g>
<g><path style="opacity:1" fill="#071716" d="M 343.5,361.5 C 345.483,361.157 346.817,361.824 347.5,363.5C 345.517,363.843 344.183,363.176 343.5,361.5 Z"/></g>
<g><path style="opacity:1" fill="#0e1212" d="M 357.5,361.5 C 358.832,370.141 359.498,379.141 359.5,388.5C 359.498,397.859 358.832,406.859 357.5,415.5C 357.5,397.5 357.5,379.5 357.5,361.5 Z"/></g>
<g><path style="opacity:1" fill="#091b1a" d="M 293.5,363.5 C 293.03,364.693 292.03,365.36 290.5,365.5C 289.5,365.167 288.5,364.833 287.5,364.5C 289.396,363.534 291.396,363.201 293.5,363.5 Z"/></g>
<g><path style="opacity:1" fill="#0a1e1e" d="M 347.5,363.5 C 349.337,363.639 349.67,364.306 348.5,365.5C 347.702,365.043 347.369,364.376 347.5,363.5 Z"/></g>
<g><path style="opacity:1" fill="#0c1515" d="M 395.5,369.5 C 397.369,371.635 398.036,374.302 397.5,377.5C 395.631,375.365 394.964,372.698 395.5,369.5 Z"/></g>
<g><path style="opacity:1" fill="#0b1313" d="M 237.5,371.5 C 238.113,377.271 237.446,382.604 235.5,387.5C 234.887,381.729 235.554,376.396 237.5,371.5 Z"/></g>
<g><path style="opacity:1" fill="#0b1414" d="M 397.5,377.5 C 399.402,380.337 400.069,383.671 399.5,387.5C 398.833,387.5 398.167,387.5 397.5,387.5C 397.5,384.167 397.5,380.833 397.5,377.5 Z"/></g>
<g><path style="opacity:1" fill="#32b5b5" d="M 397.5,387.5 C 398.167,387.5 398.833,387.5 399.5,387.5C 399.5,388.833 398.833,389.5 397.5,389.5C 397.5,388.833 397.5,388.167 397.5,387.5 Z"/></g>
<g><path style="opacity:1" fill="#5d5e60" d="M 497.5,397.5 C 497.5,398.833 496.833,399.5 495.5,399.5C 495.5,398.167 496.167,397.5 497.5,397.5 Z"/></g>
<g><path style="opacity:1" fill="#0b1111" d="M 221.5,361.5 C 221.5,378.833 221.5,396.167 221.5,413.5C 224.833,413.5 228.167,413.5 231.5,413.5C 231.169,405.472 231.502,397.472 232.5,389.5C 233.265,388.388 234.265,387.721 235.5,387.5C 234.041,396.761 233.374,406.094 233.5,415.5C 228.833,415.5 224.167,415.5 219.5,415.5C 218.847,397.136 219.513,379.136 221.5,361.5 Z"/></g>
<g><path style="opacity:1" fill="#0b1111" d="M 411.5,363.5 C 412.943,364.335 413.943,365.668 414.5,367.5C 415.499,383.486 415.833,399.486 415.5,415.5C 410.167,415.5 404.833,415.5 399.5,415.5C 400.039,406.637 399.372,397.97 397.5,389.5C 398.833,389.5 399.5,388.833 399.5,387.5C 401.47,395.769 402.136,404.435 401.5,413.5C 405.5,413.5 409.5,413.5 413.5,413.5C 413.909,396.766 413.243,380.099 411.5,363.5 Z"/></g>
<g><path style="opacity:1" fill="#091212" d="M 275.5,387.5 C 277.472,396.44 278.139,405.773 277.5,415.5C 304.167,415.5 330.833,415.5 357.5,415.5C 330.52,417.491 303.187,418.158 275.5,417.5C 275.5,407.5 275.5,397.5 275.5,387.5 Z"/></g>
<g><path style="opacity:1" fill="#010101" d="M 193.5,433.5 C 276.169,433.167 358.836,433.5 441.5,434.5C 442.415,435.328 443.081,436.328 443.5,437.5C 441.613,446.7 440.946,456.034 441.5,465.5C 358.833,465.5 276.167,465.5 193.5,465.5C 193.5,454.833 193.5,444.167 193.5,433.5 Z"/></g>
</svg>
