<?xml version="1.0" encoding="UTF-8"?>
<!DOCTYPE svg PUBLIC "-//W3C//DTD SVG 1.1//EN" "http://www.w3.org/Graphics/SVG/1.1/DTD/svg11.dtd">
<svg xmlns="http://www.w3.org/2000/svg" version="1.1" width="633px" height="514px" style="shape-rendering:geometricPrecision; text-rendering:geometricPrecision; image-rendering:optimizeQuality; fill-rule:evenodd; clip-rule:evenodd" xmlns:xlink="http://www.w3.org/1999/xlink">
<g><path style="opacity:1" fill="#dde1e5" d="M -0.5,-0.5 C 210.5,-0.5 421.5,-0.5 632.5,-0.5C 632.5,170.833 632.5,342.167 632.5,513.5C 421.5,513.5 210.5,513.5 -0.5,513.5C -0.5,342.167 -0.5,170.833 -0.5,-0.5 Z"/></g>
<g><path style="opacity:1" fill="#090d0d" d="M 297.5,19.5 C 359.913,16.0931 415.913,33.0931 465.5,70.5C 469.167,74.1667 472.833,77.8333 476.5,81.5C 477.833,84.1667 477.833,86.8333 476.5,89.5C 468.762,96.5676 461.762,104.234 455.5,112.5C 453.604,113.466 451.604,113.799 449.5,113.5C 449.672,111.508 449.005,109.842 447.5,108.5C 386,56.604 317.333,44.604 241.5,72.5C 221.091,81.0272 203.091,93.0272 187.5,108.5C 184.833,109.833 182.167,109.833 179.5,108.5C 173.167,102.167 166.833,95.8333 160.5,89.5C 159.167,86.1667 159.167,82.8333 160.5,79.5C 184.941,56.7682 213.274,40.4348 245.5,30.5C 262.886,25.7257 280.219,22.059 297.5,19.5 Z"/></g>
<g><path style="opacity:1" fill="#32c9c9" d="M 297.5,25.5 C 359.318,22.2228 414.652,39.2228 463.5,76.5C 466.538,79.2026 469.205,82.2026 471.5,85.5C 465.532,92.4692 459.199,99.1359 452.5,105.5C 408.683,65.5592 357.016,47.8926 297.5,52.5C 265.794,55.7347 236.461,65.7347 209.5,82.5C 202.833,87.8333 196.167,93.1667 189.5,98.5C 187.5,99.5 185.5,100.5 183.5,101.5C 176.833,96.1667 170.833,90.1667 165.5,83.5C 167.126,80.8723 169.126,78.539 171.5,76.5C 196.268,57.7812 223.601,43.7812 253.5,34.5C 268.311,30.8196 282.977,27.8196 297.5,25.5 Z"/></g>
<g><path style="opacity:1" fill="#060909" d="M 145.5,91.5 C 150.005,92.3313 153.005,94.9979 154.5,99.5C 161.25,106.587 168.25,113.254 175.5,119.5C 130.513,170.101 114.846,228.768 128.5,295.5C 136.765,330.374 153.098,360.707 177.5,386.5C 167.231,394.766 157.565,403.766 148.5,413.5C 93.1414,354.775 72.4748,285.441 86.5,205.5C 94.4862,164.858 112.486,129.524 140.5,99.5C 141.824,96.5322 143.491,93.8655 145.5,91.5 Z"/></g>
<g><path style="opacity:1" fill="#010101" d="M 485.5,95.5 C 489.011,96.6443 492.344,98.311 495.5,100.5C 529.201,137.549 548.201,181.216 552.5,231.5C 557.392,302.176 535.392,362.843 486.5,413.5C 485.167,410.833 483.833,408.167 482.5,405.5C 475.833,398.833 469.167,392.167 462.5,385.5C 461.167,382.833 461.167,380.167 462.5,377.5C 498.494,335.573 513.828,286.907 508.5,231.5C 504.327,189.502 487.993,153.169 459.5,122.5C 466.833,115.167 474.167,107.833 481.5,100.5C 482.689,99.5713 484.022,99.238 485.5,99.5C 485.5,98.1667 485.5,96.8333 485.5,95.5 Z"/></g>
<g><path style="opacity:1" fill="#32caca" d="M 145.5,101.5 C 146.978,101.238 148.311,101.571 149.5,102.5C 155.961,107.955 161.294,114.288 165.5,121.5C 126.221,169.261 111.221,223.928 120.5,285.5C 125.696,314.434 136.362,341.101 152.5,365.5C 157.885,371.884 162.885,378.55 167.5,385.5C 162.167,392.167 156.167,398.167 149.5,403.5C 142.126,397.794 135.793,391.127 130.5,383.5C 85.763,317.609 76.4297,246.942 102.5,171.5C 112.817,145.501 127.15,122.168 145.5,101.5 Z"/></g>
<g><path style="opacity:1" fill="#33caca" d="M 223.5,207.5 C 221.517,207.157 220.183,207.824 219.5,209.5C 217.517,209.157 216.183,209.824 215.5,211.5C 213.517,211.157 212.183,211.824 211.5,213.5C 210.206,215.048 209.539,217.048 209.5,219.5C 212.184,232.237 215.184,244.904 218.5,257.5C 219.842,259.005 221.508,259.672 223.5,259.5C 224.183,261.176 225.517,261.843 227.5,261.5C 228.918,263.308 230.918,263.975 233.5,263.5C 234.183,265.176 235.517,265.843 237.5,265.5C 238.183,267.176 239.517,267.843 241.5,267.5C 241.5,268.833 242.167,269.5 243.5,269.5C 244.183,271.176 245.517,271.843 247.5,271.5C 247.5,272.833 248.167,273.5 249.5,273.5C 250.183,275.176 251.517,275.843 253.5,275.5C 253.5,276.833 254.167,277.5 255.5,277.5C 255.5,278.833 256.167,279.5 257.5,279.5C 257.157,281.483 257.824,282.817 259.5,283.5C 259.5,284.833 260.167,285.5 261.5,285.5C 261.5,286.833 262.167,287.5 263.5,287.5C 263.157,289.483 263.824,290.817 265.5,291.5C 265.157,293.483 265.824,294.817 267.5,295.5C 267.157,297.483 267.824,298.817 269.5,299.5C 269.5,300.833 270.167,301.5 271.5,301.5C 272.694,302.777 274.36,303.444 276.5,303.5C 278.64,303.444 280.306,302.777 281.5,301.5C 301.493,300.667 321.493,300 341.5,299.5C 345.445,300.825 349.778,301.492 354.5,301.5C 359.222,301.492 363.555,300.825 367.5,299.5C 369.176,298.817 369.843,297.483 369.5,295.5C 371.303,293.919 372.636,291.919 373.5,289.5C 376.884,286.09 379.551,282.09 381.5,277.5C 382.833,277.5 383.5,276.833 383.5,275.5C 384.833,275.5 385.5,274.833 385.5,273.5C 387.483,273.843 388.817,273.176 389.5,271.5C 390.833,271.5 391.5,270.833 391.5,269.5C 393.483,269.843 394.817,269.176 395.5,267.5C 397.604,267.799 399.604,267.466 401.5,266.5C 405.129,264.986 408.462,263.32 411.5,261.5C 412.833,261.5 414.167,261.5 415.5,261.5C 415.5,260.167 415.5,258.833 415.5,257.5C 417.369,255.365 418.036,252.698 417.5,249.5C 419.308,248.082 419.975,246.082 419.5,243.5C 421.369,241.365 422.036,238.698 421.5,235.5C 423.308,234.082 423.975,232.082 423.5,229.5C 425.369,227.365 426.036,224.698 425.5,221.5C 426.586,221.38 427.253,220.713 427.5,219.5C 426.491,216.663 424.491,215.33 421.5,215.5C 421.5,214.167 421.5,212.833 421.5,211.5C 420.167,211.5 418.833,211.5 417.5,211.5C 416.817,209.824 415.483,209.157 413.5,209.5C 412.817,207.824 411.483,207.157 409.5,207.5C 409.5,203.5 409.5,199.5 409.5,195.5C 415.537,195.171 421.537,195.504 427.5,196.5C 429.42,199.339 431.087,202.339 432.5,205.5C 433.265,206.612 434.265,207.279 435.5,207.5C 435.157,209.483 435.824,210.817 437.5,211.5C 437.157,213.483 437.824,214.817 439.5,215.5C 439.5,228.833 439.5,242.167 439.5,255.5C 439.5,256.167 439.5,256.833 439.5,257.5C 439.5,258.833 439.5,260.167 439.5,261.5C 437.153,263.527 435.819,266.194 435.5,269.5C 433.824,270.183 433.157,271.517 433.5,273.5C 431.824,274.183 431.157,275.517 431.5,277.5C 429.692,278.918 429.025,280.918 429.5,283.5C 427.153,285.527 425.819,288.194 425.5,291.5C 423.824,292.183 423.157,293.517 423.5,295.5C 421.824,296.183 421.157,297.517 421.5,299.5C 420.167,299.5 419.5,300.167 419.5,301.5C 417.824,302.183 417.157,303.517 417.5,305.5C 416.167,305.5 415.5,306.167 415.5,307.5C 414.167,307.5 413.5,308.167 413.5,309.5C 412.167,309.5 411.5,310.167 411.5,311.5C 410.167,311.5 409.5,312.167 409.5,313.5C 408.167,313.5 407.5,314.167 407.5,315.5C 406.167,315.5 405.5,316.167 405.5,317.5C 401.764,315.153 399.764,316.486 399.5,321.5C 396.446,321.354 394.446,322.687 393.5,325.5C 391.517,325.157 390.183,325.824 389.5,327.5C 387.517,327.157 386.183,327.824 385.5,329.5C 381.314,330.589 377.314,332.256 373.5,334.5C 372.388,335.265 371.721,336.265 371.5,337.5C 369.508,337.328 367.842,337.995 366.5,339.5C 365.176,344.125 364.176,348.792 363.5,353.5C 361.692,354.918 361.025,356.918 361.5,359.5C 359.692,360.918 359.025,362.918 359.5,365.5C 357.692,366.918 357.025,368.918 357.5,371.5C 355.692,372.918 355.025,374.918 355.5,377.5C 353.824,378.183 353.157,379.517 353.5,381.5C 351.692,382.918 351.025,384.918 351.5,387.5C 349.824,388.183 349.157,389.517 349.5,391.5C 349.5,392.167 349.5,392.833 349.5,393.5C 349.157,395.483 349.824,396.817 351.5,397.5C 350.964,400.698 351.631,403.365 353.5,405.5C 353.025,408.082 353.692,410.082 355.5,411.5C 355.5,412.833 355.5,414.167 355.5,415.5C 330.833,415.5 306.167,415.5 281.5,415.5C 281.5,414.167 281.5,412.833 281.5,411.5C 283.369,409.365 284.036,406.698 283.5,403.5C 284.693,403.03 285.36,402.03 285.5,400.5C 285.36,398.97 284.693,397.97 283.5,397.5C 283.5,396.833 283.5,396.167 283.5,395.5C 284.693,395.03 285.36,394.03 285.5,392.5C 285.36,390.97 284.693,389.97 283.5,389.5C 283.975,386.918 283.308,384.918 281.5,383.5C 281.975,380.918 281.308,378.918 279.5,377.5C 279.975,374.918 279.308,372.918 277.5,371.5C 277.975,368.918 277.308,366.918 275.5,365.5C 275.975,362.918 275.308,360.918 273.5,359.5C 273.975,356.918 273.308,354.918 271.5,353.5C 271.975,350.918 271.308,348.918 269.5,347.5C 269.975,344.918 269.308,342.918 267.5,341.5C 267.843,339.517 267.176,338.183 265.5,337.5C 264.817,335.824 263.483,335.157 261.5,335.5C 261.5,334.167 260.833,333.5 259.5,333.5C 258.833,333.5 258.167,333.5 257.5,333.5C 256.817,331.824 255.483,331.157 253.5,331.5C 253.5,330.167 252.833,329.5 251.5,329.5C 250.817,327.824 249.483,327.157 247.5,327.5C 246.554,324.687 244.554,323.354 241.5,323.5C 240.833,321.5 239.5,320.167 237.5,319.5C 236.817,317.824 235.483,317.157 233.5,317.5C 233.5,316.167 232.833,315.5 231.5,315.5C 230.817,313.824 229.483,313.157 227.5,313.5C 227.5,312.167 226.833,311.5 225.5,311.5C 225.5,310.167 224.833,309.5 223.5,309.5C 222.817,307.824 221.483,307.157 219.5,307.5C 219.646,304.446 218.313,302.446 215.5,301.5C 215.5,300.167 214.833,299.5 213.5,299.5C 212.833,299.5 212.167,299.5 211.5,299.5C 212.042,295.741 210.708,293.074 207.5,291.5C 207.975,288.918 207.308,286.918 205.5,285.5C 204.35,278.677 201.684,272.677 197.5,267.5C 197.843,265.517 197.176,264.183 195.5,263.5C 195.5,248.167 195.5,232.833 195.5,217.5C 197.176,216.817 197.843,215.483 197.5,213.5C 199.176,212.817 199.843,211.483 199.5,209.5C 201.176,208.817 201.843,207.483 201.5,205.5C 203.176,204.817 203.843,203.483 203.5,201.5C 205.176,200.817 205.843,199.483 205.5,197.5C 212.628,195.655 219.961,194.988 227.5,195.5C 227.5,198.833 227.5,202.167 227.5,205.5C 225.517,205.157 224.183,205.824 223.5,207.5 Z"/></g>
<g><path style="opacity:1" fill="#151818" d="M 435.5,207.5 C 434.265,207.279 433.265,206.612 432.5,205.5C 431.087,202.339 429.42,199.339 427.5,196.5C 421.537,195.504 415.537,195.171 409.5,195.5C 409.5,199.5 409.5,203.5 409.5,207.5C 407.564,203.285 406.897,198.619 407.5,193.5C 414.863,193.169 422.197,193.503 429.5,194.5C 432.328,198.487 434.328,202.82 435.5,207.5 Z"/></g>
<g><path style="opacity:1" fill="#161a1a" d="M 205.5,197.5 C 205.843,199.483 205.176,200.817 203.5,201.5C 203.157,199.517 203.824,198.183 205.5,197.5 Z"/></g>
<g><path style="opacity:1" fill="#161a1a" d="M 203.5,201.5 C 203.843,203.483 203.176,204.817 201.5,205.5C 201.157,203.517 201.824,202.183 203.5,201.5 Z"/></g>
<g><path style="opacity:1" fill="#131617" d="M 223.5,207.5 C 224.183,205.824 225.517,205.157 227.5,205.5C 227.5,202.167 227.5,198.833 227.5,195.5C 219.961,194.988 212.628,195.655 205.5,197.5C 205.5,196.167 205.5,194.833 205.5,193.5C 213.5,193.5 221.5,193.5 229.5,193.5C 229.5,198.167 229.5,202.833 229.5,207.5C 227.5,207.5 225.5,207.5 223.5,207.5 Z"/></g>
<g><path style="opacity:1" fill="#161a1a" d="M 201.5,205.5 C 201.843,207.483 201.176,208.817 199.5,209.5C 199.157,207.517 199.824,206.183 201.5,205.5 Z"/></g>
<g><path style="opacity:1" fill="#0b1716" d="M 223.5,207.5 C 222.817,209.176 221.483,209.843 219.5,209.5C 220.183,207.824 221.517,207.157 223.5,207.5 Z"/></g>
<g><path style="opacity:1" fill="#0d1818" d="M 409.5,207.5 C 411.483,207.157 412.817,207.824 413.5,209.5C 411.517,209.843 410.183,209.176 409.5,207.5 Z"/></g>
<g><path style="opacity:1" fill="#171919" d="M 435.5,207.5 C 437.176,208.183 437.843,209.517 437.5,211.5C 435.824,210.817 435.157,209.483 435.5,207.5 Z"/></g>
<g><path style="opacity:1" fill="#161a1a" d="M 199.5,209.5 C 199.843,211.483 199.176,212.817 197.5,213.5C 197.157,211.517 197.824,210.183 199.5,209.5 Z"/></g>
<g><path style="opacity:1" fill="#0b1717" d="M 219.5,209.5 C 218.817,211.176 217.483,211.843 215.5,211.5C 216.183,209.824 217.517,209.157 219.5,209.5 Z"/></g>
<g><path style="opacity:1" fill="#0d1818" d="M 413.5,209.5 C 415.483,209.157 416.817,209.824 417.5,211.5C 415.517,211.843 414.183,211.176 413.5,209.5 Z"/></g>
<g><path style="opacity:1" fill="#0d1717" d="M 215.5,211.5 C 214.817,213.176 213.483,213.843 211.5,213.5C 212.183,211.824 213.517,211.157 215.5,211.5 Z"/></g>
<g><path style="opacity:1" fill="#171919" d="M 437.5,211.5 C 439.176,212.183 439.843,213.517 439.5,215.5C 437.824,214.817 437.157,213.483 437.5,211.5 Z"/></g>
<g><path style="opacity:1" fill="#1c2425" d="M 417.5,211.5 C 418.833,211.5 420.167,211.5 421.5,211.5C 421.5,212.833 421.5,214.167 421.5,215.5C 419.5,214.833 418.167,213.5 417.5,211.5 Z"/></g>
<g><path style="opacity:1" fill="#161a1a" d="M 197.5,213.5 C 197.843,215.483 197.176,216.817 195.5,217.5C 195.157,215.517 195.824,214.183 197.5,213.5 Z"/></g>
<g><path style="opacity:1" fill="#0a1111" d="M 439.5,215.5 C 440.83,221.798 441.497,228.465 441.5,235.5C 441.497,242.535 440.83,249.202 439.5,255.5C 439.5,242.167 439.5,228.833 439.5,215.5 Z"/></g>
<g><path style="opacity:1" fill="#091111" d="M 195.5,217.5 C 195.5,232.833 195.5,248.167 195.5,263.5C 194.169,256.197 193.502,248.53 193.5,240.5C 193.502,232.47 194.169,224.803 195.5,217.5 Z"/></g>
<g><path style="opacity:1" fill="#121b1b" d="M 421.5,215.5 C 424.491,215.33 426.491,216.663 427.5,219.5C 427.253,220.713 426.586,221.38 425.5,221.5C 424.167,219.5 422.833,217.5 421.5,215.5 Z"/></g>
<g><path style="opacity:1" fill="#151616" d="M 325.5,221.5 C 320.167,221.5 314.833,221.5 309.5,221.5C 311.743,220.188 314.41,219.522 317.5,219.5C 320.59,219.522 323.257,220.188 325.5,221.5 Z"/></g>
<g><path style="opacity:1" fill="#151718" d="M 309.5,221.5 C 308.082,223.308 306.082,223.975 303.5,223.5C 304.918,221.692 306.918,221.025 309.5,221.5 Z"/></g>
<g><path style="opacity:1" fill="#32caca" d="M 309.5,221.5 C 314.833,221.5 320.167,221.5 325.5,221.5C 326.918,223.308 328.918,223.975 331.5,223.5C 332.183,225.176 333.517,225.843 335.5,225.5C 335.5,226.833 336.167,227.5 337.5,227.5C 337.5,228.833 338.167,229.5 339.5,229.5C 339.5,230.833 340.167,231.5 341.5,231.5C 341.5,232.833 342.167,233.5 343.5,233.5C 343.5,234.833 344.167,235.5 345.5,235.5C 345.157,237.483 345.824,238.817 347.5,239.5C 347.025,242.082 347.692,244.082 349.5,245.5C 349.5,250.167 349.5,254.833 349.5,259.5C 347.692,260.918 347.025,262.918 347.5,265.5C 345.824,266.183 345.157,267.517 345.5,269.5C 344.167,269.5 343.5,270.167 343.5,271.5C 342.167,271.5 341.5,272.167 341.5,273.5C 340.167,273.5 339.5,274.167 339.5,275.5C 338.167,275.5 337.5,276.167 337.5,277.5C 336.167,277.5 335.5,278.167 335.5,279.5C 329.715,281.647 323.715,282.98 317.5,283.5C 311.285,282.98 305.285,281.647 299.5,279.5C 299.5,278.167 298.833,277.5 297.5,277.5C 297.5,276.167 296.833,275.5 295.5,275.5C 295.5,274.167 294.833,273.5 293.5,273.5C 293.5,272.167 292.833,271.5 291.5,271.5C 291.5,270.167 290.833,269.5 289.5,269.5C 289.843,267.517 289.176,266.183 287.5,265.5C 286.086,258.928 285.419,252.261 285.5,245.5C 287.308,244.082 287.975,242.082 287.5,239.5C 289.176,238.817 289.843,237.483 289.5,235.5C 290.833,235.5 291.5,234.833 291.5,233.5C 292.833,233.5 293.5,232.833 293.5,231.5C 294.833,231.5 295.5,230.833 295.5,229.5C 296.833,229.5 297.5,228.833 297.5,227.5C 298.833,227.5 299.5,226.833 299.5,225.5C 301.483,225.843 302.817,225.176 303.5,223.5C 306.082,223.975 308.082,223.308 309.5,221.5 Z"/></g>
<g><path style="opacity:1" fill="#151818" d="M 325.5,221.5 C 328.082,221.025 330.082,221.692 331.5,223.5C 328.918,223.975 326.918,223.308 325.5,221.5 Z"/></g>
<g><path style="opacity:1" fill="#121616" d="M 425.5,221.5 C 426.036,224.698 425.369,227.365 423.5,229.5C 422.964,226.302 423.631,223.635 425.5,221.5 Z"/></g>
<g><path style="opacity:1" fill="#161919" d="M 303.5,223.5 C 302.817,225.176 301.483,225.843 299.5,225.5C 300.183,223.824 301.517,223.157 303.5,223.5 Z"/></g>
<g><path style="opacity:1" fill="#161919" d="M 331.5,223.5 C 333.483,223.157 334.817,223.824 335.5,225.5C 333.517,225.843 332.183,225.176 331.5,223.5 Z"/></g>
<g><path style="opacity:1" fill="#181e1f" d="M 299.5,225.5 C 299.5,226.833 298.833,227.5 297.5,227.5C 297.5,226.167 298.167,225.5 299.5,225.5 Z"/></g>
<g><path style="opacity:1" fill="#1c1f20" d="M 335.5,225.5 C 336.833,225.5 337.5,226.167 337.5,227.5C 337.5,226.167 336.833,225.5 335.5,225.5 Z"/></g>
<g><path style="opacity:1" fill="#181e1f" d="M 297.5,227.5 C 297.5,228.833 296.833,229.5 295.5,229.5C 295.5,228.167 296.167,227.5 297.5,227.5 Z"/></g>
<g><path style="opacity:1" fill="#1b1f20" d="M 337.5,227.5 C 338.833,227.5 339.5,228.167 339.5,229.5C 339.5,228.167 338.833,227.5 337.5,227.5 Z"/></g>
<g><path style="opacity:1" fill="#181e1f" d="M 295.5,229.5 C 295.5,230.833 294.833,231.5 293.5,231.5C 293.5,230.167 294.167,229.5 295.5,229.5 Z"/></g>
<g><path style="opacity:1" fill="#1b1f20" d="M 339.5,229.5 C 340.833,229.5 341.5,230.167 341.5,231.5C 341.5,230.167 340.833,229.5 339.5,229.5 Z"/></g>
<g><path style="opacity:1" fill="#0d1414" d="M 423.5,229.5 C 423.975,232.082 423.308,234.082 421.5,235.5C 421.025,232.918 421.692,230.918 423.5,229.5 Z"/></g>
<g><path style="opacity:1" fill="#151818" d="M 211.5,213.5 C 213.541,227.669 216.541,241.669 220.5,255.5C 221.934,256.588 222.934,257.922 223.5,259.5C 221.508,259.672 219.842,259.005 218.5,257.5C 215.184,244.904 212.184,232.237 209.5,219.5C 209.539,217.048 210.206,215.048 211.5,213.5 Z"/></g>
<g><path style="opacity:1" fill="#181f1f" d="M 293.5,231.5 C 293.5,232.833 292.833,233.5 291.5,233.5C 291.5,232.167 292.167,231.5 293.5,231.5 Z"/></g>
<g><path style="opacity:1" fill="#1c2020" d="M 341.5,231.5 C 342.833,231.5 343.5,232.167 343.5,233.5C 343.5,232.167 342.833,231.5 341.5,231.5 Z"/></g>
<g><path style="opacity:1" fill="#181f1f" d="M 291.5,233.5 C 291.5,234.833 290.833,235.5 289.5,235.5C 289.5,234.167 290.167,233.5 291.5,233.5 Z"/></g>
<g><path style="opacity:1" fill="#1c2020" d="M 343.5,233.5 C 344.833,233.5 345.5,234.167 345.5,235.5C 345.5,234.167 344.833,233.5 343.5,233.5 Z"/></g>
<g><path style="opacity:1" fill="#161a1a" d="M 289.5,235.5 C 289.843,237.483 289.176,238.817 287.5,239.5C 287.157,237.517 287.824,236.183 289.5,235.5 Z"/></g>
<g><path style="opacity:1" fill="#161a1a" d="M 345.5,235.5 C 347.176,236.183 347.843,237.517 347.5,239.5C 345.824,238.817 345.157,237.483 345.5,235.5 Z"/></g>
<g><path style="opacity:1" fill="#131616" d="M 421.5,235.5 C 422.036,238.698 421.369,241.365 419.5,243.5C 418.964,240.302 419.631,237.635 421.5,235.5 Z"/></g>
<g><path style="opacity:1" fill="#0d1414" d="M 287.5,239.5 C 287.975,242.082 287.308,244.082 285.5,245.5C 285.025,242.918 285.692,240.918 287.5,239.5 Z"/></g>
<g><path style="opacity:1" fill="#141818" d="M 347.5,239.5 C 349.308,240.918 349.975,242.918 349.5,245.5C 347.692,244.082 347.025,242.082 347.5,239.5 Z"/></g>
<g><path style="opacity:1" fill="#0d1414" d="M 419.5,243.5 C 419.975,246.082 419.308,248.082 417.5,249.5C 417.025,246.918 417.692,244.918 419.5,243.5 Z"/></g>
<g><path style="opacity:1" fill="#0b1212" d="M 285.5,245.5 C 285.419,252.261 286.086,258.928 287.5,265.5C 286.057,264.665 285.057,263.332 284.5,261.5C 284.167,258.833 283.833,256.167 283.5,253.5C 283.522,250.41 284.188,247.743 285.5,245.5 Z"/></g>
<g><path style="opacity:1" fill="#111515" d="M 349.5,245.5 C 350.805,247.397 351.471,249.731 351.5,252.5C 351.471,255.269 350.805,257.603 349.5,259.5C 349.5,254.833 349.5,250.167 349.5,245.5 Z"/></g>
<g><path style="opacity:1" fill="#121616" d="M 417.5,249.5 C 418.036,252.698 417.369,255.365 415.5,257.5C 414.964,254.302 415.631,251.635 417.5,249.5 Z"/></g>
<g><path style="opacity:1" fill="#131717" d="M 439.5,257.5 C 440.586,257.62 441.253,258.287 441.5,259.5C 441.253,260.713 440.586,261.38 439.5,261.5C 439.5,260.167 439.5,258.833 439.5,257.5 Z"/></g>
<g><path style="opacity:1" fill="#121515" d="M 415.5,257.5 C 415.5,258.833 415.5,260.167 415.5,261.5C 414.167,261.5 412.833,261.5 411.5,261.5C 412.167,259.5 413.5,258.167 415.5,257.5 Z"/></g>
<g><path style="opacity:1" fill="#161919" d="M 223.5,259.5 C 225.483,259.157 226.817,259.824 227.5,261.5C 225.517,261.843 224.183,261.176 223.5,259.5 Z"/></g>
<g><path style="opacity:1" fill="#0f1515" d="M 349.5,259.5 C 349.975,262.082 349.308,264.082 347.5,265.5C 347.025,262.918 347.692,260.918 349.5,259.5 Z"/></g>
<g><path style="opacity:1" fill="#151718" d="M 227.5,261.5 C 230.082,261.025 232.082,261.692 233.5,263.5C 230.918,263.975 228.918,263.308 227.5,261.5 Z"/></g>
<g><path style="opacity:1" fill="#0e1919" d="M 195.5,263.5 C 197.176,264.183 197.843,265.517 197.5,267.5C 195.824,266.817 195.157,265.483 195.5,263.5 Z"/></g>
<g><path style="opacity:1" fill="#161919" d="M 233.5,263.5 C 235.483,263.157 236.817,263.824 237.5,265.5C 235.517,265.843 234.183,265.176 233.5,263.5 Z"/></g>
<g><path style="opacity:1" fill="#181a1a" d="M 411.5,261.5 C 408.462,263.32 405.129,264.986 401.5,266.5C 399.604,267.466 397.604,267.799 395.5,267.5C 399.869,263.33 405.202,261.33 411.5,261.5 Z"/></g>
<g><path style="opacity:1" fill="#161919" d="M 237.5,265.5 C 239.483,265.157 240.817,265.824 241.5,267.5C 239.517,267.843 238.183,267.176 237.5,265.5 Z"/></g>
<g><path style="opacity:1" fill="#0e1919" d="M 287.5,265.5 C 289.176,266.183 289.843,267.517 289.5,269.5C 287.824,268.817 287.157,267.483 287.5,265.5 Z"/></g>
<g><path style="opacity:1" fill="#0e1818" d="M 347.5,265.5 C 347.843,267.483 347.176,268.817 345.5,269.5C 345.157,267.517 345.824,266.183 347.5,265.5 Z"/></g>
<g><path style="opacity:1" fill="#151e1e" d="M 439.5,261.5 C 440.042,265.259 438.708,267.926 435.5,269.5C 435.819,266.194 437.153,263.527 439.5,261.5 Z"/></g>
<g><path style="opacity:1" fill="#1b2020" d="M 241.5,267.5 C 242.833,267.5 243.5,268.167 243.5,269.5C 243.5,268.167 242.833,267.5 241.5,267.5 Z"/></g>
<g><path style="opacity:1" fill="#141717" d="M 395.5,267.5 C 394.817,269.176 393.483,269.843 391.5,269.5C 392.183,267.824 393.517,267.157 395.5,267.5 Z"/></g>
<g><path style="opacity:1" fill="#161919" d="M 243.5,269.5 C 245.483,269.157 246.817,269.824 247.5,271.5C 245.517,271.843 244.183,271.176 243.5,269.5 Z"/></g>
<g><path style="opacity:1" fill="#101e1e" d="M 289.5,269.5 C 290.833,269.5 291.5,270.167 291.5,271.5C 290.167,271.5 289.5,270.833 289.5,269.5 Z"/></g>
<g><path style="opacity:1" fill="#131e1e" d="M 345.5,269.5 C 345.5,270.833 344.833,271.5 343.5,271.5C 343.5,270.167 344.167,269.5 345.5,269.5 Z"/></g>
<g><path style="opacity:1" fill="#161d1d" d="M 391.5,269.5 C 391.5,270.833 390.833,271.5 389.5,271.5C 389.5,270.167 390.167,269.5 391.5,269.5 Z"/></g>
<g><path style="opacity:1" fill="#0e1818" d="M 435.5,269.5 C 435.843,271.483 435.176,272.817 433.5,273.5C 433.157,271.517 433.824,270.183 435.5,269.5 Z"/></g>
<g><path style="opacity:1" fill="#192021" d="M 197.5,267.5 C 201.684,272.677 204.35,278.677 205.5,285.5C 204.265,285.279 203.265,284.612 202.5,283.5C 200.229,278.307 198.562,272.974 197.5,267.5 Z"/></g>
<g><path style="opacity:1" fill="#1b1f20" d="M 247.5,271.5 C 248.833,271.5 249.5,272.167 249.5,273.5C 249.5,272.167 248.833,271.5 247.5,271.5 Z"/></g>
<g><path style="opacity:1" fill="#101e1e" d="M 291.5,271.5 C 292.833,271.5 293.5,272.167 293.5,273.5C 292.167,273.5 291.5,272.833 291.5,271.5 Z"/></g>
<g><path style="opacity:1" fill="#131e1e" d="M 343.5,271.5 C 343.5,272.833 342.833,273.5 341.5,273.5C 341.5,272.167 342.167,271.5 343.5,271.5 Z"/></g>
<g><path style="opacity:1" fill="#111516" d="M 389.5,271.5 C 388.817,273.176 387.483,273.843 385.5,273.5C 386.183,271.824 387.517,271.157 389.5,271.5 Z"/></g>
<g><path style="opacity:1" fill="#161819" d="M 249.5,273.5 C 251.483,273.157 252.817,273.824 253.5,275.5C 251.517,275.843 250.183,275.176 249.5,273.5 Z"/></g>
<g><path style="opacity:1" fill="#101e1e" d="M 293.5,273.5 C 294.833,273.5 295.5,274.167 295.5,275.5C 294.167,275.5 293.5,274.833 293.5,273.5 Z"/></g>
<g><path style="opacity:1" fill="#131e1e" d="M 341.5,273.5 C 341.5,274.833 340.833,275.5 339.5,275.5C 339.5,274.167 340.167,273.5 341.5,273.5 Z"/></g>
<g><path style="opacity:1" fill="#161d1d" d="M 385.5,273.5 C 385.5,274.833 384.833,275.5 383.5,275.5C 383.5,274.167 384.167,273.5 385.5,273.5 Z"/></g>
<g><path style="opacity:1" fill="#0e1818" d="M 433.5,273.5 C 433.843,275.483 433.176,276.817 431.5,277.5C 431.157,275.517 431.824,274.183 433.5,273.5 Z"/></g>
<g><path style="opacity:1" fill="#6d6e70" d="M 381.5,275.5 C 381.5,276.167 381.5,276.833 381.5,277.5C 380.833,277.5 380.167,277.5 379.5,277.5C 379.5,276.167 380.167,275.5 381.5,275.5 Z"/></g>
<g><path style="opacity:1" fill="#1b1f20" d="M 253.5,275.5 C 254.833,275.5 255.5,276.167 255.5,277.5C 255.5,276.167 254.833,275.5 253.5,275.5 Z"/></g>
<g><path style="opacity:1" fill="#101e1e" d="M 295.5,275.5 C 296.833,275.5 297.5,276.167 297.5,277.5C 296.167,277.5 295.5,276.833 295.5,275.5 Z"/></g>
<g><path style="opacity:1" fill="#131e1e" d="M 339.5,275.5 C 339.5,276.833 338.833,277.5 337.5,277.5C 337.5,276.167 338.167,275.5 339.5,275.5 Z"/></g>
<g><path style="opacity:1" fill="#101717" d="M 381.5,275.5 C 382.167,275.5 382.833,275.5 383.5,275.5C 383.5,276.833 382.833,277.5 381.5,277.5C 381.5,276.833 381.5,276.167 381.5,275.5 Z"/></g>
<g><path style="opacity:1" fill="#1b2020" d="M 255.5,277.5 C 256.833,277.5 257.5,278.167 257.5,279.5C 257.5,278.167 256.833,277.5 255.5,277.5 Z"/></g>
<g><path style="opacity:1" fill="#111e1e" d="M 297.5,277.5 C 298.833,277.5 299.5,278.167 299.5,279.5C 298.167,279.5 297.5,278.833 297.5,277.5 Z"/></g>
<g><path style="opacity:1" fill="#141e1e" d="M 337.5,277.5 C 337.5,278.833 336.833,279.5 335.5,279.5C 335.5,278.167 336.167,277.5 337.5,277.5 Z"/></g>
<g><path style="opacity:1" fill="#0f1514" d="M 431.5,277.5 C 431.975,280.082 431.308,282.082 429.5,283.5C 429.025,280.918 429.692,278.918 431.5,277.5 Z"/></g>
<g><path style="opacity:1" fill="#161a1a" d="M 257.5,279.5 C 259.176,280.183 259.843,281.517 259.5,283.5C 257.824,282.817 257.157,281.483 257.5,279.5 Z"/></g>
<g><path style="opacity:1" fill="#121616" d="M 379.5,277.5 C 380.167,277.5 380.833,277.5 381.5,277.5C 379.551,282.09 376.884,286.09 373.5,289.5C 373.5,288.833 373.5,288.167 373.5,287.5C 373.238,286.022 373.571,284.689 374.5,283.5C 376.204,281.359 377.87,279.359 379.5,277.5 Z"/></g>
<g><path style="opacity:1" fill="#121d1d" d="M 299.5,279.5 C 305.285,281.647 311.285,282.98 317.5,283.5C 323.715,282.98 329.715,281.647 335.5,279.5C 335.279,280.735 334.612,281.735 333.5,282.5C 322.833,286.5 312.167,286.5 301.5,282.5C 300.388,281.735 299.721,280.735 299.5,279.5 Z"/></g>
<g><path style="opacity:1" fill="#1b2020" d="M 259.5,283.5 C 260.833,283.5 261.5,284.167 261.5,285.5C 261.5,284.167 260.833,283.5 259.5,283.5 Z"/></g>
<g><path style="opacity:1" fill="#1b2020" d="M 261.5,285.5 C 262.833,285.5 263.5,286.167 263.5,287.5C 263.5,286.167 262.833,285.5 261.5,285.5 Z"/></g>
<g><path style="opacity:1" fill="#0e1414" d="M 205.5,285.5 C 207.308,286.918 207.975,288.918 207.5,291.5C 205.692,290.082 205.025,288.082 205.5,285.5 Z"/></g>
<g><path style="opacity:1" fill="#161a1a" d="M 263.5,287.5 C 265.176,288.183 265.843,289.517 265.5,291.5C 263.824,290.817 263.157,289.483 263.5,287.5 Z"/></g>
<g><path style="opacity:1" fill="#39bbbb" d="M 373.5,287.5 C 373.5,288.167 373.5,288.833 373.5,289.5C 372.833,289.5 372.167,289.5 371.5,289.5C 371.5,288.167 372.167,287.5 373.5,287.5 Z"/></g>
<g><path style="opacity:1" fill="#0f1414" d="M 429.5,283.5 C 430.042,287.259 428.708,289.926 425.5,291.5C 425.819,288.194 427.153,285.527 429.5,283.5 Z"/></g>
<g><path style="opacity:1" fill="#0e1717" d="M 371.5,289.5 C 372.167,289.5 372.833,289.5 373.5,289.5C 372.636,291.919 371.303,293.919 369.5,295.5C 369.5,294.833 369.5,294.167 369.5,293.5C 369.157,291.517 369.824,290.183 371.5,289.5 Z"/></g>
<g><path style="opacity:1" fill="#161a1a" d="M 265.5,291.5 C 267.176,292.183 267.843,293.517 267.5,295.5C 265.824,294.817 265.157,293.483 265.5,291.5 Z"/></g>
<g><path style="opacity:1" fill="#0c1717" d="M 425.5,291.5 C 425.843,293.483 425.176,294.817 423.5,295.5C 423.157,293.517 423.824,292.183 425.5,291.5 Z"/></g>
<g><path style="opacity:1" fill="#3cbebe" d="M 369.5,293.5 C 369.5,294.167 369.5,294.833 369.5,295.5C 368.833,295.5 368.167,295.5 367.5,295.5C 367.5,294.167 368.167,293.5 369.5,293.5 Z"/></g>
<g><path style="opacity:1" fill="#101616" d="M 207.5,291.5 C 210.708,293.074 212.042,295.741 211.5,299.5C 209.153,297.473 207.819,294.806 207.5,291.5 Z"/></g>
<g><path style="opacity:1" fill="#161a1a" d="M 267.5,295.5 C 269.176,296.183 269.843,297.517 269.5,299.5C 267.824,298.817 267.157,297.483 267.5,295.5 Z"/></g>
<g><path style="opacity:1" fill="#0a1717" d="M 367.5,295.5 C 368.167,295.5 368.833,295.5 369.5,295.5C 369.843,297.483 369.176,298.817 367.5,299.5C 367.5,298.167 367.5,296.833 367.5,295.5 Z"/></g>
<g><path style="opacity:1" fill="#0e1818" d="M 423.5,295.5 C 423.843,297.483 423.176,298.817 421.5,299.5C 421.157,297.517 421.824,296.183 423.5,295.5 Z"/></g>
<g><path style="opacity:1" fill="#717375" d="M 307.5,297.5 C 305.22,299.223 302.553,299.889 299.5,299.5C 301.635,297.631 304.302,296.964 307.5,297.5 Z"/></g>
<g><path style="opacity:1" fill="#151616" d="M 307.5,297.5 C 319.216,296.856 330.549,297.522 341.5,299.5C 321.493,300 301.493,300.667 281.5,301.5C 287.074,299.547 293.074,298.88 299.5,299.5C 302.553,299.889 305.22,299.223 307.5,297.5 Z"/></g>
<g><path style="opacity:1" fill="#1a1a1b" d="M 211.5,299.5 C 212.167,299.5 212.833,299.5 213.5,299.5C 213.5,300.167 213.5,300.833 213.5,301.5C 212.167,301.5 211.5,300.833 211.5,299.5 Z"/></g>
<g><path style="opacity:1" fill="#6a7d7e" d="M 213.5,299.5 C 214.833,299.5 215.5,300.167 215.5,301.5C 214.833,301.5 214.167,301.5 213.5,301.5C 213.5,300.833 213.5,300.167 213.5,299.5 Z"/></g>
<g><path style="opacity:1" fill="#1b1f20" d="M 269.5,299.5 C 270.833,299.5 271.5,300.167 271.5,301.5C 271.5,300.167 270.833,299.5 269.5,299.5 Z"/></g>
<g><path style="opacity:1" fill="#121414" d="M 341.5,299.5 C 350.167,299.5 358.833,299.5 367.5,299.5C 363.555,300.825 359.222,301.492 354.5,301.5C 349.778,301.492 345.445,300.825 341.5,299.5 Z"/></g>
<g><path style="opacity:1" fill="#141e1e" d="M 421.5,299.5 C 421.5,300.833 420.833,301.5 419.5,301.5C 419.5,300.167 420.167,299.5 421.5,299.5 Z"/></g>
<g><path style="opacity:1" fill="#131516" d="M 271.5,301.5 C 274.833,301.5 278.167,301.5 281.5,301.5C 280.306,302.777 278.64,303.444 276.5,303.5C 274.36,303.444 272.694,302.777 271.5,301.5 Z"/></g>
<g><path style="opacity:1" fill="#0e1818" d="M 419.5,301.5 C 419.843,303.483 419.176,304.817 417.5,305.5C 417.157,303.517 417.824,302.183 419.5,301.5 Z"/></g>
<g><path style="opacity:1" fill="#1b2222" d="M 213.5,301.5 C 214.167,301.5 214.833,301.5 215.5,301.5C 218.313,302.446 219.646,304.446 219.5,307.5C 216.833,306.167 214.833,304.167 213.5,301.5 Z"/></g>
<g><path style="opacity:1" fill="#131e1e" d="M 417.5,305.5 C 417.5,306.833 416.833,307.5 415.5,307.5C 415.5,306.167 416.167,305.5 417.5,305.5 Z"/></g>
<g><path style="opacity:1" fill="#101817" d="M 219.5,307.5 C 221.483,307.157 222.817,307.824 223.5,309.5C 221.517,309.843 220.183,309.176 219.5,307.5 Z"/></g>
<g><path style="opacity:1" fill="#131e1e" d="M 415.5,307.5 C 415.5,308.833 414.833,309.5 413.5,309.5C 413.5,308.167 414.167,307.5 415.5,307.5 Z"/></g>
<g><path style="opacity:1" fill="#111e1e" d="M 223.5,309.5 C 224.833,309.5 225.5,310.167 225.5,311.5C 224.167,311.5 223.5,310.833 223.5,309.5 Z"/></g>
<g><path style="opacity:1" fill="#131e1e" d="M 413.5,309.5 C 413.5,310.833 412.833,311.5 411.5,311.5C 411.5,310.167 412.167,309.5 413.5,309.5 Z"/></g>
<g><path style="opacity:1" fill="#111e1e" d="M 225.5,311.5 C 226.833,311.5 227.5,312.167 227.5,313.5C 226.167,313.5 225.5,312.833 225.5,311.5 Z"/></g>
<g><path style="opacity:1" fill="#131e1e" d="M 411.5,311.5 C 411.5,312.833 410.833,313.5 409.5,313.5C 409.5,312.167 410.167,311.5 411.5,311.5 Z"/></g>
<g><path style="opacity:1" fill="#0d1717" d="M 227.5,313.5 C 229.483,313.157 230.817,313.824 231.5,315.5C 229.517,315.843 228.183,315.176 227.5,313.5 Z"/></g>
<g><path style="opacity:1" fill="#131e1e" d="M 409.5,313.5 C 409.5,314.833 408.833,315.5 407.5,315.5C 407.5,314.167 408.167,313.5 409.5,313.5 Z"/></g>
<g><path style="opacity:1" fill="#111e1e" d="M 231.5,315.5 C 232.833,315.5 233.5,316.167 233.5,317.5C 232.167,317.5 231.5,316.833 231.5,315.5 Z"/></g>
<g><path style="opacity:1" fill="#131e1e" d="M 407.5,315.5 C 407.5,316.833 406.833,317.5 405.5,317.5C 405.5,316.167 406.167,315.5 407.5,315.5 Z"/></g>
<g><path style="opacity:1" fill="#0c1717" d="M 233.5,317.5 C 235.483,317.157 236.817,317.824 237.5,319.5C 235.517,319.843 234.183,319.176 233.5,317.5 Z"/></g>
<g><path style="opacity:1" fill="#151b1b" d="M 405.5,317.5 C 403.919,319.303 401.919,320.636 399.5,321.5C 399.764,316.486 401.764,315.153 405.5,317.5 Z"/></g>
<g><path style="opacity:1" fill="#1f2829" d="M 237.5,319.5 C 239.5,320.167 240.833,321.5 241.5,323.5C 240.167,323.5 238.833,323.5 237.5,323.5C 237.5,322.167 237.5,320.833 237.5,319.5 Z"/></g>
<g><path style="opacity:1" fill="#131c1c" d="M 399.5,321.5 C 398.554,324.313 396.554,325.646 393.5,325.5C 394.446,322.687 396.446,321.354 399.5,321.5 Z"/></g>
<g><path style="opacity:1" fill="#1d2525" d="M 241.5,323.5 C 244.554,323.354 246.554,324.687 247.5,327.5C 244.446,327.646 242.446,326.313 241.5,323.5 Z"/></g>
<g><path style="opacity:1" fill="#0d1717" d="M 393.5,325.5 C 392.817,327.176 391.483,327.843 389.5,327.5C 390.183,325.824 391.517,325.157 393.5,325.5 Z"/></g>
<g><path style="opacity:1" fill="#0d1717" d="M 247.5,327.5 C 249.483,327.157 250.817,327.824 251.5,329.5C 249.517,329.843 248.183,329.176 247.5,327.5 Z"/></g>
<g><path style="opacity:1" fill="#0d1717" d="M 389.5,327.5 C 388.817,329.176 387.483,329.843 385.5,329.5C 386.183,327.824 387.517,327.157 389.5,327.5 Z"/></g>
<g><path style="opacity:1" fill="#101d1d" d="M 251.5,329.5 C 252.833,329.5 253.5,330.167 253.5,331.5C 252.167,331.5 251.5,330.833 251.5,329.5 Z"/></g>
<g><path style="opacity:1" fill="#0d1717" d="M 253.5,331.5 C 255.483,331.157 256.817,331.824 257.5,333.5C 255.517,333.843 254.183,333.176 253.5,331.5 Z"/></g>
<g><path style="opacity:1" fill="#838688" d="M 497.5,331.5 C 499.337,331.639 499.67,332.306 498.5,333.5C 497.702,333.043 497.369,332.376 497.5,331.5 Z"/></g>
<g><path style="opacity:1" fill="#131b1b" d="M 257.5,333.5 C 258.167,333.5 258.833,333.5 259.5,333.5C 259.5,334.167 259.5,334.833 259.5,335.5C 258.167,335.5 257.5,334.833 257.5,333.5 Z"/></g>
<g><path style="opacity:1" fill="#6a7d7f" d="M 259.5,333.5 C 260.833,333.5 261.5,334.167 261.5,335.5C 260.833,335.5 260.167,335.5 259.5,335.5C 259.5,334.833 259.5,334.167 259.5,333.5 Z"/></g>
<g><path style="opacity:1" fill="#1d2424" d="M 385.5,329.5 C 385.279,330.735 384.612,331.735 383.5,332.5C 379.686,334.744 375.686,336.411 371.5,337.5C 371.721,336.265 372.388,335.265 373.5,334.5C 377.314,332.256 381.314,330.589 385.5,329.5 Z"/></g>
<g><path style="opacity:1" fill="#1a1b1c" d="M 259.5,335.5 C 260.167,335.5 260.833,335.5 261.5,335.5C 261.5,336.167 261.5,336.833 261.5,337.5C 260.167,337.5 259.5,336.833 259.5,335.5 Z"/></g>
<g><path style="opacity:1" fill="#91a2a5" d="M 261.5,335.5 C 263.483,335.157 264.817,335.824 265.5,337.5C 264.167,337.5 262.833,337.5 261.5,337.5C 261.5,336.833 261.5,336.167 261.5,335.5 Z"/></g>
<g><path style="opacity:1" fill="#141818" d="M 371.5,337.5 C 369.189,343.157 366.523,348.49 363.5,353.5C 364.176,348.792 365.176,344.125 366.5,339.5C 367.842,337.995 369.508,337.328 371.5,337.5 Z"/></g>
<g><path style="opacity:1" fill="#111516" d="M 261.5,337.5 C 262.833,337.5 264.167,337.5 265.5,337.5C 267.176,338.183 267.843,339.517 267.5,341.5C 265.081,340.636 263.081,339.303 261.5,337.5 Z"/></g>
<g><path style="opacity:1" fill="#0d1717" d="M 267.5,341.5 C 269.308,342.918 269.975,344.918 269.5,347.5C 267.692,346.082 267.025,344.082 267.5,341.5 Z"/></g>
<g><path style="opacity:1" fill="#0d1717" d="M 269.5,347.5 C 271.308,348.918 271.975,350.918 271.5,353.5C 269.692,352.082 269.025,350.082 269.5,347.5 Z"/></g>
<g><path style="opacity:1" fill="#0d1717" d="M 271.5,353.5 C 273.308,354.918 273.975,356.918 273.5,359.5C 271.692,358.082 271.025,356.082 271.5,353.5 Z"/></g>
<g><path style="opacity:1" fill="#0f1515" d="M 363.5,353.5 C 363.975,356.082 363.308,358.082 361.5,359.5C 361.025,356.918 361.692,354.918 363.5,353.5 Z"/></g>
<g><path style="opacity:1" fill="#0d1717" d="M 273.5,359.5 C 275.308,360.918 275.975,362.918 275.5,365.5C 273.692,364.082 273.025,362.082 273.5,359.5 Z"/></g>
<g><path style="opacity:1" fill="#0f1515" d="M 361.5,359.5 C 361.975,362.082 361.308,364.082 359.5,365.5C 359.025,362.918 359.692,360.918 361.5,359.5 Z"/></g>
<g><path style="opacity:1" fill="#0d1717" d="M 275.5,365.5 C 277.308,366.918 277.975,368.918 277.5,371.5C 275.692,370.082 275.025,368.082 275.5,365.5 Z"/></g>
<g><path style="opacity:1" fill="#0f1515" d="M 359.5,365.5 C 359.975,368.082 359.308,370.082 357.5,371.5C 357.025,368.918 357.692,366.918 359.5,365.5 Z"/></g>
<g><path style="opacity:1" fill="#0d1717" d="M 277.5,371.5 C 279.308,372.918 279.975,374.918 279.5,377.5C 277.692,376.082 277.025,374.082 277.5,371.5 Z"/></g>
<g><path style="opacity:1" fill="#0f1515" d="M 357.5,371.5 C 357.975,374.082 357.308,376.082 355.5,377.5C 355.025,374.918 355.692,372.918 357.5,371.5 Z"/></g>
<g><path style="opacity:1" fill="#0d1717" d="M 279.5,377.5 C 281.308,378.918 281.975,380.918 281.5,383.5C 279.692,382.082 279.025,380.082 279.5,377.5 Z"/></g>
<g><path style="opacity:1" fill="#0e1818" d="M 355.5,377.5 C 355.843,379.483 355.176,380.817 353.5,381.5C 353.157,379.517 353.824,378.183 355.5,377.5 Z"/></g>
<g><path style="opacity:1" fill="#0f1515" d="M 353.5,381.5 C 353.975,384.082 353.308,386.082 351.5,387.5C 351.025,384.918 351.692,382.918 353.5,381.5 Z"/></g>
<g><path style="opacity:1" fill="#0d1717" d="M 281.5,383.5 C 283.308,384.918 283.975,386.918 283.5,389.5C 281.692,388.082 281.025,386.082 281.5,383.5 Z"/></g>
<g><path style="opacity:1" fill="#0e1818" d="M 351.5,387.5 C 351.843,389.483 351.176,390.817 349.5,391.5C 349.157,389.517 349.824,388.183 351.5,387.5 Z"/></g>
<g><path style="opacity:1" fill="#0c1716" d="M 283.5,389.5 C 284.693,389.97 285.36,390.97 285.5,392.5C 285.36,394.03 284.693,395.03 283.5,395.5C 283.5,393.5 283.5,391.5 283.5,389.5 Z"/></g>
<g><path style="opacity:1" fill="#151919" d="M 349.5,393.5 C 351.176,394.183 351.843,395.517 351.5,397.5C 349.824,396.817 349.157,395.483 349.5,393.5 Z"/></g>
<g><path style="opacity:1" fill="#1a2223" d="M 283.5,397.5 C 284.693,397.97 285.36,398.97 285.5,400.5C 285.36,402.03 284.693,403.03 283.5,403.5C 283.5,402.167 282.833,401.5 281.5,401.5C 282.167,400.167 282.833,398.833 283.5,397.5 Z"/></g>
<g><path style="opacity:1" fill="#121616" d="M 351.5,397.5 C 353.369,399.635 354.036,402.302 353.5,405.5C 351.631,403.365 350.964,400.698 351.5,397.5 Z"/></g>
<g><path style="opacity:1" fill="#36b7b7" d="M 281.5,401.5 C 282.833,401.5 283.5,402.167 283.5,403.5C 282.833,403.5 282.167,403.5 281.5,403.5C 281.5,402.833 281.5,402.167 281.5,401.5 Z"/></g>
<g><path style="opacity:1" fill="#181f20" d="M 281.5,403.5 C 282.167,403.5 282.833,403.5 283.5,403.5C 284.036,406.698 283.369,409.365 281.5,411.5C 281.5,410.167 280.833,409.5 279.5,409.5C 280.72,407.718 281.386,405.718 281.5,403.5 Z"/></g>
<g><path style="opacity:1" fill="#131718" d="M 353.5,405.5 C 355.308,406.918 355.975,408.918 355.5,411.5C 353.692,410.082 353.025,408.082 353.5,405.5 Z"/></g>
<g><path style="opacity:1" fill="#36b7b7" d="M 279.5,409.5 C 280.833,409.5 281.5,410.167 281.5,411.5C 280.833,411.5 280.167,411.5 279.5,411.5C 279.5,410.833 279.5,410.167 279.5,409.5 Z"/></g>
<g><path style="opacity:1" fill="#0a1313" d="M 279.5,411.5 C 280.167,411.5 280.833,411.5 281.5,411.5C 281.5,412.833 281.5,414.167 281.5,415.5C 306.167,415.5 330.833,415.5 355.5,415.5C 355.5,414.167 355.5,412.833 355.5,411.5C 357.308,412.918 357.975,414.918 357.5,417.5C 330.825,417.833 304.158,417.5 277.5,416.5C 279.005,415.158 279.672,413.492 279.5,411.5 Z"/></g>
<g><path style="opacity:1" fill="#010101" d="M 193.5,433.5 C 276.167,433.5 358.833,433.5 441.5,433.5C 441.5,444.167 441.5,454.833 441.5,465.5C 358.833,465.5 276.167,465.5 193.5,465.5C 193.5,454.833 193.5,444.167 193.5,433.5 Z"/></g>
</svg>
