<?xml version="1.0" encoding="UTF-8"?>
<!DOCTYPE svg PUBLIC "-//W3C//DTD SVG 1.1//EN" "http://www.w3.org/Graphics/SVG/1.1/DTD/svg11.dtd">
<svg xmlns="http://www.w3.org/2000/svg" version="1.1" width="631px" height="510px" style="shape-rendering:geometricPrecision; text-rendering:geometricPrecision; image-rendering:optimizeQuality; fill-rule:evenodd; clip-rule:evenodd" xmlns:xlink="http://www.w3.org/1999/xlink">
<g><path style="opacity:1" fill="#dde1e5" d="M -0.5,-0.5 C 209.833,-0.5 420.167,-0.5 630.5,-0.5C 630.5,169.5 630.5,339.5 630.5,509.5C 420.167,509.5 209.833,509.5 -0.5,509.5C -0.5,339.5 -0.5,169.5 -0.5,-0.5 Z"/></g>
<g><path style="opacity:1" fill="#090d0d" d="M 298.5,17.5 C 349.429,15.066 396.763,26.7327 440.5,52.5C 454.988,61.6468 468.321,72.3135 480.5,84.5C 479.167,85.1667 477.833,85.8333 476.5,86.5C 467.414,95.2495 458.748,104.25 450.5,113.5C 394.982,63.3468 330.982,48.3468 258.5,68.5C 229.882,77.6352 204.882,92.6352 183.5,113.5C 174.567,102.564 164.9,92.2305 154.5,82.5C 176.166,61.9926 200.832,45.9926 228.5,34.5C 251.424,25.9337 274.757,20.267 298.5,17.5 Z"/></g>
<g><path style="opacity:1" fill="#32c9c9" d="M 298.5,23.5 C 357.908,20.6753 411.242,37.0086 458.5,72.5C 462.252,76.5919 466.252,80.2586 470.5,83.5C 464.437,91.2317 457.437,97.8984 449.5,103.5C 386.604,52.4161 316.937,40.7494 240.5,68.5C 219.971,77.3966 201.305,89.0633 184.5,103.5C 176.794,97.461 170.127,90.461 164.5,82.5C 194.049,55.0556 228.716,37.0556 268.5,28.5C 278.863,27.2996 288.863,25.633 298.5,23.5 Z"/></g>
<g><path style="opacity:1" fill="#060909" d="M 144.5,91.5 C 145.978,91.238 147.311,91.5713 148.5,92.5C 155.455,99.6338 162.788,106.3 170.5,112.5C 171.689,113.429 173.022,113.762 174.5,113.5C 174.579,115.666 175.246,117.666 176.5,119.5C 126.347,175.018 111.347,239.018 131.5,311.5C 135.663,324.655 140.997,337.322 147.5,349.5C 155.108,361.729 163.442,373.396 172.5,384.5C 165.596,393.41 157.929,401.743 149.5,409.5C 148.571,410.689 148.238,412.022 148.5,413.5C 146.396,413.799 144.396,413.466 142.5,412.5C 90.3555,352.95 71.3555,283.95 85.5,205.5C 88.2632,191.777 92.2632,178.444 97.5,165.5C 109.167,138.136 124.834,113.469 144.5,91.5 Z"/></g>
<g><path style="opacity:1" fill="#060909" d="M 486.5,93.5 C 487.978,93.238 489.311,93.5713 490.5,94.5C 530.962,139.517 551.629,192.517 552.5,253.5C 552.184,286.066 545.851,317.399 533.5,347.5C 524.176,367.498 512.843,386.165 499.5,403.5C 496.133,407.203 492.466,410.536 488.5,413.5C 478.196,404.197 468.196,394.53 458.5,384.5C 484.604,357.294 500.937,324.96 507.5,287.5C 517.265,223.146 500.265,167.146 456.5,119.5C 465.949,110.041 475.949,101.375 486.5,93.5 Z"/></g>
<g><path style="opacity:1" fill="#32caca" d="M 144.5,99.5 C 145.978,99.238 147.311,99.5713 148.5,100.5C 151.916,104.587 155.916,107.92 160.5,110.5C 163.538,113.203 166.205,116.203 168.5,119.5C 119.905,176.342 105.571,241.008 125.5,313.5C 132.564,332.293 141.23,350.293 151.5,367.5C 155.756,373.76 160.756,379.427 166.5,384.5C 159.432,392.238 151.766,399.238 143.5,405.5C 134.167,392.167 124.833,378.833 115.5,365.5C 80.9928,299.037 77.6595,231.037 105.5,161.5C 115.021,140.003 127.688,120.67 143.5,103.5C 144.429,102.311 144.762,100.978 144.5,99.5 Z"/></g>
<g><path style="opacity:1" fill="#32caca" d="M 510.5,377.5 C 509.167,377.5 508.5,378.167 508.5,379.5C 506.824,380.183 506.157,381.517 506.5,383.5C 505.167,383.5 504.5,384.167 504.5,385.5C 498.873,392.696 493.207,400.029 487.5,407.5C 482.909,400.905 477.576,394.905 471.5,389.5C 470.5,387.5 469.5,385.5 468.5,383.5C 507.781,335.731 522.781,281.064 513.5,219.5C 511.46,208.674 508.794,198.008 505.5,187.5C 499.009,170.658 491.009,154.658 481.5,139.5C 476.833,134.167 472.167,128.833 467.5,123.5C 466.167,121.5 466.167,119.5 467.5,117.5C 473.73,113.206 479.396,108.206 484.5,102.5C 487.068,101.132 489.401,101.466 491.5,103.5C 540.526,164.282 556.526,232.948 539.5,309.5C 533.495,333.886 523.828,356.552 510.5,377.5 Z"/></g>
<g><path style="opacity:1" fill="#161616" d="M 324.5,147.5 C 319.833,147.5 315.167,147.5 310.5,147.5C 312.397,146.195 314.731,145.529 317.5,145.5C 320.269,145.529 322.603,146.195 324.5,147.5 Z"/></g>
<g><path style="opacity:1" fill="#539394" d="M 310.5,147.5 C 315.167,147.5 319.833,147.5 324.5,147.5C 324.5,148.167 324.5,148.833 324.5,149.5C 319.833,148.167 315.167,148.167 310.5,149.5C 310.5,148.833 310.5,148.167 310.5,147.5 Z"/></g>
<g><path style="opacity:1" fill="#32caca" d="M 324.5,149.5 C 327.167,150.167 329.833,150.833 332.5,151.5C 333.446,154.313 335.446,155.646 338.5,155.5C 338.157,157.483 338.824,158.817 340.5,159.5C 340.5,160.833 341.167,161.5 342.5,161.5C 342.157,163.483 342.824,164.817 344.5,165.5C 343.964,168.698 344.631,171.365 346.5,173.5C 346.5,178.167 346.5,182.833 346.5,187.5C 344.817,192.124 342.817,196.791 340.5,201.5C 338.824,202.183 338.157,203.517 338.5,205.5C 337.022,205.238 335.689,205.571 334.5,206.5C 331.589,209.751 328.256,212.085 324.5,213.5C 319.833,213.5 315.167,213.5 310.5,213.5C 307.06,211.885 303.726,209.885 300.5,207.5C 299.817,205.824 298.483,205.157 296.5,205.5C 296.843,203.517 296.176,202.183 294.5,201.5C 292.472,197.352 290.472,193.352 288.5,189.5C 288.5,183.5 288.5,177.5 288.5,171.5C 290.308,170.082 290.975,168.082 290.5,165.5C 292.176,164.817 292.843,163.483 292.5,161.5C 293.833,161.5 294.5,160.833 294.5,159.5C 297.167,158.167 299.167,156.167 300.5,153.5C 301.833,153.5 302.5,152.833 302.5,151.5C 305.167,150.833 307.833,150.167 310.5,149.5C 315.167,148.167 319.833,148.167 324.5,149.5 Z"/></g>
<g><path style="opacity:1" fill="#353839" d="M 310.5,147.5 C 310.5,148.167 310.5,148.833 310.5,149.5C 307.833,150.167 305.167,150.833 302.5,151.5C 304.074,148.292 306.741,146.958 310.5,147.5 Z"/></g>
<g><path style="opacity:1" fill="#2a2c2c" d="M 324.5,147.5 C 328.259,146.958 330.926,148.292 332.5,151.5C 329.833,150.833 327.167,150.167 324.5,149.5C 324.5,148.833 324.5,148.167 324.5,147.5 Z"/></g>
<g><path style="opacity:1" fill="#191f1f" d="M 302.5,151.5 C 302.5,152.833 301.833,153.5 300.5,153.5C 300.5,152.167 301.167,151.5 302.5,151.5 Z"/></g>
<g><path style="opacity:1" fill="#1b1e1e" d="M 300.5,153.5 C 299.167,156.167 297.167,158.167 294.5,159.5C 294.5,155.5 296.5,153.5 300.5,153.5 Z"/></g>
<g><path style="opacity:1" fill="#323535" d="M 332.5,151.5 C 335.554,151.354 337.554,152.687 338.5,155.5C 335.446,155.646 333.446,154.313 332.5,151.5 Z"/></g>
<g><path style="opacity:1" fill="#171a1a" d="M 338.5,155.5 C 340.176,156.183 340.843,157.517 340.5,159.5C 338.824,158.817 338.157,157.483 338.5,155.5 Z"/></g>
<g><path style="opacity:1" fill="#191e1f" d="M 294.5,159.5 C 294.5,160.833 293.833,161.5 292.5,161.5C 292.5,160.167 293.167,159.5 294.5,159.5 Z"/></g>
<g><path style="opacity:1" fill="#1c2020" d="M 340.5,159.5 C 341.833,159.5 342.5,160.167 342.5,161.5C 342.5,160.167 341.833,159.5 340.5,159.5 Z"/></g>
<g><path style="opacity:1" fill="#161a1a" d="M 292.5,161.5 C 292.843,163.483 292.176,164.817 290.5,165.5C 290.157,163.517 290.824,162.183 292.5,161.5 Z"/></g>
<g><path style="opacity:1" fill="#171a1b" d="M 342.5,161.5 C 344.176,162.183 344.843,163.517 344.5,165.5C 342.824,164.817 342.157,163.483 342.5,161.5 Z"/></g>
<g><path style="opacity:1" fill="#0d1414" d="M 290.5,165.5 C 290.975,168.082 290.308,170.082 288.5,171.5C 288.025,168.918 288.692,166.918 290.5,165.5 Z"/></g>
<g><path style="opacity:1" fill="#131717" d="M 344.5,165.5 C 346.369,167.635 347.036,170.302 346.5,173.5C 344.631,171.365 343.964,168.698 344.5,165.5 Z"/></g>
<g><path style="opacity:1" fill="#0b1212" d="M 288.5,171.5 C 288.5,177.5 288.5,183.5 288.5,189.5C 287.184,186.913 286.517,183.913 286.5,180.5C 286.517,177.087 287.184,174.087 288.5,171.5 Z"/></g>
<g><path style="opacity:1" fill="#111515" d="M 346.5,173.5 C 347.805,175.397 348.471,177.731 348.5,180.5C 348.471,183.269 347.805,185.603 346.5,187.5C 346.5,182.833 346.5,178.167 346.5,173.5 Z"/></g>
<g><path style="opacity:1" fill="#1f2627" d="M 346.5,187.5 C 346.232,191.083 346.899,194.416 348.5,197.5C 347.167,197.5 345.833,197.5 344.5,197.5C 344.5,198.833 344.5,200.167 344.5,201.5C 343.167,201.5 341.833,201.5 340.5,201.5C 342.817,196.791 344.817,192.124 346.5,187.5 Z"/></g>
<g><path style="opacity:1" fill="#111818" d="M 288.5,189.5 C 290.472,193.352 292.472,197.352 294.5,201.5C 293.167,201.5 291.833,201.5 290.5,201.5C 290.843,199.517 290.176,198.183 288.5,197.5C 288.5,194.833 288.5,192.167 288.5,189.5 Z"/></g>
<g><path style="opacity:1" fill="#33cbcb" d="M 288.5,197.5 C 290.176,198.183 290.843,199.517 290.5,201.5C 291.833,201.5 293.167,201.5 294.5,201.5C 294.157,203.483 294.824,204.817 296.5,205.5C 297.183,207.176 298.517,207.843 300.5,207.5C 300.279,208.735 299.612,209.735 298.5,210.5C 302.191,212.756 306.191,213.756 310.5,213.5C 312.397,214.805 314.731,215.471 317.5,215.5C 320.269,215.471 322.603,214.805 324.5,213.5C 327.247,213.813 329.914,213.48 332.5,212.5C 333.588,211.066 334.922,210.066 336.5,209.5C 337.167,208.167 337.833,206.833 338.5,205.5C 340.176,204.817 340.843,203.483 340.5,201.5C 341.833,201.5 343.167,201.5 344.5,201.5C 344.5,200.167 344.5,198.833 344.5,197.5C 345.833,197.5 347.167,197.5 348.5,197.5C 349.183,199.176 350.517,199.843 352.5,199.5C 352.5,200.833 353.167,201.5 354.5,201.5C 355.183,203.176 356.517,203.843 358.5,203.5C 359.183,205.176 360.517,205.843 362.5,205.5C 362.5,206.833 363.167,207.5 364.5,207.5C 365.446,210.313 367.446,211.646 370.5,211.5C 370.5,212.833 371.167,213.5 372.5,213.5C 372.5,214.833 373.167,215.5 374.5,215.5C 374.5,216.833 375.167,217.5 376.5,217.5C 376.5,218.833 377.167,219.5 378.5,219.5C 378.5,220.833 379.167,221.5 380.5,221.5C 380.5,222.833 381.167,223.5 382.5,223.5C 382.157,225.483 382.824,226.817 384.5,227.5C 384.5,228.833 385.167,229.5 386.5,229.5C 386.157,231.483 386.824,232.817 388.5,233.5C 388.157,235.483 388.824,236.817 390.5,237.5C 390.157,239.483 390.824,240.817 392.5,241.5C 392.157,243.483 392.824,244.817 394.5,245.5C 394.025,248.082 394.692,250.082 396.5,251.5C 396.157,253.483 396.824,254.817 398.5,255.5C 398.025,258.082 398.692,260.082 400.5,261.5C 400.025,264.082 400.692,266.082 402.5,267.5C 402.157,269.483 402.824,270.817 404.5,271.5C 404.534,275.63 405.201,279.63 406.5,283.5C 404.631,285.635 403.964,288.302 404.5,291.5C 402.081,292.364 400.081,293.697 398.5,295.5C 397.167,295.5 395.833,295.5 394.5,295.5C 394.148,289.045 392.814,283.045 390.5,277.5C 391.036,274.302 390.369,271.635 388.5,269.5C 388.975,266.918 388.308,264.918 386.5,263.5C 386.813,260.753 386.48,258.086 385.5,255.5C 384.833,256.167 384.167,256.833 383.5,257.5C 382.284,254.367 380.617,251.7 378.5,249.5C 378.201,251.604 378.534,253.604 379.5,255.5C 381.014,259.129 382.68,262.462 384.5,265.5C 384.025,268.082 384.692,270.082 386.5,271.5C 385.964,274.698 386.631,277.365 388.5,279.5C 388.096,284.399 388.763,289.066 390.5,293.5C 388.05,303.079 386.717,313.079 386.5,323.5C 384.631,325.635 383.964,328.302 384.5,331.5C 382.153,333.527 380.819,336.194 380.5,339.5C 378.824,340.183 378.157,341.517 378.5,343.5C 377.167,343.5 376.5,344.167 376.5,345.5C 375.167,345.5 374.5,346.167 374.5,347.5C 373.167,347.5 372.5,348.167 372.5,349.5C 371.167,349.5 370.5,350.167 370.5,351.5C 369.167,351.5 368.5,352.167 368.5,353.5C 367.167,353.5 366.5,354.167 366.5,355.5C 364.517,355.157 363.183,355.824 362.5,357.5C 361.167,357.5 360.5,358.167 360.5,359.5C 358.517,359.157 357.183,359.824 356.5,361.5C 352.694,362.092 349.361,363.425 346.5,365.5C 342.694,366.092 339.361,367.425 336.5,369.5C 333.918,369.025 331.918,369.692 330.5,371.5C 323.833,371.5 317.167,371.5 310.5,371.5C 307.663,369.598 304.329,368.931 300.5,369.5C 299.082,367.692 297.082,367.025 294.5,367.5C 293.082,365.692 291.082,365.025 288.5,365.5C 287.082,363.692 285.082,363.025 282.5,363.5C 281.817,361.824 280.483,361.157 278.5,361.5C 277.833,359.5 276.5,358.167 274.5,357.5C 272.919,355.697 270.919,354.364 268.5,353.5C 268.5,352.167 267.833,351.5 266.5,351.5C 266.5,350.167 265.833,349.5 264.5,349.5C 264.5,348.167 263.833,347.5 262.5,347.5C 262.5,346.167 261.833,345.5 260.5,345.5C 260.5,344.167 259.833,343.5 258.5,343.5C 258.5,342.167 257.833,341.5 256.5,341.5C 256.5,340.167 255.833,339.5 254.5,339.5C 254.843,337.517 254.176,336.183 252.5,335.5C 252.975,332.918 252.308,330.918 250.5,329.5C 251.069,325.671 250.402,322.337 248.5,319.5C 249.124,305.656 248.458,291.989 246.5,278.5C 247.896,273.593 249.896,268.926 252.5,264.5C 251.388,263.735 250.721,262.735 250.5,261.5C 247.947,265.625 246.281,270.292 245.5,275.5C 244.509,279.445 244.176,283.445 244.5,287.5C 242.692,288.918 242.025,290.918 242.5,293.5C 239.167,293.5 235.833,293.5 232.5,293.5C 232.5,292.167 231.833,291.5 230.5,291.5C 230.5,286.167 230.5,280.833 230.5,275.5C 232.176,274.817 232.843,273.483 232.5,271.5C 234.308,270.082 234.975,268.082 234.5,265.5C 236.176,264.817 236.843,263.483 236.5,261.5C 238.575,258.639 239.908,255.306 240.5,251.5C 242.308,250.082 242.975,248.082 242.5,245.5C 244.847,243.473 246.181,240.806 246.5,237.5C 248.176,236.817 248.843,235.483 248.5,233.5C 250.176,232.817 250.843,231.483 250.5,229.5C 252.176,228.817 252.843,227.483 252.5,225.5C 253.833,225.5 254.5,224.833 254.5,223.5C 256.176,222.817 256.843,221.483 256.5,219.5C 257.833,219.5 258.5,218.833 258.5,217.5C 259.833,217.5 260.5,216.833 260.5,215.5C 261.833,215.5 262.5,214.833 262.5,213.5C 263.833,213.5 264.5,212.833 264.5,211.5C 267.554,211.646 269.554,210.313 270.5,207.5C 272.483,207.843 273.817,207.176 274.5,205.5C 275.833,205.5 276.5,204.833 276.5,203.5C 278.483,203.843 279.817,203.176 280.5,201.5C 283.806,201.181 286.473,199.847 288.5,197.5 Z"/></g>
<g><path style="opacity:1" fill="#161919" d="M 348.5,197.5 C 350.483,197.157 351.817,197.824 352.5,199.5C 350.517,199.843 349.183,199.176 348.5,197.5 Z"/></g>
<g><path style="opacity:1" fill="#1c1e1f" d="M 288.5,197.5 C 286.473,199.847 283.806,201.181 280.5,201.5C 282.074,198.292 284.741,196.958 288.5,197.5 Z"/></g>
<g><path style="opacity:1" fill="#161f1f" d="M 352.5,199.5 C 353.833,199.5 354.5,200.167 354.5,201.5C 354.5,200.167 353.833,199.5 352.5,199.5 Z"/></g>
<g><path style="opacity:1" fill="#161819" d="M 280.5,201.5 C 279.817,203.176 278.483,203.843 276.5,203.5C 277.183,201.824 278.517,201.157 280.5,201.5 Z"/></g>
<g><path style="opacity:1" fill="#0c1818" d="M 294.5,201.5 C 296.176,202.183 296.843,203.517 296.5,205.5C 294.824,204.817 294.157,203.483 294.5,201.5 Z"/></g>
<g><path style="opacity:1" fill="#0c1818" d="M 340.5,201.5 C 340.843,203.483 340.176,204.817 338.5,205.5C 338.157,203.517 338.824,202.183 340.5,201.5 Z"/></g>
<g><path style="opacity:1" fill="#141919" d="M 354.5,201.5 C 356.483,201.157 357.817,201.824 358.5,203.5C 356.517,203.843 355.183,203.176 354.5,201.5 Z"/></g>
<g><path style="opacity:1" fill="#171c1d" d="M 276.5,203.5 C 276.5,204.833 275.833,205.5 274.5,205.5C 274.5,204.167 275.167,203.5 276.5,203.5 Z"/></g>
<g><path style="opacity:1" fill="#161919" d="M 358.5,203.5 C 360.483,203.157 361.817,203.824 362.5,205.5C 360.517,205.843 359.183,205.176 358.5,203.5 Z"/></g>
<g><path style="opacity:1" fill="#121515" d="M 274.5,205.5 C 273.817,207.176 272.483,207.843 270.5,207.5C 271.183,205.824 272.517,205.157 274.5,205.5 Z"/></g>
<g><path style="opacity:1" fill="#0a1717" d="M 296.5,205.5 C 298.483,205.157 299.817,205.824 300.5,207.5C 298.517,207.843 297.183,207.176 296.5,205.5 Z"/></g>
<g><path style="opacity:1" fill="#1c2020" d="M 362.5,205.5 C 363.833,205.5 364.5,206.167 364.5,207.5C 364.5,206.167 363.833,205.5 362.5,205.5 Z"/></g>
<g><path style="opacity:1" fill="#1c1f20" d="M 270.5,207.5 C 269.554,210.313 267.554,211.646 264.5,211.5C 265.446,208.687 267.446,207.354 270.5,207.5 Z"/></g>
<g><path style="opacity:1" fill="#1b2223" d="M 336.5,209.5 C 338.337,209.639 338.67,210.306 337.5,211.5C 336.702,211.043 336.369,210.376 336.5,209.5 Z"/></g>
<g><path style="opacity:1" fill="#1f2122" d="M 364.5,207.5 C 367.554,207.354 369.554,208.687 370.5,211.5C 367.446,211.646 365.446,210.313 364.5,207.5 Z"/></g>
<g><path style="opacity:1" fill="#181e1f" d="M 264.5,211.5 C 264.5,212.833 263.833,213.5 262.5,213.5C 262.5,212.167 263.167,211.5 264.5,211.5 Z"/></g>
<g><path style="opacity:1" fill="#1c2626" d="M 300.5,207.5 C 303.726,209.885 307.06,211.885 310.5,213.5C 306.191,213.756 302.191,212.756 298.5,210.5C 299.612,209.735 300.279,208.735 300.5,207.5 Z"/></g>
<g><path style="opacity:1" fill="#182222" d="M 338.5,205.5 C 337.833,206.833 337.167,208.167 336.5,209.5C 334.922,210.066 333.588,211.066 332.5,212.5C 329.914,213.48 327.247,213.813 324.5,213.5C 328.256,212.085 331.589,209.751 334.5,206.5C 335.689,205.571 337.022,205.238 338.5,205.5 Z"/></g>
<g><path style="opacity:1" fill="#151f1f" d="M 370.5,211.5 C 371.833,211.5 372.5,212.167 372.5,213.5C 372.5,212.167 371.833,211.5 370.5,211.5 Z"/></g>
<g><path style="opacity:1" fill="#181e1f" d="M 262.5,213.5 C 262.5,214.833 261.833,215.5 260.5,215.5C 260.5,214.167 261.167,213.5 262.5,213.5 Z"/></g>
<g><path style="opacity:1" fill="#081414" d="M 310.5,213.5 C 315.167,213.5 319.833,213.5 324.5,213.5C 322.603,214.805 320.269,215.471 317.5,215.5C 314.731,215.471 312.397,214.805 310.5,213.5 Z"/></g>
<g><path style="opacity:1" fill="#131e1f" d="M 372.5,213.5 C 373.833,213.5 374.5,214.167 374.5,215.5C 374.5,214.167 373.833,213.5 372.5,213.5 Z"/></g>
<g><path style="opacity:1" fill="#181e1f" d="M 260.5,215.5 C 260.5,216.833 259.833,217.5 258.5,217.5C 258.5,216.167 259.167,215.5 260.5,215.5 Z"/></g>
<g><path style="opacity:1" fill="#1c2020" d="M 374.5,215.5 C 375.833,215.5 376.5,216.167 376.5,217.5C 376.5,216.167 375.833,215.5 374.5,215.5 Z"/></g>
<g><path style="opacity:1" fill="#181e1f" d="M 258.5,217.5 C 258.5,218.833 257.833,219.5 256.5,219.5C 256.5,218.167 257.167,217.5 258.5,217.5 Z"/></g>
<g><path style="opacity:1" fill="#1c2020" d="M 376.5,217.5 C 377.833,217.5 378.5,218.167 378.5,219.5C 378.5,218.167 377.833,217.5 376.5,217.5 Z"/></g>
<g><path style="opacity:1" fill="#16191a" d="M 256.5,219.5 C 256.843,221.483 256.176,222.817 254.5,223.5C 254.157,221.517 254.824,220.183 256.5,219.5 Z"/></g>
<g><path style="opacity:1" fill="#1c1f20" d="M 378.5,219.5 C 379.833,219.5 380.5,220.167 380.5,221.5C 380.5,220.167 379.833,219.5 378.5,219.5 Z"/></g>
<g><path style="opacity:1" fill="#1c1f20" d="M 380.5,221.5 C 381.833,221.5 382.5,222.167 382.5,223.5C 382.5,222.167 381.833,221.5 380.5,221.5 Z"/></g>
<g><path style="opacity:1" fill="#181e1f" d="M 254.5,223.5 C 254.5,224.833 253.833,225.5 252.5,225.5C 252.5,224.167 253.167,223.5 254.5,223.5 Z"/></g>
<g><path style="opacity:1" fill="#161a1a" d="M 382.5,223.5 C 384.176,224.183 384.843,225.517 384.5,227.5C 382.824,226.817 382.157,225.483 382.5,223.5 Z"/></g>
<g><path style="opacity:1" fill="#16191a" d="M 252.5,225.5 C 252.843,227.483 252.176,228.817 250.5,229.5C 250.157,227.517 250.824,226.183 252.5,225.5 Z"/></g>
<g><path style="opacity:1" fill="#1c2020" d="M 384.5,227.5 C 385.833,227.5 386.5,228.167 386.5,229.5C 386.5,228.167 385.833,227.5 384.5,227.5 Z"/></g>
<g><path style="opacity:1" fill="#111919" d="M 250.5,229.5 C 250.843,231.483 250.176,232.817 248.5,233.5C 248.5,232.833 248.5,232.167 248.5,231.5C 248.5,230.167 249.167,229.5 250.5,229.5 Z"/></g>
<g><path style="opacity:1" fill="#161a1a" d="M 386.5,229.5 C 388.176,230.183 388.843,231.517 388.5,233.5C 386.824,232.817 386.157,231.483 386.5,229.5 Z"/></g>
<g><path style="opacity:1" fill="#41c1c2" d="M 248.5,231.5 C 248.5,232.167 248.5,232.833 248.5,233.5C 247.833,233.5 247.167,233.5 246.5,233.5C 246.5,232.167 247.167,231.5 248.5,231.5 Z"/></g>
<g><path style="opacity:1" fill="#0e1818" d="M 246.5,233.5 C 247.167,233.5 247.833,233.5 248.5,233.5C 248.843,235.483 248.176,236.817 246.5,237.5C 246.5,236.167 246.5,234.833 246.5,233.5 Z"/></g>
<g><path style="opacity:1" fill="#161a1a" d="M 388.5,233.5 C 390.176,234.183 390.843,235.517 390.5,237.5C 388.824,236.817 388.157,235.483 388.5,233.5 Z"/></g>
<g><path style="opacity:1" fill="#0c1d1d" d="M 262.5,239.5 C 262.639,237.663 263.306,237.33 264.5,238.5C 264.043,239.298 263.376,239.631 262.5,239.5 Z"/></g>
<g><path style="opacity:1" fill="#161a1a" d="M 390.5,237.5 C 392.176,238.183 392.843,239.517 392.5,241.5C 390.824,240.817 390.157,239.483 390.5,237.5 Z"/></g>
<g><path style="opacity:1" fill="#091818" d="M 262.5,239.5 C 262.843,241.483 262.176,242.817 260.5,243.5C 260.157,241.517 260.824,240.183 262.5,239.5 Z"/></g>
<g><path style="opacity:1" fill="#131818" d="M 246.5,237.5 C 246.181,240.806 244.847,243.473 242.5,245.5C 242.5,244.833 242.5,244.167 242.5,243.5C 242.354,240.446 243.687,238.446 246.5,237.5 Z"/></g>
<g><path style="opacity:1" fill="#0a1818" d="M 376.5,245.5 C 375.414,245.38 374.747,244.713 374.5,243.5C 374.833,242.833 375.167,242.167 375.5,241.5C 376.429,242.689 376.762,244.022 376.5,245.5 Z"/></g>
<g><path style="opacity:1" fill="#161a1a" d="M 392.5,241.5 C 394.176,242.183 394.843,243.517 394.5,245.5C 392.824,244.817 392.157,243.483 392.5,241.5 Z"/></g>
<g><path style="opacity:1" fill="#747678" d="M 242.5,243.5 C 242.5,244.167 242.5,244.833 242.5,245.5C 241.833,245.5 241.167,245.5 240.5,245.5C 240.5,244.167 241.167,243.5 242.5,243.5 Z"/></g>
<g><path style="opacity:1" fill="#0b1313" d="M 240.5,245.5 C 241.167,245.5 241.833,245.5 242.5,245.5C 242.975,248.082 242.308,250.082 240.5,251.5C 240.5,250.833 240.5,250.167 240.5,249.5C 240.5,248.167 240.5,246.833 240.5,245.5 Z"/></g>
<g><path style="opacity:1" fill="#0d1717" d="M 260.5,243.5 C 260.083,246.343 259.083,249.01 257.5,251.5C 256.735,252.612 255.735,253.279 254.5,253.5C 254.917,250.657 255.917,247.99 257.5,245.5C 258.265,244.388 259.265,243.721 260.5,243.5 Z"/></g>
<g><path style="opacity:1" fill="#0a1818" d="M 376.5,245.5 C 378.176,246.183 378.843,247.517 378.5,249.5C 376.824,248.817 376.157,247.483 376.5,245.5 Z"/></g>
<g><path style="opacity:1" fill="#141818" d="M 394.5,245.5 C 396.308,246.918 396.975,248.918 396.5,251.5C 394.692,250.082 394.025,248.082 394.5,245.5 Z"/></g>
<g><path style="opacity:1" fill="#3ebfc0" d="M 240.5,249.5 C 240.5,250.167 240.5,250.833 240.5,251.5C 239.833,251.5 239.167,251.5 238.5,251.5C 238.5,250.167 239.167,249.5 240.5,249.5 Z"/></g>
<g><path style="opacity:1" fill="#0f1818" d="M 378.5,249.5 C 380.617,251.7 382.284,254.367 383.5,257.5C 384.167,256.833 384.833,256.167 385.5,255.5C 386.48,258.086 386.813,260.753 386.5,263.5C 385.167,263.5 384.5,264.167 384.5,265.5C 382.68,262.462 381.014,259.129 379.5,255.5C 378.534,253.604 378.201,251.604 378.5,249.5 Z"/></g>
<g><path style="opacity:1" fill="#161a1a" d="M 396.5,251.5 C 398.176,252.183 398.843,253.517 398.5,255.5C 396.824,254.817 396.157,253.483 396.5,251.5 Z"/></g>
<g><path style="opacity:1" fill="#081615" d="M 254.5,253.5 C 255.042,257.259 253.708,259.926 250.5,261.5C 250.819,258.194 252.153,255.527 254.5,253.5 Z"/></g>
<g><path style="opacity:1" fill="#0b1212" d="M 238.5,251.5 C 239.167,251.5 239.833,251.5 240.5,251.5C 239.908,255.306 238.575,258.639 236.5,261.5C 236.5,260.833 236.5,260.167 236.5,259.5C 236.365,256.583 237.032,253.916 238.5,251.5 Z"/></g>
<g><path style="opacity:1" fill="#141818" d="M 398.5,255.5 C 400.308,256.918 400.975,258.918 400.5,261.5C 398.692,260.082 398.025,258.082 398.5,255.5 Z"/></g>
<g><path style="opacity:1" fill="#39bbbb" d="M 236.5,259.5 C 236.5,260.167 236.5,260.833 236.5,261.5C 235.833,261.5 235.167,261.5 234.5,261.5C 234.5,260.167 235.167,259.5 236.5,259.5 Z"/></g>
<g><path style="opacity:1" fill="#0d1818" d="M 234.5,261.5 C 235.167,261.5 235.833,261.5 236.5,261.5C 236.843,263.483 236.176,264.817 234.5,265.5C 234.5,264.167 234.5,262.833 234.5,261.5 Z"/></g>
<g><path style="opacity:1" fill="#141818" d="M 400.5,261.5 C 402.308,262.918 402.975,264.918 402.5,267.5C 400.692,266.082 400.025,264.082 400.5,261.5 Z"/></g>
<g><path style="opacity:1" fill="#b4b6ba" d="M 386.5,263.5 C 386.5,264.833 385.833,265.5 384.5,265.5C 384.5,264.167 385.167,263.5 386.5,263.5 Z"/></g>
<g><path style="opacity:1" fill="#0c1313" d="M 234.5,265.5 C 234.975,268.082 234.308,270.082 232.5,271.5C 232.025,268.918 232.692,266.918 234.5,265.5 Z"/></g>
<g><path style="opacity:1" fill="#0b1313" d="M 386.5,263.5 C 388.308,264.918 388.975,266.918 388.5,269.5C 387.167,269.5 386.5,270.167 386.5,271.5C 384.692,270.082 384.025,268.082 384.5,265.5C 385.833,265.5 386.5,264.833 386.5,263.5 Z"/></g>
<g><path style="opacity:1" fill="#161a1a" d="M 402.5,267.5 C 404.176,268.183 404.843,269.517 404.5,271.5C 402.824,270.817 402.157,269.483 402.5,267.5 Z"/></g>
<g><path style="opacity:1" fill="#bdc1c4" d="M 388.5,269.5 C 388.5,270.833 387.833,271.5 386.5,271.5C 386.5,270.167 387.167,269.5 388.5,269.5 Z"/></g>
<g><path style="opacity:1" fill="#060d0d" d="M 388.5,269.5 C 390.369,271.635 391.036,274.302 390.5,277.5C 389.167,277.5 388.5,278.167 388.5,279.5C 386.631,277.365 385.964,274.698 386.5,271.5C 387.833,271.5 388.5,270.833 388.5,269.5 Z"/></g>
<g><path style="opacity:1" fill="#131717" d="M 232.5,271.5 C 232.843,273.483 232.176,274.817 230.5,275.5C 230.157,273.517 230.824,272.183 232.5,271.5 Z"/></g>
<g><path style="opacity:1" fill="#101414" d="M 230.5,275.5 C 230.5,280.833 230.5,286.167 230.5,291.5C 229.188,289.257 228.522,286.59 228.5,283.5C 228.522,280.41 229.188,277.743 230.5,275.5 Z"/></g>
<g><path style="opacity:1" fill="#bdc1c4" d="M 390.5,277.5 C 390.5,278.833 389.833,279.5 388.5,279.5C 388.5,278.167 389.167,277.5 390.5,277.5 Z"/></g>
<g><path style="opacity:1" fill="#1e2121" d="M 404.5,271.5 C 406.369,274.045 407.702,277.045 408.5,280.5C 408.36,282.03 407.693,283.03 406.5,283.5C 405.201,279.63 404.534,275.63 404.5,271.5 Z"/></g>
<g><path style="opacity:1" fill="#090f0f" d="M 390.5,277.5 C 392.814,283.045 394.148,289.045 394.5,295.5C 395.833,295.5 397.167,295.5 398.5,295.5C 397.082,297.308 395.082,297.975 392.5,297.5C 392.843,295.517 392.176,294.183 390.5,293.5C 388.763,289.066 388.096,284.399 388.5,279.5C 389.833,279.5 390.5,278.833 390.5,277.5 Z"/></g>
<g><path style="opacity:1" fill="#0c1515" d="M 406.5,283.5 C 407.036,286.698 406.369,289.365 404.5,291.5C 403.964,288.302 404.631,285.635 406.5,283.5 Z"/></g>
<g><path style="opacity:1" fill="#0b1111" d="M 250.5,261.5 C 250.721,262.735 251.388,263.735 252.5,264.5C 249.896,268.926 247.896,273.593 246.5,278.5C 248.458,291.989 249.124,305.656 248.5,319.5C 247.167,308.833 245.833,298.167 244.5,287.5C 244.176,283.445 244.509,279.445 245.5,275.5C 246.281,270.292 247.947,265.625 250.5,261.5 Z"/></g>
<g><path style="opacity:1" fill="#152424" d="M 230.5,291.5 C 231.833,291.5 232.5,292.167 232.5,293.5C 231.167,293.5 230.5,292.833 230.5,291.5 Z"/></g>
<g><path style="opacity:1" fill="#0b1313" d="M 244.5,287.5 C 244.5,290.167 244.5,292.833 244.5,295.5C 240.029,296.089 236.029,295.423 232.5,293.5C 235.833,293.5 239.167,293.5 242.5,293.5C 242.025,290.918 242.692,288.918 244.5,287.5 Z"/></g>
<g><path style="opacity:1" fill="#0b1414" d="M 404.5,291.5 C 404.5,292.833 404.5,294.167 404.5,295.5C 402.5,295.5 400.5,295.5 398.5,295.5C 400.081,293.697 402.081,292.364 404.5,291.5 Z"/></g>
<g><path style="opacity:1" fill="#0f1515" d="M 390.5,293.5 C 390.829,299.537 390.496,305.537 389.5,311.5C 389.118,315.916 388.118,319.916 386.5,323.5C 386.717,313.079 388.05,303.079 390.5,293.5 Z"/></g>
<g><path style="opacity:1" fill="#1a1f1f" d="M 248.5,319.5 C 250.402,322.337 251.069,325.671 250.5,329.5C 249.003,327.438 247.67,325.105 246.5,322.5C 247.612,321.735 248.279,320.735 248.5,319.5 Z"/></g>
<g><path style="opacity:1" fill="#0c1515" d="M 386.5,323.5 C 387.036,326.698 386.369,329.365 384.5,331.5C 383.964,328.302 384.631,325.635 386.5,323.5 Z"/></g>
<g><path style="opacity:1" fill="#0d1717" d="M 250.5,329.5 C 252.308,330.918 252.975,332.918 252.5,335.5C 250.692,334.082 250.025,332.082 250.5,329.5 Z"/></g>
<g><path style="opacity:1" fill="#0e1918" d="M 252.5,335.5 C 254.176,336.183 254.843,337.517 254.5,339.5C 252.824,338.817 252.157,337.483 252.5,335.5 Z"/></g>
<g><path style="opacity:1" fill="#1d2324" d="M 384.5,331.5 C 385.042,335.259 383.708,337.926 380.5,339.5C 380.819,336.194 382.153,333.527 384.5,331.5 Z"/></g>
<g><path style="opacity:1" fill="#111f1f" d="M 254.5,339.5 C 255.833,339.5 256.5,340.167 256.5,341.5C 255.167,341.5 254.5,340.833 254.5,339.5 Z"/></g>
<g><path style="opacity:1" fill="#0e1818" d="M 380.5,339.5 C 380.843,341.483 380.176,342.817 378.5,343.5C 378.157,341.517 378.824,340.183 380.5,339.5 Z"/></g>
<g><path style="opacity:1" fill="#111f1f" d="M 256.5,341.5 C 257.833,341.5 258.5,342.167 258.5,343.5C 257.167,343.5 256.5,342.833 256.5,341.5 Z"/></g>
<g><path style="opacity:1" fill="#111e1e" d="M 258.5,343.5 C 259.833,343.5 260.5,344.167 260.5,345.5C 259.167,345.5 258.5,344.833 258.5,343.5 Z"/></g>
<g><path style="opacity:1" fill="#141f1f" d="M 378.5,343.5 C 378.5,344.833 377.833,345.5 376.5,345.5C 376.5,344.167 377.167,343.5 378.5,343.5 Z"/></g>
<g><path style="opacity:1" fill="#0e1d1e" d="M 260.5,345.5 C 261.833,345.5 262.5,346.167 262.5,347.5C 261.833,347.5 261.167,347.5 260.5,347.5C 260.5,346.833 260.5,346.167 260.5,345.5 Z"/></g>
<g><path style="opacity:1" fill="#141e1e" d="M 376.5,345.5 C 376.5,346.833 375.833,347.5 374.5,347.5C 374.5,346.167 375.167,345.5 376.5,345.5 Z"/></g>
<g><path style="opacity:1" fill="#34b7b7" d="M 260.5,347.5 C 261.167,347.5 261.833,347.5 262.5,347.5C 262.5,348.167 262.5,348.833 262.5,349.5C 261.167,349.5 260.5,348.833 260.5,347.5 Z"/></g>
<g><path style="opacity:1" fill="#0b1e1e" d="M 262.5,347.5 C 263.833,347.5 264.5,348.167 264.5,349.5C 263.833,349.5 263.167,349.5 262.5,349.5C 262.5,348.833 262.5,348.167 262.5,347.5 Z"/></g>
<g><path style="opacity:1" fill="#111e1e" d="M 374.5,347.5 C 374.5,348.167 374.5,348.833 374.5,349.5C 373.833,349.5 373.167,349.5 372.5,349.5C 372.5,348.167 373.167,347.5 374.5,347.5 Z"/></g>
<g><path style="opacity:1" fill="#34b7b7" d="M 262.5,349.5 C 263.167,349.5 263.833,349.5 264.5,349.5C 264.5,350.167 264.5,350.833 264.5,351.5C 263.167,351.5 262.5,350.833 262.5,349.5 Z"/></g>
<g><path style="opacity:1" fill="#0b1e1e" d="M 264.5,349.5 C 265.833,349.5 266.5,350.167 266.5,351.5C 265.833,351.5 265.167,351.5 264.5,351.5C 264.5,350.833 264.5,350.167 264.5,349.5 Z"/></g>
<g><path style="opacity:1" fill="#0a1d1d" d="M 372.5,349.5 C 372.5,350.167 372.5,350.833 372.5,351.5C 371.833,351.5 371.167,351.5 370.5,351.5C 370.5,350.167 371.167,349.5 372.5,349.5 Z"/></g>
<g><path style="opacity:1" fill="#3abcbd" d="M 372.5,349.5 C 373.167,349.5 373.833,349.5 374.5,349.5C 374.5,350.833 373.833,351.5 372.5,351.5C 372.5,350.833 372.5,350.167 372.5,349.5 Z"/></g>
<g><path style="opacity:1" fill="#34b7b7" d="M 264.5,351.5 C 265.167,351.5 265.833,351.5 266.5,351.5C 266.5,352.167 266.5,352.833 266.5,353.5C 265.167,353.5 264.5,352.833 264.5,351.5 Z"/></g>
<g><path style="opacity:1" fill="#0b1e1e" d="M 266.5,351.5 C 267.833,351.5 268.5,352.167 268.5,353.5C 267.833,353.5 267.167,353.5 266.5,353.5C 266.5,352.833 266.5,352.167 266.5,351.5 Z"/></g>
<g><path style="opacity:1" fill="#0d1d1d" d="M 370.5,351.5 C 370.5,352.833 369.833,353.5 368.5,353.5C 368.5,352.167 369.167,351.5 370.5,351.5 Z"/></g>
<g><path style="opacity:1" fill="#141e1e" d="M 368.5,353.5 C 368.5,354.833 367.833,355.5 366.5,355.5C 366.5,354.167 367.167,353.5 368.5,353.5 Z"/></g>
<g><path style="opacity:1" fill="#252f2f" d="M 268.5,353.5 C 270.919,354.364 272.919,355.697 274.5,357.5C 272.5,357.5 270.5,357.5 268.5,357.5C 268.5,356.167 268.5,354.833 268.5,353.5 Z"/></g>
<g><path style="opacity:1" fill="#0d1717" d="M 366.5,355.5 C 365.817,357.176 364.483,357.843 362.5,357.5C 363.183,355.824 364.517,355.157 366.5,355.5 Z"/></g>
<g><path style="opacity:1" fill="#97c7c9" d="M 266.5,353.5 C 267.167,353.5 267.833,353.5 268.5,353.5C 268.5,354.833 268.5,356.167 268.5,357.5C 270.5,357.5 272.5,357.5 274.5,357.5C 274.5,358.167 274.5,358.833 274.5,359.5C 272.11,359.087 269.777,358.421 267.5,357.5C 266.754,356.264 266.421,354.93 266.5,353.5 Z"/></g>
<g><path style="opacity:1" fill="#141e1e" d="M 362.5,357.5 C 362.5,358.833 361.833,359.5 360.5,359.5C 360.5,358.167 361.167,357.5 362.5,357.5 Z"/></g>
<g><path style="opacity:1" fill="#111919" d="M 274.5,357.5 C 276.5,358.167 277.833,359.5 278.5,361.5C 276.517,361.843 275.183,361.176 274.5,359.5C 274.5,358.833 274.5,358.167 274.5,357.5 Z"/></g>
<g><path style="opacity:1" fill="#0d1717" d="M 360.5,359.5 C 359.817,361.176 358.483,361.843 356.5,361.5C 357.183,359.824 358.517,359.157 360.5,359.5 Z"/></g>
<g><path style="opacity:1" fill="#0e1818" d="M 278.5,361.5 C 280.483,361.157 281.817,361.824 282.5,363.5C 280.517,363.843 279.183,363.176 278.5,361.5 Z"/></g>
<g><path style="opacity:1" fill="#192222" d="M 282.5,363.5 C 285.082,363.025 287.082,363.692 288.5,365.5C 287.167,366.167 285.833,366.833 284.5,367.5C 283.833,366.167 283.167,364.833 282.5,363.5 Z"/></g>
<g><path style="opacity:1" fill="#181f20" d="M 356.5,361.5 C 354.87,364.173 352.537,366.173 349.5,367.5C 348.735,366.388 347.735,365.721 346.5,365.5C 349.361,363.425 352.694,362.092 356.5,361.5 Z"/></g>
<g><path style="opacity:1" fill="#151f1f" d="M 288.5,365.5 C 291.082,365.025 293.082,365.692 294.5,367.5C 293.265,367.721 292.265,368.388 291.5,369.5C 290.066,368.412 289.066,367.078 288.5,365.5 Z"/></g>
<g><path style="opacity:1" fill="#0e1313" d="M 278.5,367.5 C 276.692,368.918 276.025,370.918 276.5,373.5C 274.631,371.365 273.964,368.698 274.5,365.5C 276.483,365.157 277.817,365.824 278.5,367.5 Z"/></g>
<g><path style="opacity:1" fill="#0e1313" d="M 360.5,371.5 C 360.5,370.167 360.5,368.833 360.5,367.5C 359.167,367.5 357.833,367.5 356.5,367.5C 357.918,365.692 359.918,365.025 362.5,365.5C 362.975,368.082 362.308,370.082 360.5,371.5 Z"/></g>
<g><path style="opacity:1" fill="#0f1818" d="M 346.5,365.5 C 346.279,366.735 345.612,367.735 344.5,368.5C 341.914,369.48 339.247,369.813 336.5,369.5C 339.361,367.425 342.694,366.092 346.5,365.5 Z"/></g>
<g><path style="opacity:1" fill="#32c9c9" d="M 278.5,367.5 C 281.061,370.363 284.394,371.696 288.5,371.5C 289.918,373.308 291.918,373.975 294.5,373.5C 295.918,375.308 297.918,375.975 300.5,375.5C 304.105,377.416 308.105,378.75 312.5,379.5C 312.5,386.833 312.5,394.167 312.5,401.5C 311.167,401.5 310.5,402.167 310.5,403.5C 309.167,403.5 308.5,404.167 308.5,405.5C 306.922,406.066 305.588,407.066 304.5,408.5C 312.5,409.833 320.5,409.833 328.5,408.5C 327.412,407.066 326.078,406.066 324.5,405.5C 324.843,403.517 324.176,402.183 322.5,401.5C 322.5,393.5 322.5,385.5 322.5,377.5C 325.698,378.036 328.365,377.369 330.5,375.5C 334.971,376.089 338.971,375.423 342.5,373.5C 345.082,373.975 347.082,373.308 348.5,371.5C 350.483,371.843 351.817,371.176 352.5,369.5C 354.483,369.843 355.817,369.176 356.5,367.5C 357.833,367.5 359.167,367.5 360.5,367.5C 360.5,368.833 360.5,370.167 360.5,371.5C 358.598,374.337 357.931,377.671 358.5,381.5C 356.631,383.635 355.964,386.302 356.5,389.5C 354.438,394.422 353.105,399.755 352.5,405.5C 350.544,406.122 349.211,407.455 348.5,409.5C 348.747,410.713 349.414,411.38 350.5,411.5C 350.5,412.833 350.5,414.167 350.5,415.5C 327.475,416.156 304.809,415.49 282.5,413.5C 284.176,412.817 284.843,411.483 284.5,409.5C 286.176,408.817 286.843,407.483 286.5,405.5C 285.167,405.5 283.833,405.5 282.5,405.5C 283.036,402.302 282.369,399.635 280.5,397.5C 281.089,393.029 280.423,389.029 278.5,385.5C 279.089,381.029 278.423,377.029 276.5,373.5C 276.025,370.918 276.692,368.918 278.5,367.5 Z"/></g>
<g><path style="opacity:1" fill="#141818" d="M 356.5,367.5 C 355.817,369.176 354.483,369.843 352.5,369.5C 353.183,367.824 354.517,367.157 356.5,367.5 Z"/></g>
<g><path style="opacity:1" fill="#192324" d="M 294.5,367.5 C 297.082,367.025 299.082,367.692 300.5,369.5C 299.265,369.721 298.265,370.388 297.5,371.5C 296.066,370.412 295.066,369.078 294.5,367.5 Z"/></g>
<g><path style="opacity:1" fill="#141717" d="M 278.5,367.5 C 280.5,367.5 282.5,367.5 284.5,367.5C 285.833,368.833 287.167,370.167 288.5,371.5C 284.394,371.696 281.061,370.363 278.5,367.5 Z"/></g>
<g><path style="opacity:1" fill="#091414" d="M 300.5,369.5 C 304.329,368.931 307.663,369.598 310.5,371.5C 306.671,372.069 303.337,371.402 300.5,369.5 Z"/></g>
<g><path style="opacity:1" fill="#0a1616" d="M 336.5,369.5 C 335.082,371.308 333.082,371.975 330.5,371.5C 331.918,369.692 333.918,369.025 336.5,369.5 Z"/></g>
<g><path style="opacity:1" fill="#141818" d="M 352.5,369.5 C 351.817,371.176 350.483,371.843 348.5,371.5C 349.183,369.824 350.517,369.157 352.5,369.5 Z"/></g>
<g><path style="opacity:1" fill="#131717" d="M 288.5,371.5 C 291.082,371.025 293.082,371.692 294.5,373.5C 291.918,373.975 289.918,373.308 288.5,371.5 Z"/></g>
<g><path style="opacity:1" fill="#0a1313" d="M 310.5,371.5 C 317.167,371.5 323.833,371.5 330.5,371.5C 330.5,372.167 330.5,372.833 330.5,373.5C 323.416,374.126 316.75,373.459 310.5,371.5 Z"/></g>
<g><path style="opacity:1" fill="#131617" d="M 348.5,371.5 C 347.082,373.308 345.082,373.975 342.5,373.5C 343.918,371.692 345.918,371.025 348.5,371.5 Z"/></g>
<g><path style="opacity:1" fill="#0f1313" d="M 360.5,371.5 C 361.069,375.329 360.402,378.663 358.5,381.5C 357.931,377.671 358.598,374.337 360.5,371.5 Z"/></g>
<g><path style="opacity:1" fill="#0b1414" d="M 276.5,373.5 C 278.423,377.029 279.089,381.029 278.5,385.5C 276.577,381.971 275.911,377.971 276.5,373.5 Z"/></g>
<g><path style="opacity:1" fill="#131717" d="M 294.5,373.5 C 297.082,373.025 299.082,373.692 300.5,375.5C 297.918,375.975 295.918,375.308 294.5,373.5 Z"/></g>
<g><path style="opacity:1" fill="#d3d8dc" d="M 288.5,365.5 C 289.066,367.078 290.066,368.412 291.5,369.5C 292.265,368.388 293.265,367.721 294.5,367.5C 295.066,369.078 296.066,370.412 297.5,371.5C 298.265,370.388 299.265,369.721 300.5,369.5C 303.337,371.402 306.671,372.069 310.5,371.5C 316.75,373.459 323.416,374.126 330.5,373.5C 330.5,374.167 330.5,374.833 330.5,375.5C 327.167,375.5 323.833,375.5 320.5,375.5C 319.864,384.565 320.53,393.231 322.5,401.5C 322.157,403.483 322.824,404.817 324.5,405.5C 322.257,406.812 319.59,407.478 316.5,407.5C 313.41,407.478 310.743,406.812 308.5,405.5C 309.833,405.5 310.5,404.833 310.5,403.5C 311.833,403.5 312.5,402.833 312.5,401.5C 314.47,393.231 315.136,384.565 314.5,375.5C 309.833,375.5 305.167,375.5 300.5,375.5C 299.082,373.692 297.082,373.025 294.5,373.5C 293.082,371.692 291.082,371.025 288.5,371.5C 287.167,370.167 285.833,368.833 284.5,367.5C 285.833,366.833 287.167,366.167 288.5,365.5 Z"/></g>
<g><path style="opacity:1" fill="#121515" d="M 330.5,373.5 C 334.5,373.5 338.5,373.5 342.5,373.5C 338.971,375.423 334.971,376.089 330.5,375.5C 330.5,374.833 330.5,374.167 330.5,373.5 Z"/></g>
<g><path style="opacity:1" fill="#0b1111" d="M 330.5,375.5 C 328.365,377.369 325.698,378.036 322.5,377.5C 322.5,385.5 322.5,393.5 322.5,401.5C 320.53,393.231 319.864,384.565 320.5,375.5C 323.833,375.5 327.167,375.5 330.5,375.5 Z"/></g>
<g><path style="opacity:1" fill="#657a7c" d="M 510.5,377.5 C 510.5,378.833 509.833,379.5 508.5,379.5C 508.5,378.167 509.167,377.5 510.5,377.5 Z"/></g>
<g><path style="opacity:1" fill="#0c1212" d="M 300.5,375.5 C 305.167,375.5 309.833,375.5 314.5,375.5C 315.136,384.565 314.47,393.231 312.5,401.5C 312.5,394.167 312.5,386.833 312.5,379.5C 308.105,378.75 304.105,377.416 300.5,375.5 Z"/></g>
<g><path style="opacity:1" fill="#0c1515" d="M 358.5,381.5 C 359.036,384.698 358.369,387.365 356.5,389.5C 355.964,386.302 356.631,383.635 358.5,381.5 Z"/></g>
<g><path style="opacity:1" fill="#6b7f81" d="M 506.5,383.5 C 506.5,384.833 505.833,385.5 504.5,385.5C 504.5,384.167 505.167,383.5 506.5,383.5 Z"/></g>
<g><path style="opacity:1" fill="#0b1414" d="M 278.5,385.5 C 280.423,389.029 281.089,393.029 280.5,397.5C 278.577,393.971 277.911,389.971 278.5,385.5 Z"/></g>
<g><path style="opacity:1" fill="#101717" d="M 356.5,389.5 C 356.824,393.555 356.491,397.555 355.5,401.5C 354.943,403.332 353.943,404.665 352.5,405.5C 353.105,399.755 354.438,394.422 356.5,389.5 Z"/></g>
<g><path style="opacity:1" fill="#0c1515" d="M 280.5,397.5 C 282.369,399.635 283.036,402.302 282.5,405.5C 280.631,403.365 279.964,400.698 280.5,397.5 Z"/></g>
<g><path style="opacity:1" fill="#151f1e" d="M 312.5,401.5 C 312.5,402.833 311.833,403.5 310.5,403.5C 310.5,402.167 311.167,401.5 312.5,401.5 Z"/></g>
<g><path style="opacity:1" fill="#0e1818" d="M 322.5,401.5 C 324.176,402.183 324.843,403.517 324.5,405.5C 322.824,404.817 322.157,403.483 322.5,401.5 Z"/></g>
<g><path style="opacity:1" fill="#141e1e" d="M 310.5,403.5 C 310.5,404.833 309.833,405.5 308.5,405.5C 308.5,404.167 309.167,403.5 310.5,403.5 Z"/></g>
<g><path style="opacity:1" fill="#0e1514" d="M 308.5,405.5 C 310.743,406.812 313.41,407.478 316.5,407.5C 319.59,407.478 322.257,406.812 324.5,405.5C 326.078,406.066 327.412,407.066 328.5,408.5C 320.5,409.833 312.5,409.833 304.5,408.5C 305.588,407.066 306.922,406.066 308.5,405.5 Z"/></g>
<g><path style="opacity:1" fill="#0c1717" d="M 282.5,405.5 C 283.833,405.5 285.167,405.5 286.5,405.5C 286.843,407.483 286.176,408.817 284.5,409.5C 283.833,408.167 283.167,406.833 282.5,405.5 Z"/></g>
<g><path style="opacity:1" fill="#0b1212" d="M 352.5,405.5 C 352.386,407.718 351.72,409.718 350.5,411.5C 349.414,411.38 348.747,410.713 348.5,409.5C 349.211,407.455 350.544,406.122 352.5,405.5 Z"/></g>
<g><path style="opacity:1" fill="#141818" d="M 284.5,409.5 C 284.843,411.483 284.176,412.817 282.5,413.5C 282.157,411.517 282.824,410.183 284.5,409.5 Z"/></g>
<g><path style="opacity:1" fill="#0a1313" d="M 350.5,411.5 C 352.035,412.844 353.368,414.511 354.5,416.5C 329.842,417.5 305.176,417.833 280.5,417.5C 280.157,415.517 280.824,414.183 282.5,413.5C 304.809,415.49 327.475,416.156 350.5,415.5C 350.5,414.167 350.5,412.833 350.5,411.5 Z"/></g>
<g><path style="opacity:1" fill="#010101" d="M 192.5,433.5 C 275.167,433.5 357.833,433.5 440.5,433.5C 440.5,444.167 440.5,454.833 440.5,465.5C 357.833,465.5 275.167,465.5 192.5,465.5C 192.5,454.833 192.5,444.167 192.5,433.5 Z"/></g>
</svg>
