<?xml version="1.0" encoding="UTF-8"?>
<!DOCTYPE svg PUBLIC "-//W3C//DTD SVG 1.1//EN" "http://www.w3.org/Graphics/SVG/1.1/DTD/svg11.dtd">
<svg xmlns="http://www.w3.org/2000/svg" version="1.1" width="512px" height="512px" style="shape-rendering:geometricPrecision; text-rendering:geometricPrecision; image-rendering:optimizeQuality; fill-rule:evenodd; clip-rule:evenodd" xmlns:xlink="http://www.w3.org/1999/xlink">
<g><path style="opacity:0.996" fill="#020104" d="M 82.5,-0.5 C 197.833,-0.5 313.167,-0.5 428.5,-0.5C 474.5,8.83333 502.167,36.5 511.5,82.5C 511.5,197.833 511.5,313.167 511.5,428.5C 502.167,474.5 474.5,502.167 428.5,511.5C 313.167,511.5 197.833,511.5 82.5,511.5C 36.5,502.167 8.83333,474.5 -0.5,428.5C -0.5,313.167 -0.5,197.833 -0.5,82.5C 8.83333,36.5 36.5,8.83333 82.5,-0.5 Z M 234.5,59.5 C 310.936,54.5767 375.769,79.2433 429,133.5C 430.289,135.055 430.956,136.721 431,138.5C 405.287,170.758 379.453,202.925 353.5,235C 288.167,235.667 222.833,235.667 157.5,235C 131.547,202.925 105.713,170.758 80,138.5C 80.044,136.721 80.7107,135.055 82,133.5C 123.697,90.2362 174.53,65.5696 234.5,59.5 Z"/></g>
<g><path style="opacity:0.944" fill="#020104" d="M 333.5,97.5 C 325.775,136.766 317.108,176.099 307.5,215.5C 290.167,216.833 272.833,216.833 255.5,215.5C 281.51,176.138 307.51,136.805 333.5,97.5 Z"/></g>
</svg>
